<svg width="48" height="49" viewBox="0 0 48 49" fill="none" xmlns="http://www.w3.org/2000/svg">
<path d="M45.504 28.8187H44.7926V22.4102C44.7926 21.3956 44.2876 20.4973 43.5164 19.9515V19.0789C43.5164 17.8132 42.4867 16.7835 41.221 16.7835H40.6898L42.7223 13.8009C43.4036 12.8012 43.1445 11.4335 42.1448 10.7521L28.3527 1.35315C27.8684 1.02304 27.2847 0.901212 26.7086 1.0105C26.4253 1.06339 26.1552 1.17195 25.9141 1.3299C25.673 1.48786 25.4656 1.69207 25.3039 1.93072L13.3995 19.3993H10.0868L10.8861 11.3086C10.8951 11.2175 10.9543 11.1384 11.037 11.1073C12.0667 10.7191 12.959 9.99406 13.5496 9.06586C13.5961 8.99278 13.6839 8.951 13.7747 8.96019L18.9705 9.47351C19.059 9.48225 19.1484 9.47347 19.2335 9.44767C19.3187 9.42187 19.3979 9.37955 19.4667 9.32313C19.5355 9.26671 19.5925 9.1973 19.6344 9.11886C19.6764 9.04041 19.7025 8.95447 19.7112 8.86594C19.72 8.77741 19.7112 8.68803 19.6854 8.60289C19.6596 8.51775 19.6173 8.43853 19.5608 8.36975C19.5044 8.30097 19.435 8.24397 19.3566 8.20201C19.2781 8.16006 19.1922 8.13396 19.1036 8.12522L13.9078 7.61191C13.3047 7.55285 12.7296 7.83077 12.4064 8.33851C11.9722 9.02101 11.3161 9.55401 10.559 9.83945C9.98916 10.0543 9.59786 10.5662 9.53769 11.1754L8.72538 19.3992H7.86153L9.1255 6.6031C9.171 6.14253 9.58208 5.80416 10.0432 5.85031L20.5429 6.88753C20.7217 6.90518 20.9002 6.85109 21.0391 6.73715C21.178 6.62321 21.266 6.45876 21.2837 6.27996C21.3013 6.10117 21.2472 5.92268 21.1333 5.78377C21.0193 5.64486 20.8549 5.5569 20.6761 5.53924L10.1764 4.50203C8.97256 4.38326 7.89607 5.26587 7.77712 6.46985L6.75829 16.7835H5.02326C3.75761 16.7835 2.72783 17.8132 2.72783 19.0789V19.6741C1.69238 20.1509 0.971436 21.1976 0.971436 22.4102V45.5033C0.971436 47.1636 2.32214 48.5143 3.98251 48.5143H41.7816C43.4419 48.5143 44.7926 47.1636 44.7926 45.5033V39.0948H45.504C46.3438 39.0948 47.027 38.4117 47.027 37.572V30.3417C47.0271 29.5019 46.3438 28.8187 45.504 28.8187ZM41.221 18.1385C41.7397 18.1384 42.1616 18.5603 42.1616 19.079V19.4242C42.0356 19.4079 41.9086 19.3996 41.7816 19.3994H38.9072L39.7664 18.1385H41.221ZM26.4235 2.69363C26.4853 2.60236 26.5647 2.52425 26.6569 2.46382C26.7492 2.4034 26.8525 2.36186 26.9608 2.34161C27.0691 2.32079 27.1804 2.32165 27.2884 2.34414C27.3963 2.36663 27.4987 2.41031 27.5897 2.47263L41.3818 11.8716C41.7642 12.1323 41.8634 12.6554 41.6028 13.0378L37.2677 19.3991H36.2273L38.3527 16.2803C38.6974 15.7745 38.7258 15.1308 38.4267 14.6003C38.029 13.8955 37.8678 13.0657 37.9728 12.2635C38.0508 11.6667 37.7882 11.0841 37.2875 10.743L30.1377 5.87055C29.6369 5.5293 28.9986 5.49801 28.4717 5.78893C27.7637 6.17986 26.9323 6.33335 26.131 6.22118C25.5367 6.1378 24.934 6.40616 24.5944 6.90433L16.0795 19.3992H15.0391L26.4235 2.69363ZM26.7218 14.1978C23.7717 14.1978 21.35 16.4981 21.1526 19.3992H17.7189L25.7138 7.66734H25.7139C25.7358 7.63488 25.7653 7.60822 25.7998 7.58967C25.8343 7.57112 25.8728 7.56122 25.9119 7.56083C25.9222 7.56083 25.9325 7.56158 25.9429 7.56297C27.0328 7.71544 28.1633 7.50688 29.1265 6.97509C29.2022 6.93312 29.2995 6.93916 29.3746 6.99023L36.5245 11.8627C36.5993 11.9138 36.6405 12.0022 36.6293 12.088C36.4866 13.179 36.7059 14.3076 37.2466 15.266C37.29 15.343 37.2847 15.4416 37.2333 15.5173L34.5879 19.3991H32.2913C32.0938 16.4981 29.6722 14.1978 26.7218 14.1978ZM30.9327 19.3993H22.511C22.7051 17.246 24.519 15.5528 26.7218 15.5528C28.9248 15.5527 30.7387 17.246 30.9327 19.3993ZM4.08271 19.0789C4.08271 18.5602 4.50456 18.1383 5.02326 18.1383H6.62449L6.49996 19.3992H4.08271V19.0789ZM2.32631 22.4102C2.32631 21.497 3.06926 20.7541 3.98251 20.7541H41.7816C42.6948 20.7541 43.4377 21.497 43.4377 22.4102V24.29H2.32631V22.4102ZM43.4377 45.5033C43.4377 46.4164 42.6948 47.1594 41.7816 47.1594H3.98251C3.06926 47.1594 2.32631 46.4164 2.32631 45.5033V43.6235H5.9795C6.06846 43.6235 6.15654 43.606 6.23873 43.5719C6.32091 43.5379 6.39559 43.488 6.45849 43.4251C6.52139 43.3622 6.57129 43.2875 6.60533 43.2053C6.63937 43.1231 6.65689 43.035 6.65689 42.9461C6.65689 42.8571 6.63937 42.7691 6.60533 42.6869C6.57129 42.6047 6.52139 42.53 6.45849 42.4671C6.39559 42.4042 6.32091 42.3543 6.23873 42.3203C6.15654 42.2862 6.06846 42.2687 5.9795 42.2687H2.32631V25.6449H43.4377V28.8187H36.9965C34.967 28.8187 33.209 30.0017 32.3747 31.7141C32.3719 31.7199 32.3688 31.7254 32.3659 31.7312C32.3588 31.7458 32.3527 31.7609 32.3458 31.7756C32.2465 31.9866 32.1601 32.2051 32.0898 32.4306L32.0893 32.4324C31.9358 32.926 31.858 33.4399 31.8584 33.9568C31.8584 36.7899 34.1633 39.0948 36.9964 39.0948H43.4376V42.2687H10.3172C10.2283 42.2687 10.1402 42.2862 10.058 42.3203C9.97582 42.3543 9.90114 42.4042 9.83824 42.4671C9.77534 42.53 9.72544 42.6047 9.6914 42.6869C9.65736 42.7691 9.63983 42.8571 9.63983 42.9461C9.63983 43.035 9.65736 43.1231 9.6914 43.2053C9.72544 43.2875 9.77534 43.3622 9.83824 43.4251C9.90114 43.488 9.97582 43.5379 10.058 43.5719C10.1402 43.606 10.2283 43.6235 10.3172 43.6235H43.4377V45.5033ZM45.6722 37.5719C45.6722 37.6646 45.5968 37.74 45.504 37.74H36.9967C35.5625 37.74 34.3121 36.9378 33.6707 35.7586C33.5827 35.597 33.5067 35.429 33.4434 35.2562C33.2946 34.8508 33.2135 34.4131 33.2135 33.9568C33.213 33.3894 33.3407 32.8292 33.587 32.318C33.6137 32.263 33.6415 32.2086 33.6707 32.155C34.3121 30.9758 35.5625 30.1736 36.9967 30.1736H45.504C45.5967 30.1736 45.6722 30.249 45.6722 30.3417V37.5719Z" fill="black"/>
<path d="M45.504 28.8187H44.7926V22.4102C44.7926 21.3956 44.2876 20.4973 43.5164 19.9515V19.0789C43.5164 17.8132 42.4867 16.7835 41.221 16.7835H40.6898L42.7223 13.8009C43.4036 12.8012 43.1445 11.4335 42.1448 10.7521L28.3527 1.35315C27.8684 1.02304 27.2847 0.901212 26.7086 1.0105C26.4253 1.06339 26.1552 1.17195 25.9141 1.3299C25.673 1.48786 25.4656 1.69207 25.3039 1.93072L13.3995 19.3993H10.0868L10.8861 11.3086C10.8951 11.2175 10.9543 11.1384 11.037 11.1073C12.0667 10.7191 12.959 9.99406 13.5496 9.06586C13.5961 8.99278 13.6839 8.951 13.7747 8.96019L18.9705 9.47351C19.059 9.48225 19.1484 9.47347 19.2335 9.44767C19.3187 9.42187 19.3979 9.37955 19.4667 9.32313C19.5355 9.26671 19.5925 9.1973 19.6344 9.11886C19.6764 9.04041 19.7025 8.95447 19.7112 8.86594C19.72 8.77741 19.7112 8.68803 19.6854 8.60289C19.6596 8.51775 19.6173 8.43853 19.5608 8.36975C19.5044 8.30097 19.435 8.24397 19.3566 8.20201C19.2781 8.16006 19.1922 8.13396 19.1036 8.12522L13.9078 7.61191C13.3047 7.55285 12.7296 7.83077 12.4064 8.33851C11.9722 9.02101 11.3161 9.55401 10.559 9.83945C9.98916 10.0543 9.59786 10.5662 9.53769 11.1754L8.72538 19.3992H7.86153L9.1255 6.6031C9.171 6.14253 9.58208 5.80416 10.0432 5.85031L20.5429 6.88753C20.7217 6.90518 20.9002 6.85109 21.0391 6.73715C21.178 6.62321 21.266 6.45876 21.2837 6.27996C21.3013 6.10117 21.2472 5.92268 21.1333 5.78377C21.0193 5.64486 20.8549 5.5569 20.6761 5.53924L10.1764 4.50203C8.97256 4.38326 7.89607 5.26587 7.77712 6.46985L6.75829 16.7835H5.02326C3.75761 16.7835 2.72783 17.8132 2.72783 19.0789V19.6741C1.69238 20.1509 0.971436 21.1976 0.971436 22.4102V45.5033C0.971436 47.1636 2.32214 48.5143 3.98251 48.5143H41.7816C43.4419 48.5143 44.7926 47.1636 44.7926 45.5033V39.0948H45.504C46.3438 39.0948 47.027 38.4117 47.027 37.572V30.3417C47.0271 29.5019 46.3438 28.8187 45.504 28.8187ZM41.221 18.1385C41.7397 18.1384 42.1616 18.5603 42.1616 19.079V19.4242C42.0356 19.4079 41.9086 19.3996 41.7816 19.3994H38.9072L39.7664 18.1385H41.221ZM26.4235 2.69363C26.4853 2.60236 26.5647 2.52425 26.6569 2.46382C26.7492 2.4034 26.8525 2.36186 26.9608 2.34161C27.0691 2.32079 27.1804 2.32165 27.2884 2.34414C27.3963 2.36663 27.4987 2.41031 27.5897 2.47263L41.3818 11.8716C41.7642 12.1323 41.8634 12.6554 41.6028 13.0378L37.2677 19.3991H36.2273L38.3527 16.2803C38.6974 15.7745 38.7258 15.1308 38.4267 14.6003C38.029 13.8955 37.8678 13.0657 37.9728 12.2635C38.0508 11.6667 37.7882 11.0841 37.2875 10.743L30.1377 5.87055C29.6369 5.5293 28.9986 5.49801 28.4717 5.78893C27.7637 6.17986 26.9323 6.33335 26.131 6.22118C25.5367 6.1378 24.934 6.40616 24.5944 6.90433L16.0795 19.3992H15.0391L26.4235 2.69363ZM26.7218 14.1978C23.7717 14.1978 21.35 16.4981 21.1526 19.3992H17.7189L25.7138 7.66734H25.7139C25.7358 7.63488 25.7653 7.60822 25.7998 7.58967C25.8343 7.57112 25.8728 7.56122 25.9119 7.56083C25.9222 7.56083 25.9325 7.56158 25.9429 7.56297C27.0328 7.71544 28.1633 7.50688 29.1265 6.97509C29.2022 6.93312 29.2995 6.93916 29.3746 6.99023L36.5245 11.8627C36.5993 11.9138 36.6405 12.0022 36.6293 12.088C36.4866 13.179 36.7059 14.3076 37.2466 15.266C37.29 15.343 37.2847 15.4416 37.2333 15.5173L34.5879 19.3991H32.2913C32.0938 16.4981 29.6722 14.1978 26.7218 14.1978ZM30.9327 19.3993H22.511C22.7051 17.246 24.519 15.5528 26.7218 15.5528C28.9248 15.5527 30.7387 17.246 30.9327 19.3993ZM4.08271 19.0789C4.08271 18.5602 4.50456 18.1383 5.02326 18.1383H6.62449L6.49996 19.3992H4.08271V19.0789ZM2.32631 22.4102C2.32631 21.497 3.06926 20.7541 3.98251 20.7541H41.7816C42.6948 20.7541 43.4377 21.497 43.4377 22.4102V24.29H2.32631V22.4102ZM43.4377 45.5033C43.4377 46.4164 42.6948 47.1594 41.7816 47.1594H3.98251C3.06926 47.1594 2.32631 46.4164 2.32631 45.5033V43.6235H5.9795C6.06846 43.6235 6.15654 43.606 6.23873 43.5719C6.32091 43.5379 6.39559 43.488 6.45849 43.4251C6.52139 43.3622 6.57129 43.2875 6.60533 43.2053C6.63937 43.1231 6.65689 43.035 6.65689 42.9461C6.65689 42.8571 6.63937 42.7691 6.60533 42.6869C6.57129 42.6047 6.52139 42.53 6.45849 42.4671C6.39559 42.4042 6.32091 42.3543 6.23873 42.3203C6.15654 42.2862 6.06846 42.2687 5.9795 42.2687H2.32631V25.6449H43.4377V28.8187H36.9965C34.967 28.8187 33.209 30.0017 32.3747 31.7141C32.3719 31.7199 32.3688 31.7254 32.3659 31.7312C32.3588 31.7458 32.3527 31.7609 32.3458 31.7756C32.2465 31.9866 32.1601 32.2051 32.0898 32.4306L32.0893 32.4324C31.9358 32.926 31.858 33.4399 31.8584 33.9568C31.8584 36.7899 34.1633 39.0948 36.9964 39.0948H43.4376V42.2687H10.3172C10.2283 42.2687 10.1402 42.2862 10.058 42.3203C9.97582 42.3543 9.90114 42.4042 9.83824 42.4671C9.77534 42.53 9.72544 42.6047 9.6914 42.6869C9.65736 42.7691 9.63983 42.8571 9.63983 42.9461C9.63983 43.035 9.65736 43.1231 9.6914 43.2053C9.72544 43.2875 9.77534 43.3622 9.83824 43.4251C9.90114 43.488 9.97582 43.5379 10.058 43.5719C10.1402 43.606 10.2283 43.6235 10.3172 43.6235H43.4377V45.5033ZM45.6722 37.5719C45.6722 37.6646 45.5968 37.74 45.504 37.74H36.9967C35.5625 37.74 34.3121 36.9378 33.6707 35.7586C33.5827 35.597 33.5067 35.429 33.4434 35.2562C33.2946 34.8508 33.2135 34.4131 33.2135 33.9568C33.213 33.3894 33.3407 32.8292 33.587 32.318C33.6137 32.263 33.6415 32.2086 33.6707 32.155C34.3121 30.9758 35.5625 30.1736 36.9967 30.1736H45.504C45.5967 30.1736 45.6722 30.249 45.6722 30.3417V37.5719Z" fill="url(#paint0_linear_2_3243)"/>
<path d="M45.504 28.8187H44.7926V22.4102C44.7926 21.3956 44.2876 20.4973 43.5164 19.9515V19.0789C43.5164 17.8132 42.4867 16.7835 41.221 16.7835H40.6898L42.7223 13.8009C43.4036 12.8012 43.1445 11.4335 42.1448 10.7521L28.3527 1.35315C27.8684 1.02304 27.2847 0.901212 26.7086 1.0105C26.4253 1.06339 26.1552 1.17195 25.9141 1.3299C25.673 1.48786 25.4656 1.69207 25.3039 1.93072L13.3995 19.3993H10.0868L10.8861 11.3086C10.8951 11.2175 10.9543 11.1384 11.037 11.1073C12.0667 10.7191 12.959 9.99406 13.5496 9.06586C13.5961 8.99278 13.6839 8.951 13.7747 8.96019L18.9705 9.47351C19.059 9.48225 19.1484 9.47347 19.2335 9.44767C19.3187 9.42187 19.3979 9.37955 19.4667 9.32313C19.5355 9.26671 19.5925 9.1973 19.6344 9.11886C19.6764 9.04041 19.7025 8.95447 19.7112 8.86594C19.72 8.77741 19.7112 8.68803 19.6854 8.60289C19.6596 8.51775 19.6173 8.43853 19.5608 8.36975C19.5044 8.30097 19.435 8.24397 19.3566 8.20201C19.2781 8.16006 19.1922 8.13396 19.1036 8.12522L13.9078 7.61191C13.3047 7.55285 12.7296 7.83077 12.4064 8.33851C11.9722 9.02101 11.3161 9.55401 10.559 9.83945C9.98916 10.0543 9.59786 10.5662 9.53769 11.1754L8.72538 19.3992H7.86153L9.1255 6.6031C9.171 6.14253 9.58208 5.80416 10.0432 5.85031L20.5429 6.88753C20.7217 6.90518 20.9002 6.85109 21.0391 6.73715C21.178 6.62321 21.266 6.45876 21.2837 6.27996C21.3013 6.10117 21.2472 5.92268 21.1333 5.78377C21.0193 5.64486 20.8549 5.5569 20.6761 5.53924L10.1764 4.50203C8.97256 4.38326 7.89607 5.26587 7.77712 6.46985L6.75829 16.7835H5.02326C3.75761 16.7835 2.72783 17.8132 2.72783 19.0789V19.6741C1.69238 20.1509 0.971436 21.1976 0.971436 22.4102V45.5033C0.971436 47.1636 2.32214 48.5143 3.98251 48.5143H41.7816C43.4419 48.5143 44.7926 47.1636 44.7926 45.5033V39.0948H45.504C46.3438 39.0948 47.027 38.4117 47.027 37.572V30.3417C47.0271 29.5019 46.3438 28.8187 45.504 28.8187ZM41.221 18.1385C41.7397 18.1384 42.1616 18.5603 42.1616 19.079V19.4242C42.0356 19.4079 41.9086 19.3996 41.7816 19.3994H38.9072L39.7664 18.1385H41.221ZM26.4235 2.69363C26.4853 2.60236 26.5647 2.52425 26.6569 2.46382C26.7492 2.4034 26.8525 2.36186 26.9608 2.34161C27.0691 2.32079 27.1804 2.32165 27.2884 2.34414C27.3963 2.36663 27.4987 2.41031 27.5897 2.47263L41.3818 11.8716C41.7642 12.1323 41.8634 12.6554 41.6028 13.0378L37.2677 19.3991H36.2273L38.3527 16.2803C38.6974 15.7745 38.7258 15.1308 38.4267 14.6003C38.029 13.8955 37.8678 13.0657 37.9728 12.2635C38.0508 11.6667 37.7882 11.0841 37.2875 10.743L30.1377 5.87055C29.6369 5.5293 28.9986 5.49801 28.4717 5.78893C27.7637 6.17986 26.9323 6.33335 26.131 6.22118C25.5367 6.1378 24.934 6.40616 24.5944 6.90433L16.0795 19.3992H15.0391L26.4235 2.69363ZM26.7218 14.1978C23.7717 14.1978 21.35 16.4981 21.1526 19.3992H17.7189L25.7138 7.66734H25.7139C25.7358 7.63488 25.7653 7.60822 25.7998 7.58967C25.8343 7.57112 25.8728 7.56122 25.9119 7.56083C25.9222 7.56083 25.9325 7.56158 25.9429 7.56297C27.0328 7.71544 28.1633 7.50688 29.1265 6.97509C29.2022 6.93312 29.2995 6.93916 29.3746 6.99023L36.5245 11.8627C36.5993 11.9138 36.6405 12.0022 36.6293 12.088C36.4866 13.179 36.7059 14.3076 37.2466 15.266C37.29 15.343 37.2847 15.4416 37.2333 15.5173L34.5879 19.3991H32.2913C32.0938 16.4981 29.6722 14.1978 26.7218 14.1978ZM30.9327 19.3993H22.511C22.7051 17.246 24.519 15.5528 26.7218 15.5528C28.9248 15.5527 30.7387 17.246 30.9327 19.3993ZM4.08271 19.0789C4.08271 18.5602 4.50456 18.1383 5.02326 18.1383H6.62449L6.49996 19.3992H4.08271V19.0789ZM2.32631 22.4102C2.32631 21.497 3.06926 20.7541 3.98251 20.7541H41.7816C42.6948 20.7541 43.4377 21.497 43.4377 22.4102V24.29H2.32631V22.4102ZM43.4377 45.5033C43.4377 46.4164 42.6948 47.1594 41.7816 47.1594H3.98251C3.06926 47.1594 2.32631 46.4164 2.32631 45.5033V43.6235H5.9795C6.06846 43.6235 6.15654 43.606 6.23873 43.5719C6.32091 43.5379 6.39559 43.488 6.45849 43.4251C6.52139 43.3622 6.57129 43.2875 6.60533 43.2053C6.63937 43.1231 6.65689 43.035 6.65689 42.9461C6.65689 42.8571 6.63937 42.7691 6.60533 42.6869C6.57129 42.6047 6.52139 42.53 6.45849 42.4671C6.39559 42.4042 6.32091 42.3543 6.23873 42.3203C6.15654 42.2862 6.06846 42.2687 5.9795 42.2687H2.32631V25.6449H43.4377V28.8187H36.9965C34.967 28.8187 33.209 30.0017 32.3747 31.7141C32.3719 31.7199 32.3688 31.7254 32.3659 31.7312C32.3588 31.7458 32.3527 31.7609 32.3458 31.7756C32.2465 31.9866 32.1601 32.2051 32.0898 32.4306L32.0893 32.4324C31.9358 32.926 31.858 33.4399 31.8584 33.9568C31.8584 36.7899 34.1633 39.0948 36.9964 39.0948H43.4376V42.2687H10.3172C10.2283 42.2687 10.1402 42.2862 10.058 42.3203C9.97582 42.3543 9.90114 42.4042 9.83824 42.4671C9.77534 42.53 9.72544 42.6047 9.6914 42.6869C9.65736 42.7691 9.63983 42.8571 9.63983 42.9461C9.63983 43.035 9.65736 43.1231 9.6914 43.2053C9.72544 43.2875 9.77534 43.3622 9.83824 43.4251C9.90114 43.488 9.97582 43.5379 10.058 43.5719C10.1402 43.606 10.2283 43.6235 10.3172 43.6235H43.4377V45.5033ZM45.6722 37.5719C45.6722 37.6646 45.5968 37.74 45.504 37.74H36.9967C35.5625 37.74 34.3121 36.9378 33.6707 35.7586C33.5827 35.597 33.5067 35.429 33.4434 35.2562C33.2946 34.8508 33.2135 34.4131 33.2135 33.9568C33.213 33.3894 33.3407 32.8292 33.587 32.318C33.6137 32.263 33.6415 32.2086 33.6707 32.155C34.3121 30.9758 35.5625 30.1736 36.9967 30.1736H45.504C45.5967 30.1736 45.6722 30.249 45.6722 30.3417V37.5719Z" fill="url(#paint1_linear_2_3243)"/>
<path d="M37.1553 31.2082C35.6397 31.2082 34.4067 32.4413 34.4067 33.9568C34.4067 35.4723 35.6397 36.7053 37.1553 36.7053C38.6709 36.7053 39.9039 35.4723 39.9039 33.9568C39.9039 32.4413 38.6709 31.2082 37.1553 31.2082ZM37.1553 35.3504C36.3868 35.3504 35.7616 34.7252 35.7616 33.9568C35.7616 33.1884 36.3868 32.5631 37.1553 32.5631C37.9238 32.5631 38.549 33.1883 38.549 33.9568C38.549 34.7253 37.9238 35.3504 37.1553 35.3504Z" fill="black"/>
<path d="M37.1553 31.2082C35.6397 31.2082 34.4067 32.4413 34.4067 33.9568C34.4067 35.4723 35.6397 36.7053 37.1553 36.7053C38.6709 36.7053 39.9039 35.4723 39.9039 33.9568C39.9039 32.4413 38.6709 31.2082 37.1553 31.2082ZM37.1553 35.3504C36.3868 35.3504 35.7616 34.7252 35.7616 33.9568C35.7616 33.1884 36.3868 32.5631 37.1553 32.5631C37.9238 32.5631 38.549 33.1883 38.549 33.9568C38.549 34.7253 37.9238 35.3504 37.1553 35.3504Z" fill="url(#paint2_linear_2_3243)"/>
<path d="M37.1553 31.2082C35.6397 31.2082 34.4067 32.4413 34.4067 33.9568C34.4067 35.4723 35.6397 36.7053 37.1553 36.7053C38.6709 36.7053 39.9039 35.4723 39.9039 33.9568C39.9039 32.4413 38.6709 31.2082 37.1553 31.2082ZM37.1553 35.3504C36.3868 35.3504 35.7616 34.7252 35.7616 33.9568C35.7616 33.1884 36.3868 32.5631 37.1553 32.5631C37.9238 32.5631 38.549 33.1883 38.549 33.9568C38.549 34.7253 37.9238 35.3504 37.1553 35.3504Z" fill="url(#paint3_linear_2_3243)"/>
<defs>
<linearGradient id="paint0_linear_2_3243" x1="0.971436" y1="0.971436" x2="48.4903" y2="47.0037" gradientUnits="userSpaceOnUse">
<stop stop-color="#4B28A9"/>
<stop offset="1" stop-color="#C655AE"/>
</linearGradient>
<linearGradient id="paint1_linear_2_3243" x1="0.971436" y1="0.971436" x2="48.4903" y2="47.0037" gradientUnits="userSpaceOnUse">
<stop stop-color="#2274E9"/>
<stop offset="1" stop-color="#0D366D"/>
</linearGradient>
<linearGradient id="paint2_linear_2_3243" x1="34.4067" y1="31.2082" x2="39.9038" y2="36.7054" gradientUnits="userSpaceOnUse">
<stop stop-color="#4B28A9"/>
<stop offset="1" stop-color="#C655AE"/>
</linearGradient>
<linearGradient id="paint3_linear_2_3243" x1="34.4067" y1="31.2082" x2="39.9038" y2="36.7054" gradientUnits="userSpaceOnUse">
<stop stop-color="#2274E9"/>
<stop offset="1" stop-color="#0D366D"/>
</linearGradient>
</defs>
</svg>
