<svg width="52" height="52" viewBox="0 0 52 52" fill="none" xmlns="http://www.w3.org/2000/svg">
<mask id="mask0_2_4814" style="mask-type:luminance" maskUnits="userSpaceOnUse" x="0" y="0" width="52" height="52">
<path d="M0 0.000152588H51.9998V52H0V0.000152588Z" fill="white"/>
</mask>
<g mask="url(#mask0_2_4814)">
<path d="M50.4877 50.4573H1.51245V46.0788C1.51255 45.956 1.56138 45.8383 1.64821 45.7515C1.73504 45.6646 1.85278 45.6158 1.97557 45.6157H37.7889C37.991 45.6157 38.1847 45.5355 38.3276 45.3926C38.4704 45.2498 38.5507 45.056 38.5507 44.854C38.5507 44.652 38.4704 44.4582 38.3276 44.3154C38.1847 44.1725 37.991 44.0923 37.7889 44.0923H33.2656V25.0602H44.7497V44.0923H41.0351C40.8331 44.0923 40.6393 44.1725 40.4965 44.3154C40.3536 44.4582 40.2734 44.652 40.2734 44.854C40.2734 45.056 40.3536 45.2498 40.4965 45.3926C40.6393 45.5355 40.8331 45.6157 41.0351 45.6157H50.0245C50.1473 45.6158 50.2651 45.6646 50.3519 45.7515C50.4387 45.8383 50.4876 45.956 50.4877 46.0788V50.4573ZM7.25041 30.9101H18.7346V44.0922H7.25041V30.9101ZM50.0245 44.0923H46.2731V24.9528C46.2731 24.172 45.638 23.5368 44.8573 23.5368H33.2656V18.0184C33.2656 17.2376 32.6304 16.6024 31.8496 16.6024H20.1505C19.3697 16.6024 18.7347 17.2376 18.7347 18.0184V23.4164C18.7347 23.6185 18.8149 23.8122 18.9578 23.9551C19.1006 24.0979 19.2943 24.1782 19.4964 24.1782C19.6984 24.1782 19.8921 24.0979 20.035 23.9551C20.1778 23.8122 20.2581 23.6185 20.2581 23.4164V18.1259H31.7421V44.0923H20.2581V26.6626C20.2581 26.4606 20.1778 26.2668 20.035 26.124C19.8921 25.9811 19.6984 25.9009 19.4964 25.9009C19.2943 25.9009 19.1006 25.9811 18.9578 26.124C18.8149 26.2668 18.7347 26.4606 18.7347 26.6626V29.3867H7.14295C6.36214 29.3867 5.72697 30.022 5.72697 30.8027V44.0923H1.97557C0.880222 44.0923 -0.0109863 44.9834 -0.0109863 46.0788V51.219C-0.0109863 51.421 0.0692644 51.6148 0.212114 51.7576C0.354963 51.9005 0.54871 51.9807 0.75073 51.9807H51.2494C51.4514 51.9807 51.6452 51.9005 51.788 51.7576C51.9309 51.6148 52.0111 51.421 52.0111 51.219V46.0788C52.0111 44.9834 51.12 44.0923 50.0245 44.0923Z" fill="black"/>
<path d="M50.4877 50.4573H1.51245V46.0788C1.51255 45.956 1.56138 45.8383 1.64821 45.7515C1.73504 45.6646 1.85278 45.6158 1.97557 45.6157H37.7889C37.991 45.6157 38.1847 45.5355 38.3276 45.3926C38.4704 45.2498 38.5507 45.056 38.5507 44.854C38.5507 44.652 38.4704 44.4582 38.3276 44.3154C38.1847 44.1725 37.991 44.0923 37.7889 44.0923H33.2656V25.0602H44.7497V44.0923H41.0351C40.8331 44.0923 40.6393 44.1725 40.4965 44.3154C40.3536 44.4582 40.2734 44.652 40.2734 44.854C40.2734 45.056 40.3536 45.2498 40.4965 45.3926C40.6393 45.5355 40.8331 45.6157 41.0351 45.6157H50.0245C50.1473 45.6158 50.2651 45.6646 50.3519 45.7515C50.4387 45.8383 50.4876 45.956 50.4877 46.0788V50.4573ZM7.25041 30.9101H18.7346V44.0922H7.25041V30.9101ZM50.0245 44.0923H46.2731V24.9528C46.2731 24.172 45.638 23.5368 44.8573 23.5368H33.2656V18.0184C33.2656 17.2376 32.6304 16.6024 31.8496 16.6024H20.1505C19.3697 16.6024 18.7347 17.2376 18.7347 18.0184V23.4164C18.7347 23.6185 18.8149 23.8122 18.9578 23.9551C19.1006 24.0979 19.2943 24.1782 19.4964 24.1782C19.6984 24.1782 19.8921 24.0979 20.035 23.9551C20.1778 23.8122 20.2581 23.6185 20.2581 23.4164V18.1259H31.7421V44.0923H20.2581V26.6626C20.2581 26.4606 20.1778 26.2668 20.035 26.124C19.8921 25.9811 19.6984 25.9009 19.4964 25.9009C19.2943 25.9009 19.1006 25.9811 18.9578 26.124C18.8149 26.2668 18.7347 26.4606 18.7347 26.6626V29.3867H7.14295C6.36214 29.3867 5.72697 30.022 5.72697 30.8027V44.0923H1.97557C0.880222 44.0923 -0.0109863 44.9834 -0.0109863 46.0788V51.219C-0.0109863 51.421 0.0692644 51.6148 0.212114 51.7576C0.354963 51.9005 0.54871 51.9807 0.75073 51.9807H51.2494C51.4514 51.9807 51.6452 51.9005 51.788 51.7576C51.9309 51.6148 52.0111 51.421 52.0111 51.219V46.0788C52.0111 44.9834 51.12 44.0923 50.0245 44.0923Z" fill="url(#paint0_linear_2_4814)"/>
<path d="M50.4877 50.4573H1.51245V46.0788C1.51255 45.956 1.56138 45.8383 1.64821 45.7515C1.73504 45.6646 1.85278 45.6158 1.97557 45.6157H37.7889C37.991 45.6157 38.1847 45.5355 38.3276 45.3926C38.4704 45.2498 38.5507 45.056 38.5507 44.854C38.5507 44.652 38.4704 44.4582 38.3276 44.3154C38.1847 44.1725 37.991 44.0923 37.7889 44.0923H33.2656V25.0602H44.7497V44.0923H41.0351C40.8331 44.0923 40.6393 44.1725 40.4965 44.3154C40.3536 44.4582 40.2734 44.652 40.2734 44.854C40.2734 45.056 40.3536 45.2498 40.4965 45.3926C40.6393 45.5355 40.8331 45.6157 41.0351 45.6157H50.0245C50.1473 45.6158 50.2651 45.6646 50.3519 45.7515C50.4387 45.8383 50.4876 45.956 50.4877 46.0788V50.4573ZM7.25041 30.9101H18.7346V44.0922H7.25041V30.9101ZM50.0245 44.0923H46.2731V24.9528C46.2731 24.172 45.638 23.5368 44.8573 23.5368H33.2656V18.0184C33.2656 17.2376 32.6304 16.6024 31.8496 16.6024H20.1505C19.3697 16.6024 18.7347 17.2376 18.7347 18.0184V23.4164C18.7347 23.6185 18.8149 23.8122 18.9578 23.9551C19.1006 24.0979 19.2943 24.1782 19.4964 24.1782C19.6984 24.1782 19.8921 24.0979 20.035 23.9551C20.1778 23.8122 20.2581 23.6185 20.2581 23.4164V18.1259H31.7421V44.0923H20.2581V26.6626C20.2581 26.4606 20.1778 26.2668 20.035 26.124C19.8921 25.9811 19.6984 25.9009 19.4964 25.9009C19.2943 25.9009 19.1006 25.9811 18.9578 26.124C18.8149 26.2668 18.7347 26.4606 18.7347 26.6626V29.3867H7.14295C6.36214 29.3867 5.72697 30.022 5.72697 30.8027V44.0923H1.97557C0.880222 44.0923 -0.0109863 44.9834 -0.0109863 46.0788V51.219C-0.0109863 51.421 0.0692644 51.6148 0.212114 51.7576C0.354963 51.9005 0.54871 51.9807 0.75073 51.9807H51.2494C51.4514 51.9807 51.6452 51.9005 51.788 51.7576C51.9309 51.6148 52.0111 51.421 52.0111 51.219V46.0788C52.0111 44.9834 51.12 44.0923 50.0245 44.0923Z" fill="url(#paint1_linear_2_4814)"/>
<path d="M23.5053 5.47556C23.7233 5.44388 23.9304 5.35967 24.1086 5.23017C24.2868 5.10068 24.4309 4.92979 24.5284 4.73222L26 1.75046L27.4716 4.73222C27.5691 4.9298 27.7132 5.10071 27.8914 5.23021C28.0697 5.3597 28.2768 5.44391 28.4948 5.47556L31.7853 5.95371L29.4042 8.27481C29.2464 8.42856 29.1284 8.61839 29.0603 8.82791C28.9922 9.03744 28.9761 9.26038 29.0134 9.47751L29.5756 12.7548L26.6325 11.2075C26.4375 11.1049 26.2204 11.0513 26.0001 11.0513C25.7797 11.0513 25.5627 11.1049 25.3676 11.2075L22.4245 12.7548L22.9867 9.47751C23.0239 9.26035 23.0078 9.0374 22.9397 8.82786C22.8716 8.61832 22.7536 8.42849 22.5958 8.27471L20.2147 5.95371L23.5053 5.47556ZM21.4705 9.30526L20.8667 12.8258C20.8227 13.0757 20.8501 13.333 20.9457 13.5681C21.0413 13.8032 21.2012 14.0065 21.4071 14.1549C21.8286 14.4612 22.3768 14.5008 22.8383 14.2585L26 12.5962L29.1617 14.2585C29.357 14.3616 29.5745 14.4157 29.7954 14.4159C30.0759 14.4159 30.3546 14.328 30.5929 14.1549C30.7988 14.0065 30.9587 13.8032 31.0543 13.5681C31.1499 13.3331 31.1773 13.0758 31.1333 12.8259L30.5295 9.30526L33.0876 6.81191C33.2699 6.63544 33.3989 6.41117 33.4597 6.1648C33.5204 5.91843 33.5106 5.65992 33.4313 5.41888C33.3538 5.17724 33.2098 4.96232 33.0158 4.79875C32.8218 4.63518 32.5856 4.52958 32.3344 4.49406L28.7994 3.98036L27.2186 0.777288C26.9881 0.31 26.5211 0.0197363 26 0.0197363C25.4789 0.0197363 25.012 0.31 24.7814 0.777186L23.2006 3.98036L19.6656 4.49406C19.4144 4.52958 19.1782 4.63518 18.9842 4.79875C18.7902 4.96232 18.6462 5.17724 18.5688 5.41888C18.4894 5.65991 18.4795 5.91844 18.5403 6.16481C18.6011 6.41119 18.7301 6.63546 18.9124 6.81191L21.4705 9.30526Z" fill="black"/>
<path d="M23.5053 5.47556C23.7233 5.44388 23.9304 5.35967 24.1086 5.23017C24.2868 5.10068 24.4309 4.92979 24.5284 4.73222L26 1.75046L27.4716 4.73222C27.5691 4.9298 27.7132 5.10071 27.8914 5.23021C28.0697 5.3597 28.2768 5.44391 28.4948 5.47556L31.7853 5.95371L29.4042 8.27481C29.2464 8.42856 29.1284 8.61839 29.0603 8.82791C28.9922 9.03744 28.9761 9.26038 29.0134 9.47751L29.5756 12.7548L26.6325 11.2075C26.4375 11.1049 26.2204 11.0513 26.0001 11.0513C25.7797 11.0513 25.5627 11.1049 25.3676 11.2075L22.4245 12.7548L22.9867 9.47751C23.0239 9.26035 23.0078 9.0374 22.9397 8.82786C22.8716 8.61832 22.7536 8.42849 22.5958 8.27471L20.2147 5.95371L23.5053 5.47556ZM21.4705 9.30526L20.8667 12.8258C20.8227 13.0757 20.8501 13.333 20.9457 13.5681C21.0413 13.8032 21.2012 14.0065 21.4071 14.1549C21.8286 14.4612 22.3768 14.5008 22.8383 14.2585L26 12.5962L29.1617 14.2585C29.357 14.3616 29.5745 14.4157 29.7954 14.4159C30.0759 14.4159 30.3546 14.328 30.5929 14.1549C30.7988 14.0065 30.9587 13.8032 31.0543 13.5681C31.1499 13.3331 31.1773 13.0758 31.1333 12.8259L30.5295 9.30526L33.0876 6.81191C33.2699 6.63544 33.3989 6.41117 33.4597 6.1648C33.5204 5.91843 33.5106 5.65992 33.4313 5.41888C33.3538 5.17724 33.2098 4.96232 33.0158 4.79875C32.8218 4.63518 32.5856 4.52958 32.3344 4.49406L28.7994 3.98036L27.2186 0.777288C26.9881 0.31 26.5211 0.0197363 26 0.0197363C25.4789 0.0197363 25.012 0.31 24.7814 0.777186L23.2006 3.98036L19.6656 4.49406C19.4144 4.52958 19.1782 4.63518 18.9842 4.79875C18.7902 4.96232 18.6462 5.17724 18.5688 5.41888C18.4894 5.65991 18.4795 5.91844 18.5403 6.16481C18.6011 6.41119 18.7301 6.63546 18.9124 6.81191L21.4705 9.30526Z" fill="url(#paint2_linear_2_4814)"/>
<path d="M23.5053 5.47556C23.7233 5.44388 23.9304 5.35967 24.1086 5.23017C24.2868 5.10068 24.4309 4.92979 24.5284 4.73222L26 1.75046L27.4716 4.73222C27.5691 4.9298 27.7132 5.10071 27.8914 5.23021C28.0697 5.3597 28.2768 5.44391 28.4948 5.47556L31.7853 5.95371L29.4042 8.27481C29.2464 8.42856 29.1284 8.61839 29.0603 8.82791C28.9922 9.03744 28.9761 9.26038 29.0134 9.47751L29.5756 12.7548L26.6325 11.2075C26.4375 11.1049 26.2204 11.0513 26.0001 11.0513C25.7797 11.0513 25.5627 11.1049 25.3676 11.2075L22.4245 12.7548L22.9867 9.47751C23.0239 9.26035 23.0078 9.0374 22.9397 8.82786C22.8716 8.61832 22.7536 8.42849 22.5958 8.27471L20.2147 5.95371L23.5053 5.47556ZM21.4705 9.30526L20.8667 12.8258C20.8227 13.0757 20.8501 13.333 20.9457 13.5681C21.0413 13.8032 21.2012 14.0065 21.4071 14.1549C21.8286 14.4612 22.3768 14.5008 22.8383 14.2585L26 12.5962L29.1617 14.2585C29.357 14.3616 29.5745 14.4157 29.7954 14.4159C30.0759 14.4159 30.3546 14.328 30.5929 14.1549C30.7988 14.0065 30.9587 13.8032 31.0543 13.5681C31.1499 13.3331 31.1773 13.0758 31.1333 12.8259L30.5295 9.30526L33.0876 6.81191C33.2699 6.63544 33.3989 6.41117 33.4597 6.1648C33.5204 5.91843 33.5106 5.65992 33.4313 5.41888C33.3538 5.17724 33.2098 4.96232 33.0158 4.79875C32.8218 4.63518 32.5856 4.52958 32.3344 4.49406L28.7994 3.98036L27.2186 0.777288C26.9881 0.31 26.5211 0.0197363 26 0.0197363C25.4789 0.0197363 25.012 0.31 24.7814 0.777186L23.2006 3.98036L19.6656 4.49406C19.4144 4.52958 19.1782 4.63518 18.9842 4.79875C18.7902 4.96232 18.6462 5.17724 18.5688 5.41888C18.4894 5.65991 18.4795 5.91844 18.5403 6.16481C18.6011 6.41119 18.7301 6.63546 18.9124 6.81191L21.4705 9.30526Z" fill="url(#paint3_linear_2_4814)"/>
<path d="M37.0271 7.21778C37.0271 7.4198 37.1074 7.61354 37.2502 7.75639C37.3931 7.89924 37.5868 7.97949 37.7888 7.97949H38.8797C39.0817 7.97949 39.2755 7.89924 39.4183 7.75639C39.5612 7.61354 39.6414 7.4198 39.6414 7.21778C39.6414 7.01576 39.5612 6.82201 39.4183 6.67916C39.2755 6.53631 39.0817 6.45606 38.8797 6.45606H37.7888C37.5868 6.45606 37.3931 6.53631 37.2502 6.67916C37.1074 6.82201 37.0271 7.01576 37.0271 7.21778Z" fill="black"/>
<path d="M37.0271 7.21778C37.0271 7.4198 37.1074 7.61354 37.2502 7.75639C37.3931 7.89924 37.5868 7.97949 37.7888 7.97949H38.8797C39.0817 7.97949 39.2755 7.89924 39.4183 7.75639C39.5612 7.61354 39.6414 7.4198 39.6414 7.21778C39.6414 7.01576 39.5612 6.82201 39.4183 6.67916C39.2755 6.53631 39.0817 6.45606 38.8797 6.45606H37.7888C37.5868 6.45606 37.3931 6.53631 37.2502 6.67916C37.1074 6.82201 37.0271 7.01576 37.0271 7.21778Z" fill="url(#paint4_linear_2_4814)"/>
<path d="M37.0271 7.21778C37.0271 7.4198 37.1074 7.61354 37.2502 7.75639C37.3931 7.89924 37.5868 7.97949 37.7888 7.97949H38.8797C39.0817 7.97949 39.2755 7.89924 39.4183 7.75639C39.5612 7.61354 39.6414 7.4198 39.6414 7.21778C39.6414 7.01576 39.5612 6.82201 39.4183 6.67916C39.2755 6.53631 39.0817 6.45606 38.8797 6.45606H37.7888C37.5868 6.45606 37.3931 6.53631 37.2502 6.67916C37.1074 6.82201 37.0271 7.01576 37.0271 7.21778Z" fill="url(#paint5_linear_2_4814)"/>
<path d="M36.4761 2.65832C36.5813 2.65832 36.6884 2.63639 36.7904 2.59007L37.7838 2.13914C37.9669 2.0551 38.1092 1.90195 38.1797 1.71321C38.2501 1.52448 38.2429 1.31552 38.1597 1.13207C38.0764 0.948625 37.9239 0.805629 37.7355 0.73438C37.547 0.663131 37.338 0.669431 37.1542 0.751901L36.1608 1.20274C36.0022 1.2746 35.8729 1.39867 35.7946 1.55427C35.7164 1.70987 35.6938 1.8876 35.7306 2.05784C35.7675 2.22808 35.8616 2.38054 35.9973 2.48981C36.1329 2.59908 36.3019 2.65855 36.4761 2.65832Z" fill="black"/>
<path d="M36.4761 2.65832C36.5813 2.65832 36.6884 2.63639 36.7904 2.59007L37.7838 2.13914C37.9669 2.0551 38.1092 1.90195 38.1797 1.71321C38.2501 1.52448 38.2429 1.31552 38.1597 1.13207C38.0764 0.948625 37.9239 0.805629 37.7355 0.73438C37.547 0.663131 37.338 0.669431 37.1542 0.751901L36.1608 1.20274C36.0022 1.2746 35.8729 1.39867 35.7946 1.55427C35.7164 1.70987 35.6938 1.8876 35.7306 2.05784C35.7675 2.22808 35.8616 2.38054 35.9973 2.48981C36.1329 2.59908 36.3019 2.65855 36.4761 2.65832Z" fill="url(#paint6_linear_2_4814)"/>
<path d="M36.4761 2.65832C36.5813 2.65832 36.6884 2.63639 36.7904 2.59007L37.7838 2.13914C37.9669 2.0551 38.1092 1.90195 38.1797 1.71321C38.2501 1.52448 38.2429 1.31552 38.1597 1.13207C38.0764 0.948625 37.9239 0.805629 37.7355 0.73438C37.547 0.663131 37.338 0.669431 37.1542 0.751901L36.1608 1.20274C36.0022 1.2746 35.8729 1.39867 35.7946 1.55427C35.7164 1.70987 35.6938 1.8876 35.7306 2.05784C35.7675 2.22808 35.8616 2.38054 35.9973 2.48981C36.1329 2.59908 36.3019 2.65855 36.4761 2.65832Z" fill="url(#paint7_linear_2_4814)"/>
<path d="M36.1609 13.2327L37.1543 13.6835C37.253 13.7285 37.3602 13.7519 37.4687 13.7519C37.6151 13.752 37.7584 13.7098 37.8815 13.6305C38.0046 13.5512 38.1023 13.4381 38.1627 13.3047C38.2462 13.1208 38.2532 12.9112 38.1822 12.7221C38.1111 12.5329 37.9679 12.3798 37.7839 12.2963L36.7905 11.8455C36.6994 11.8041 36.6011 11.7811 36.5012 11.7778C36.4012 11.7745 36.3015 11.7909 36.2079 11.826C36.1143 11.8612 36.0285 11.9145 35.9555 11.9828C35.8824 12.0512 35.8235 12.1332 35.7822 12.2243C35.6987 12.4082 35.6917 12.6178 35.7627 12.8069C35.8338 12.996 35.977 13.1492 36.1609 13.2327Z" fill="black"/>
<path d="M36.1609 13.2327L37.1543 13.6835C37.253 13.7285 37.3602 13.7519 37.4687 13.7519C37.6151 13.752 37.7584 13.7098 37.8815 13.6305C38.0046 13.5512 38.1023 13.4381 38.1627 13.3047C38.2462 13.1208 38.2532 12.9112 38.1822 12.7221C38.1111 12.5329 37.9679 12.3798 37.7839 12.2963L36.7905 11.8455C36.6994 11.8041 36.6011 11.7811 36.5012 11.7778C36.4012 11.7745 36.3015 11.7909 36.2079 11.826C36.1143 11.8612 36.0285 11.9145 35.9555 11.9828C35.8824 12.0512 35.8235 12.1332 35.7822 12.2243C35.6987 12.4082 35.6917 12.6178 35.7627 12.8069C35.8338 12.996 35.977 13.1492 36.1609 13.2327Z" fill="url(#paint8_linear_2_4814)"/>
<path d="M36.1609 13.2327L37.1543 13.6835C37.253 13.7285 37.3602 13.7519 37.4687 13.7519C37.6151 13.752 37.7584 13.7098 37.8815 13.6305C38.0046 13.5512 38.1023 13.4381 38.1627 13.3047C38.2462 13.1208 38.2532 12.9112 38.1822 12.7221C38.1111 12.5329 37.9679 12.3798 37.7839 12.2963L36.7905 11.8455C36.6994 11.8041 36.6011 11.7811 36.5012 11.7778C36.4012 11.7745 36.3015 11.7909 36.2079 11.826C36.1143 11.8612 36.0285 11.9145 35.9555 11.9828C35.8824 12.0512 35.8235 12.1332 35.7822 12.2243C35.6987 12.4082 35.6917 12.6178 35.7627 12.8069C35.8338 12.996 35.977 13.1492 36.1609 13.2327Z" fill="url(#paint9_linear_2_4814)"/>
<path d="M13.2219 7.97949H14.3128C14.5148 7.97949 14.7086 7.89924 14.8514 7.75639C14.9943 7.61354 15.0745 7.4198 15.0745 7.21778C15.0745 7.01576 14.9943 6.82201 14.8514 6.67916C14.7086 6.53631 14.5148 6.45606 14.3128 6.45606H13.2219C13.0199 6.45606 12.8262 6.53631 12.6833 6.67916C12.5405 6.82201 12.4602 7.01576 12.4602 7.21778C12.4602 7.4198 12.5405 7.61354 12.6833 7.75639C12.8262 7.89924 13.0199 7.97949 13.2219 7.97949Z" fill="black"/>
<path d="M13.2219 7.97949H14.3128C14.5148 7.97949 14.7086 7.89924 14.8514 7.75639C14.9943 7.61354 15.0745 7.4198 15.0745 7.21778C15.0745 7.01576 14.9943 6.82201 14.8514 6.67916C14.7086 6.53631 14.5148 6.45606 14.3128 6.45606H13.2219C13.0199 6.45606 12.8262 6.53631 12.6833 6.67916C12.5405 6.82201 12.4602 7.01576 12.4602 7.21778C12.4602 7.4198 12.5405 7.61354 12.6833 7.75639C12.8262 7.89924 13.0199 7.97949 13.2219 7.97949Z" fill="url(#paint10_linear_2_4814)"/>
<path d="M13.2219 7.97949H14.3128C14.5148 7.97949 14.7086 7.89924 14.8514 7.75639C14.9943 7.61354 15.0745 7.4198 15.0745 7.21778C15.0745 7.01576 14.9943 6.82201 14.8514 6.67916C14.7086 6.53631 14.5148 6.45606 14.3128 6.45606H13.2219C13.0199 6.45606 12.8262 6.53631 12.6833 6.67916C12.5405 6.82201 12.4602 7.01576 12.4602 7.21778C12.4602 7.4198 12.5405 7.61354 12.6833 7.75639C12.8262 7.89924 13.0199 7.97949 13.2219 7.97949Z" fill="url(#paint11_linear_2_4814)"/>
<path d="M14.3177 2.13926L15.3111 2.5901C15.4097 2.6351 15.5169 2.65841 15.6254 2.65845C15.7718 2.65851 15.9152 2.61637 16.0383 2.53706C16.1614 2.45775 16.259 2.34464 16.3195 2.21127C16.403 2.02731 16.4099 1.81772 16.3389 1.62861C16.2679 1.43949 16.1246 1.28635 15.9406 1.20286L14.9473 0.752023C14.8562 0.710659 14.7579 0.687647 14.6579 0.6843C14.5579 0.680954 14.4583 0.697339 14.3646 0.732519C14.271 0.7677 14.1852 0.820986 14.1122 0.889333C14.0391 0.95768 13.9803 1.03975 13.939 1.13085C13.8555 1.3148 13.8485 1.52438 13.9195 1.71349C13.9905 1.9026 14.1337 2.05575 14.3177 2.13926Z" fill="black"/>
<path d="M14.3177 2.13926L15.3111 2.5901C15.4097 2.6351 15.5169 2.65841 15.6254 2.65845C15.7718 2.65851 15.9152 2.61637 16.0383 2.53706C16.1614 2.45775 16.259 2.34464 16.3195 2.21127C16.403 2.02731 16.4099 1.81772 16.3389 1.62861C16.2679 1.43949 16.1246 1.28635 15.9406 1.20286L14.9473 0.752023C14.8562 0.710659 14.7579 0.687647 14.6579 0.6843C14.5579 0.680954 14.4583 0.697339 14.3646 0.732519C14.271 0.7677 14.1852 0.820986 14.1122 0.889333C14.0391 0.95768 13.9803 1.03975 13.939 1.13085C13.8555 1.3148 13.8485 1.52438 13.9195 1.71349C13.9905 1.9026 14.1337 2.05575 14.3177 2.13926Z" fill="url(#paint12_linear_2_4814)"/>
<path d="M14.3177 2.13926L15.3111 2.5901C15.4097 2.6351 15.5169 2.65841 15.6254 2.65845C15.7718 2.65851 15.9152 2.61637 16.0383 2.53706C16.1614 2.45775 16.259 2.34464 16.3195 2.21127C16.403 2.02731 16.4099 1.81772 16.3389 1.62861C16.2679 1.43949 16.1246 1.28635 15.9406 1.20286L14.9473 0.752023C14.8562 0.710659 14.7579 0.687647 14.6579 0.6843C14.5579 0.680954 14.4583 0.697339 14.3646 0.732519C14.271 0.7677 14.1852 0.820986 14.1122 0.889333C14.0391 0.95768 13.9803 1.03975 13.939 1.13085C13.8555 1.3148 13.8485 1.52438 13.9195 1.71349C13.9905 1.9026 14.1337 2.05575 14.3177 2.13926Z" fill="url(#paint13_linear_2_4814)"/>
<path d="M15.3112 11.8454L14.3178 12.2962C14.2267 12.3376 14.1447 12.3964 14.0763 12.4695C14.008 12.5425 13.9547 12.6283 13.9195 12.722C13.8485 12.9111 13.8554 13.1207 13.9389 13.3047C14.0224 13.4887 14.1756 13.6319 14.3647 13.703C14.5538 13.774 14.7634 13.767 14.9474 13.6836L15.9408 13.2326C16.1239 13.1486 16.2662 12.9954 16.3367 12.8067C16.4071 12.618 16.3999 12.409 16.3166 12.2256C16.2334 12.0421 16.0809 11.8991 15.8924 11.8279C15.704 11.7566 15.495 11.7629 15.3112 11.8454Z" fill="black"/>
<path d="M15.3112 11.8454L14.3178 12.2962C14.2267 12.3376 14.1447 12.3964 14.0763 12.4695C14.008 12.5425 13.9547 12.6283 13.9195 12.722C13.8485 12.9111 13.8554 13.1207 13.9389 13.3047C14.0224 13.4887 14.1756 13.6319 14.3647 13.703C14.5538 13.774 14.7634 13.767 14.9474 13.6836L15.9408 13.2326C16.1239 13.1486 16.2662 12.9954 16.3367 12.8067C16.4071 12.618 16.3999 12.409 16.3166 12.2256C16.2334 12.0421 16.0809 11.8991 15.8924 11.8279C15.704 11.7566 15.495 11.7629 15.3112 11.8454Z" fill="url(#paint14_linear_2_4814)"/>
<path d="M15.3112 11.8454L14.3178 12.2962C14.2267 12.3376 14.1447 12.3964 14.0763 12.4695C14.008 12.5425 13.9547 12.6283 13.9195 12.722C13.8485 12.9111 13.8554 13.1207 13.9389 13.3047C14.0224 13.4887 14.1756 13.6319 14.3647 13.703C14.5538 13.774 14.7634 13.767 14.9474 13.6836L15.9408 13.2326C16.1239 13.1486 16.2662 12.9954 16.3367 12.8067C16.4071 12.618 16.3999 12.409 16.3166 12.2256C16.2334 12.0421 16.0809 11.8991 15.8924 11.8279C15.704 11.7566 15.495 11.7629 15.3112 11.8454Z" fill="url(#paint15_linear_2_4814)"/>
</g>
<defs>
<linearGradient id="paint0_linear_2_4814" x1="-0.0109863" y1="51.9807" x2="32.8912" y2="3.59967" gradientUnits="userSpaceOnUse">
<stop stop-color="#4B28A9"/>
<stop offset="1" stop-color="#C655AE"/>
</linearGradient>
<linearGradient id="paint1_linear_2_4814" x1="-0.0109863" y1="51.9807" x2="32.8912" y2="3.59967" gradientUnits="userSpaceOnUse">
<stop stop-color="#2274E9"/>
<stop offset="1" stop-color="#0D366D"/>
</linearGradient>
<linearGradient id="paint2_linear_2_4814" x1="18.501" y1="14.4159" x2="32.8851" y2="-0.569549" gradientUnits="userSpaceOnUse">
<stop stop-color="#4B28A9"/>
<stop offset="1" stop-color="#C655AE"/>
</linearGradient>
<linearGradient id="paint3_linear_2_4814" x1="18.501" y1="14.4159" x2="32.8851" y2="-0.569549" gradientUnits="userSpaceOnUse">
<stop stop-color="#2274E9"/>
<stop offset="1" stop-color="#0D366D"/>
</linearGradient>
<linearGradient id="paint4_linear_2_4814" x1="37.0271" y1="7.97949" x2="38.3525" y2="5.70498" gradientUnits="userSpaceOnUse">
<stop stop-color="#4B28A9"/>
<stop offset="1" stop-color="#C655AE"/>
</linearGradient>
<linearGradient id="paint5_linear_2_4814" x1="37.0271" y1="7.97949" x2="38.3525" y2="5.70498" gradientUnits="userSpaceOnUse">
<stop stop-color="#2274E9"/>
<stop offset="1" stop-color="#0D366D"/>
</linearGradient>
<linearGradient id="paint6_linear_2_4814" x1="35.7134" y1="2.65833" x2="37.63" y2="0.21603" gradientUnits="userSpaceOnUse">
<stop stop-color="#4B28A9"/>
<stop offset="1" stop-color="#C655AE"/>
</linearGradient>
<linearGradient id="paint7_linear_2_4814" x1="35.7134" y1="2.65833" x2="37.63" y2="0.21603" gradientUnits="userSpaceOnUse">
<stop stop-color="#2274E9"/>
<stop offset="1" stop-color="#0D366D"/>
</linearGradient>
<linearGradient id="paint8_linear_2_4814" x1="35.7141" y1="13.7519" x2="37.6319" y2="11.3075" gradientUnits="userSpaceOnUse">
<stop stop-color="#4B28A9"/>
<stop offset="1" stop-color="#C655AE"/>
</linearGradient>
<linearGradient id="paint9_linear_2_4814" x1="35.7141" y1="13.7519" x2="37.6319" y2="11.3075" gradientUnits="userSpaceOnUse">
<stop stop-color="#2274E9"/>
<stop offset="1" stop-color="#0D366D"/>
</linearGradient>
<linearGradient id="paint10_linear_2_4814" x1="12.4602" y1="7.97949" x2="13.7856" y2="5.70498" gradientUnits="userSpaceOnUse">
<stop stop-color="#4B28A9"/>
<stop offset="1" stop-color="#C655AE"/>
</linearGradient>
<linearGradient id="paint11_linear_2_4814" x1="12.4602" y1="7.97949" x2="13.7856" y2="5.70498" gradientUnits="userSpaceOnUse">
<stop stop-color="#2274E9"/>
<stop offset="1" stop-color="#0D366D"/>
</linearGradient>
<linearGradient id="paint12_linear_2_4814" x1="13.8708" y1="2.65845" x2="15.7887" y2="0.214024" gradientUnits="userSpaceOnUse">
<stop stop-color="#4B28A9"/>
<stop offset="1" stop-color="#C655AE"/>
</linearGradient>
<linearGradient id="paint13_linear_2_4814" x1="13.8708" y1="2.65845" x2="15.7887" y2="0.214024" gradientUnits="userSpaceOnUse">
<stop stop-color="#2274E9"/>
<stop offset="1" stop-color="#0D366D"/>
</linearGradient>
<linearGradient id="paint14_linear_2_4814" x1="13.8708" y1="13.7516" x2="15.7873" y2="11.3098" gradientUnits="userSpaceOnUse">
<stop stop-color="#4B28A9"/>
<stop offset="1" stop-color="#C655AE"/>
</linearGradient>
<linearGradient id="paint15_linear_2_4814" x1="13.8708" y1="13.7516" x2="15.7873" y2="11.3098" gradientUnits="userSpaceOnUse">
<stop stop-color="#2274E9"/>
<stop offset="1" stop-color="#0D366D"/>
</linearGradient>
</defs>
</svg>
