<svg width="52" height="52" viewBox="0 0 52 52" fill="none" xmlns="http://www.w3.org/2000/svg">
<path d="M24.0473 8.2744C24.0945 8.34997 24.1014 8.44381 24.0658 8.52557L22.8021 11.4282C22.227 12.749 23.4671 14.2361 24.8788 13.8855L27.9515 13.123C28.038 13.1016 28.1292 13.124 28.196 13.183L30.5659 15.282C31.6439 16.2366 33.4417 15.5172 33.5448 14.0661L33.7691 10.9081C33.7722 10.8644 33.7859 10.822 33.809 10.7848C33.8322 10.7475 33.864 10.7164 33.9018 10.6942L36.6303 9.08873C37.8721 8.35819 37.7423 6.42637 36.3945 5.88007L33.4605 4.69087C33.4198 4.67439 33.3838 4.64829 33.3555 4.61479C33.3272 4.5813 33.3074 4.54143 33.298 4.49861L32.6143 1.40736C32.3032 0.000716859 30.4259 -0.473072 29.4898 0.640154L27.4521 3.06313C27.424 3.09676 27.388 3.123 27.3474 3.13957C27.3068 3.15613 27.2628 3.16253 27.2191 3.15819L24.0681 2.8532C22.6343 2.71569 21.603 4.35277 22.3729 5.58777L24.0473 8.2744ZM23.6652 4.49628C23.6983 4.44296 23.7759 4.35541 23.9211 4.36953L27.0722 4.67452C27.3617 4.70256 27.6537 4.65978 27.923 4.54985C28.1923 4.43992 28.4308 4.26615 28.618 4.04351L30.6555 1.62054C30.8326 1.4101 31.0392 1.57595 31.1267 1.73622L31.8104 4.82758C31.8732 5.11157 32.0041 5.37603 32.1918 5.59817C32.3795 5.82031 32.6185 5.99346 32.8881 6.10269L35.822 7.29189C36.0344 7.43844 36.0462 7.59972 35.8575 7.77573L33.1291 9.38123C32.8783 9.52871 32.6672 9.73496 32.514 9.98219C32.3607 10.2294 32.2699 10.5102 32.2493 10.8004L32.025 13.9582C31.9512 14.2056 31.8015 14.2666 31.5759 14.1416L29.2059 12.0427C28.7865 11.6712 28.1292 11.5094 27.5845 11.6445L24.5118 12.407C24.2539 12.4132 24.1495 12.2897 24.1987 12.0365L25.4624 9.13372C25.5785 8.86705 25.6281 8.57614 25.6068 8.28606C25.5854 7.99598 25.4939 7.71543 25.34 7.46861L23.6654 4.78187C23.5881 4.65766 23.6322 4.5496 23.6652 4.49628ZM6.34073 6.17714L8.00849 7.27229L8.05186 9.26708C8.07694 10.4247 9.45382 11.0877 10.3734 10.3506L11.9302 9.10285L13.8407 9.678C14.9548 10.0135 16.0002 8.89312 15.5887 7.80498L14.8832 5.93867L16.0206 4.29935C16.684 3.34314 15.9413 2.00353 14.7794 2.05807L12.7864 2.15242L11.5788 0.564084C10.8454 -0.243033 9.38486 -0.122377 9.06372 1.05199L8.53753 2.9766L6.65385 3.63422C5.55555 4.01792 5.36827 5.53861 6.34073 6.17714ZM9.08688 4.39858C9.30554 4.32226 9.50236 4.1939 9.66036 4.02458C9.81836 3.85525 9.93281 3.65003 9.99383 3.42662L10.4824 1.63943L11.6037 3.11422C11.744 3.29848 11.9269 3.44593 12.1368 3.5439C12.3466 3.64187 12.5771 3.68743 12.8084 3.67667L14.6591 3.58902L13.603 5.11124C13.4709 5.30154 13.3871 5.52109 13.3588 5.75098C13.3305 5.98087 13.3585 6.21419 13.4405 6.43084L14.0956 8.1639L12.3216 7.62979C12.0999 7.56302 11.8652 7.55118 11.6378 7.59529C11.4104 7.63939 11.1972 7.73813 11.0165 7.88298L9.57072 9.04161L9.5304 7.18931C9.52541 6.95775 9.46417 6.73089 9.35198 6.52826C9.23979 6.32564 9.08 6.15334 8.88639 6.02622L7.33767 5.00927L9.08688 4.39858Z" fill="black"/>
<path d="M24.0473 8.2744C24.0945 8.34997 24.1014 8.44381 24.0658 8.52557L22.8021 11.4282C22.227 12.749 23.4671 14.2361 24.8788 13.8855L27.9515 13.123C28.038 13.1016 28.1292 13.124 28.196 13.183L30.5659 15.282C31.6439 16.2366 33.4417 15.5172 33.5448 14.0661L33.7691 10.9081C33.7722 10.8644 33.7859 10.822 33.809 10.7848C33.8322 10.7475 33.864 10.7164 33.9018 10.6942L36.6303 9.08873C37.8721 8.35819 37.7423 6.42637 36.3945 5.88007L33.4605 4.69087C33.4198 4.67439 33.3838 4.64829 33.3555 4.61479C33.3272 4.5813 33.3074 4.54143 33.298 4.49861L32.6143 1.40736C32.3032 0.000716859 30.4259 -0.473072 29.4898 0.640154L27.4521 3.06313C27.424 3.09676 27.388 3.123 27.3474 3.13957C27.3068 3.15613 27.2628 3.16253 27.2191 3.15819L24.0681 2.8532C22.6343 2.71569 21.603 4.35277 22.3729 5.58777L24.0473 8.2744ZM23.6652 4.49628C23.6983 4.44296 23.7759 4.35541 23.9211 4.36953L27.0722 4.67452C27.3617 4.70256 27.6537 4.65978 27.923 4.54985C28.1923 4.43992 28.4308 4.26615 28.618 4.04351L30.6555 1.62054C30.8326 1.4101 31.0392 1.57595 31.1267 1.73622L31.8104 4.82758C31.8732 5.11157 32.0041 5.37603 32.1918 5.59817C32.3795 5.82031 32.6185 5.99346 32.8881 6.10269L35.822 7.29189C36.0344 7.43844 36.0462 7.59972 35.8575 7.77573L33.1291 9.38123C32.8783 9.52871 32.6672 9.73496 32.514 9.98219C32.3607 10.2294 32.2699 10.5102 32.2493 10.8004L32.025 13.9582C31.9512 14.2056 31.8015 14.2666 31.5759 14.1416L29.2059 12.0427C28.7865 11.6712 28.1292 11.5094 27.5845 11.6445L24.5118 12.407C24.2539 12.4132 24.1495 12.2897 24.1987 12.0365L25.4624 9.13372C25.5785 8.86705 25.6281 8.57614 25.6068 8.28606C25.5854 7.99598 25.4939 7.71543 25.34 7.46861L23.6654 4.78187C23.5881 4.65766 23.6322 4.5496 23.6652 4.49628ZM6.34073 6.17714L8.00849 7.27229L8.05186 9.26708C8.07694 10.4247 9.45382 11.0877 10.3734 10.3506L11.9302 9.10285L13.8407 9.678C14.9548 10.0135 16.0002 8.89312 15.5887 7.80498L14.8832 5.93867L16.0206 4.29935C16.684 3.34314 15.9413 2.00353 14.7794 2.05807L12.7864 2.15242L11.5788 0.564084C10.8454 -0.243033 9.38486 -0.122377 9.06372 1.05199L8.53753 2.9766L6.65385 3.63422C5.55555 4.01792 5.36827 5.53861 6.34073 6.17714ZM9.08688 4.39858C9.30554 4.32226 9.50236 4.1939 9.66036 4.02458C9.81836 3.85525 9.93281 3.65003 9.99383 3.42662L10.4824 1.63943L11.6037 3.11422C11.744 3.29848 11.9269 3.44593 12.1368 3.5439C12.3466 3.64187 12.5771 3.68743 12.8084 3.67667L14.6591 3.58902L13.603 5.11124C13.4709 5.30154 13.3871 5.52109 13.3588 5.75098C13.3305 5.98087 13.3585 6.21419 13.4405 6.43084L14.0956 8.1639L12.3216 7.62979C12.0999 7.56302 11.8652 7.55118 11.6378 7.59529C11.4104 7.63939 11.1972 7.73813 11.0165 7.88298L9.57072 9.04161L9.5304 7.18931C9.52541 6.95775 9.46417 6.73089 9.35198 6.52826C9.23979 6.32564 9.08 6.15334 8.88639 6.02622L7.33767 5.00927L9.08688 4.39858Z" fill="url(#paint0_linear_2_4796)"/>
<path d="M24.0473 8.2744C24.0945 8.34997 24.1014 8.44381 24.0658 8.52557L22.8021 11.4282C22.227 12.749 23.4671 14.2361 24.8788 13.8855L27.9515 13.123C28.038 13.1016 28.1292 13.124 28.196 13.183L30.5659 15.282C31.6439 16.2366 33.4417 15.5172 33.5448 14.0661L33.7691 10.9081C33.7722 10.8644 33.7859 10.822 33.809 10.7848C33.8322 10.7475 33.864 10.7164 33.9018 10.6942L36.6303 9.08873C37.8721 8.35819 37.7423 6.42637 36.3945 5.88007L33.4605 4.69087C33.4198 4.67439 33.3838 4.64829 33.3555 4.61479C33.3272 4.5813 33.3074 4.54143 33.298 4.49861L32.6143 1.40736C32.3032 0.000716859 30.4259 -0.473072 29.4898 0.640154L27.4521 3.06313C27.424 3.09676 27.388 3.123 27.3474 3.13957C27.3068 3.15613 27.2628 3.16253 27.2191 3.15819L24.0681 2.8532C22.6343 2.71569 21.603 4.35277 22.3729 5.58777L24.0473 8.2744ZM23.6652 4.49628C23.6983 4.44296 23.7759 4.35541 23.9211 4.36953L27.0722 4.67452C27.3617 4.70256 27.6537 4.65978 27.923 4.54985C28.1923 4.43992 28.4308 4.26615 28.618 4.04351L30.6555 1.62054C30.8326 1.4101 31.0392 1.57595 31.1267 1.73622L31.8104 4.82758C31.8732 5.11157 32.0041 5.37603 32.1918 5.59817C32.3795 5.82031 32.6185 5.99346 32.8881 6.10269L35.822 7.29189C36.0344 7.43844 36.0462 7.59972 35.8575 7.77573L33.1291 9.38123C32.8783 9.52871 32.6672 9.73496 32.514 9.98219C32.3607 10.2294 32.2699 10.5102 32.2493 10.8004L32.025 13.9582C31.9512 14.2056 31.8015 14.2666 31.5759 14.1416L29.2059 12.0427C28.7865 11.6712 28.1292 11.5094 27.5845 11.6445L24.5118 12.407C24.2539 12.4132 24.1495 12.2897 24.1987 12.0365L25.4624 9.13372C25.5785 8.86705 25.6281 8.57614 25.6068 8.28606C25.5854 7.99598 25.4939 7.71543 25.34 7.46861L23.6654 4.78187C23.5881 4.65766 23.6322 4.5496 23.6652 4.49628ZM6.34073 6.17714L8.00849 7.27229L8.05186 9.26708C8.07694 10.4247 9.45382 11.0877 10.3734 10.3506L11.9302 9.10285L13.8407 9.678C14.9548 10.0135 16.0002 8.89312 15.5887 7.80498L14.8832 5.93867L16.0206 4.29935C16.684 3.34314 15.9413 2.00353 14.7794 2.05807L12.7864 2.15242L11.5788 0.564084C10.8454 -0.243033 9.38486 -0.122377 9.06372 1.05199L8.53753 2.9766L6.65385 3.63422C5.55555 4.01792 5.36827 5.53861 6.34073 6.17714ZM9.08688 4.39858C9.30554 4.32226 9.50236 4.1939 9.66036 4.02458C9.81836 3.85525 9.93281 3.65003 9.99383 3.42662L10.4824 1.63943L11.6037 3.11422C11.744 3.29848 11.9269 3.44593 12.1368 3.5439C12.3466 3.64187 12.5771 3.68743 12.8084 3.67667L14.6591 3.58902L13.603 5.11124C13.4709 5.30154 13.3871 5.52109 13.3588 5.75098C13.3305 5.98087 13.3585 6.21419 13.4405 6.43084L14.0956 8.1639L12.3216 7.62979C12.0999 7.56302 11.8652 7.55118 11.6378 7.59529C11.4104 7.63939 11.1972 7.73813 11.0165 7.88298L9.57072 9.04161L9.5304 7.18931C9.52541 6.95775 9.46417 6.73089 9.35198 6.52826C9.23979 6.32564 9.08 6.15334 8.88639 6.02622L7.33767 5.00927L9.08688 4.39858Z" fill="url(#paint1_linear_2_4796)"/>
<path d="M49.207 43.8317H47.3689C49.2356 40.4367 47.5465 34.1162 43.2109 34.1429V17.9631C43.2109 17.761 43.1306 17.5673 42.9878 17.4244C42.8449 17.2816 42.6512 17.2013 42.4492 17.2013H22.5865C22.596 16.7058 22.3675 16.2361 21.9577 15.9364L20.0411 14.5346C20.0395 14.5334 20.0381 14.5319 20.0373 14.53C20.0364 14.5282 20.036 14.5262 20.036 14.5241L20.1042 12.1505C20.14 10.9003 18.6844 10.129 17.67 10.8611L15.7447 12.2507C15.7431 12.2519 15.7412 12.2527 15.7392 12.253C15.7371 12.2533 15.7351 12.2531 15.7331 12.2524L13.4969 11.4541C12.3189 11.0333 11.1355 12.1798 11.5184 13.3706L12.245 15.6311C12.2456 15.633 12.2458 15.6351 12.2454 15.6371C12.2451 15.6391 12.2442 15.641 12.243 15.6427L11.0407 17.2013H0.761719C0.559698 17.2013 0.365952 17.2816 0.223102 17.4244C0.0802523 17.5673 0 17.761 0 17.9631L0 22.6008C0 22.8028 0.0802523 22.9966 0.223102 23.1394C0.365952 23.2823 0.559698 23.3625 0.761719 23.3625C0.963739 23.3625 1.15749 23.2823 1.30034 23.1394C1.44319 22.9966 1.52344 22.8028 1.52344 22.6008V18.7248H17.327V34.154C13.158 34.3572 11.6005 40.5224 13.4204 43.8316H11.5822C10.0421 43.8316 8.78922 45.0845 8.78922 46.6246V50.4766H2.79063C2.09188 50.4766 1.52344 49.9081 1.52344 49.2094V26.9063C1.49977 25.9146 0.0360547 25.8851 0 26.9063V49.2093C0 50.7481 1.25186 52 2.79063 52H42.152C43.1377 51.9744 43.1781 50.5142 42.152 50.4766H34.6731V45.3552H49.207C49.9071 45.3552 50.4766 45.9246 50.4766 46.6247V50.4766H46.2041C46.0021 50.4766 45.8084 50.5568 45.6655 50.6997C45.5227 50.8425 45.4424 51.0363 45.4424 51.2383C45.4424 51.4403 45.5227 51.634 45.6655 51.7769C45.8084 51.9198 46.0021 52 46.2041 52H51.2383C51.4403 52 51.634 51.9198 51.7769 51.7769C51.9198 51.634 52 51.4403 52 51.2383V46.6247C52 45.0846 50.7471 43.8317 49.207 43.8317ZM46.3068 38.5351C46.9216 40.5807 46.5308 42.9286 45.4611 43.8316H31.8269C33.608 41.3325 38.192 35.6644 43.126 35.6644C45.2183 35.6645 46.0474 37.672 46.3068 38.5351ZM41.6874 34.2671C37.702 34.7387 32.7405 39.6526 30.3946 43.2152C29.0832 41.3299 27.582 39.557 25.8839 38.0083V18.7248H41.6874V34.2671ZM13.6955 15.165L12.9666 12.899C12.9682 12.8957 12.9709 12.8929 12.9742 12.8911C12.9775 12.8893 12.9812 12.8885 12.985 12.8889L15.2213 13.6872C15.4558 13.7709 15.7071 13.7964 15.9537 13.7614C16.2002 13.7263 16.4346 13.6318 16.6364 13.4861L18.5661 12.0925C18.5698 12.0931 18.5733 12.0947 18.5761 12.0973C18.5788 12.0998 18.5807 12.1032 18.5815 12.1069L18.5133 14.4804C18.5061 14.7293 18.5596 14.9762 18.6691 15.1999C18.7786 15.4235 18.9408 15.6172 19.1418 15.7642L21.0634 17.1689C21.0584 17.1916 21.0426 17.2024 21.0162 17.2013H12.9648L13.4493 16.5731C13.6015 16.3759 13.7034 16.1447 13.7463 15.8994C13.7892 15.6541 13.7717 15.4021 13.6955 15.165ZM24.3605 18.7248V36.7388C22.4882 35.3264 20.6456 34.4862 18.8504 34.2277V18.7248H24.3605ZM14.4823 38.5351C14.7417 37.672 15.5709 35.6645 17.6631 35.6645C22.5894 35.6645 27.1776 41.3323 28.9612 43.8317H15.328C14.2584 42.9286 13.8675 40.5806 14.4823 38.5351ZM10.3126 46.6247C10.3126 45.9246 10.882 45.3552 11.5821 45.3552H26.1161V50.4766H10.3126V46.6247ZM33.1496 50.4766H27.6395V45.3552H33.1496V50.4766ZM4.66741 13.5002C5.64769 13.5002 5.64931 11.9768 4.66741 11.9768C3.68713 11.9768 3.6855 13.5002 4.66741 13.5002ZM18.7682 7.21033C19.7485 7.21033 19.7501 5.68689 18.7682 5.68689C17.788 5.68689 17.7864 7.21033 18.7682 7.21033ZM21.0001 1.52344C21.9804 1.52344 21.982 0 21.0001 0C20.0198 0 20.0182 1.52344 21.0001 1.52344ZM37.8411 14.6162C38.8214 14.6162 38.823 13.0927 37.8411 13.0927C36.8609 13.0927 36.8593 14.6162 37.8411 14.6162Z" fill="black"/>
<path d="M49.207 43.8317H47.3689C49.2356 40.4367 47.5465 34.1162 43.2109 34.1429V17.9631C43.2109 17.761 43.1306 17.5673 42.9878 17.4244C42.8449 17.2816 42.6512 17.2013 42.4492 17.2013H22.5865C22.596 16.7058 22.3675 16.2361 21.9577 15.9364L20.0411 14.5346C20.0395 14.5334 20.0381 14.5319 20.0373 14.53C20.0364 14.5282 20.036 14.5262 20.036 14.5241L20.1042 12.1505C20.14 10.9003 18.6844 10.129 17.67 10.8611L15.7447 12.2507C15.7431 12.2519 15.7412 12.2527 15.7392 12.253C15.7371 12.2533 15.7351 12.2531 15.7331 12.2524L13.4969 11.4541C12.3189 11.0333 11.1355 12.1798 11.5184 13.3706L12.245 15.6311C12.2456 15.633 12.2458 15.6351 12.2454 15.6371C12.2451 15.6391 12.2442 15.641 12.243 15.6427L11.0407 17.2013H0.761719C0.559698 17.2013 0.365952 17.2816 0.223102 17.4244C0.0802523 17.5673 0 17.761 0 17.9631L0 22.6008C0 22.8028 0.0802523 22.9966 0.223102 23.1394C0.365952 23.2823 0.559698 23.3625 0.761719 23.3625C0.963739 23.3625 1.15749 23.2823 1.30034 23.1394C1.44319 22.9966 1.52344 22.8028 1.52344 22.6008V18.7248H17.327V34.154C13.158 34.3572 11.6005 40.5224 13.4204 43.8316H11.5822C10.0421 43.8316 8.78922 45.0845 8.78922 46.6246V50.4766H2.79063C2.09188 50.4766 1.52344 49.9081 1.52344 49.2094V26.9063C1.49977 25.9146 0.0360547 25.8851 0 26.9063V49.2093C0 50.7481 1.25186 52 2.79063 52H42.152C43.1377 51.9744 43.1781 50.5142 42.152 50.4766H34.6731V45.3552H49.207C49.9071 45.3552 50.4766 45.9246 50.4766 46.6247V50.4766H46.2041C46.0021 50.4766 45.8084 50.5568 45.6655 50.6997C45.5227 50.8425 45.4424 51.0363 45.4424 51.2383C45.4424 51.4403 45.5227 51.634 45.6655 51.7769C45.8084 51.9198 46.0021 52 46.2041 52H51.2383C51.4403 52 51.634 51.9198 51.7769 51.7769C51.9198 51.634 52 51.4403 52 51.2383V46.6247C52 45.0846 50.7471 43.8317 49.207 43.8317ZM46.3068 38.5351C46.9216 40.5807 46.5308 42.9286 45.4611 43.8316H31.8269C33.608 41.3325 38.192 35.6644 43.126 35.6644C45.2183 35.6645 46.0474 37.672 46.3068 38.5351ZM41.6874 34.2671C37.702 34.7387 32.7405 39.6526 30.3946 43.2152C29.0832 41.3299 27.582 39.557 25.8839 38.0083V18.7248H41.6874V34.2671ZM13.6955 15.165L12.9666 12.899C12.9682 12.8957 12.9709 12.8929 12.9742 12.8911C12.9775 12.8893 12.9812 12.8885 12.985 12.8889L15.2213 13.6872C15.4558 13.7709 15.7071 13.7964 15.9537 13.7614C16.2002 13.7263 16.4346 13.6318 16.6364 13.4861L18.5661 12.0925C18.5698 12.0931 18.5733 12.0947 18.5761 12.0973C18.5788 12.0998 18.5807 12.1032 18.5815 12.1069L18.5133 14.4804C18.5061 14.7293 18.5596 14.9762 18.6691 15.1999C18.7786 15.4235 18.9408 15.6172 19.1418 15.7642L21.0634 17.1689C21.0584 17.1916 21.0426 17.2024 21.0162 17.2013H12.9648L13.4493 16.5731C13.6015 16.3759 13.7034 16.1447 13.7463 15.8994C13.7892 15.6541 13.7717 15.4021 13.6955 15.165ZM24.3605 18.7248V36.7388C22.4882 35.3264 20.6456 34.4862 18.8504 34.2277V18.7248H24.3605ZM14.4823 38.5351C14.7417 37.672 15.5709 35.6645 17.6631 35.6645C22.5894 35.6645 27.1776 41.3323 28.9612 43.8317H15.328C14.2584 42.9286 13.8675 40.5806 14.4823 38.5351ZM10.3126 46.6247C10.3126 45.9246 10.882 45.3552 11.5821 45.3552H26.1161V50.4766H10.3126V46.6247ZM33.1496 50.4766H27.6395V45.3552H33.1496V50.4766ZM4.66741 13.5002C5.64769 13.5002 5.64931 11.9768 4.66741 11.9768C3.68713 11.9768 3.6855 13.5002 4.66741 13.5002ZM18.7682 7.21033C19.7485 7.21033 19.7501 5.68689 18.7682 5.68689C17.788 5.68689 17.7864 7.21033 18.7682 7.21033ZM21.0001 1.52344C21.9804 1.52344 21.982 0 21.0001 0C20.0198 0 20.0182 1.52344 21.0001 1.52344ZM37.8411 14.6162C38.8214 14.6162 38.823 13.0927 37.8411 13.0927C36.8609 13.0927 36.8593 14.6162 37.8411 14.6162Z" fill="url(#paint2_linear_2_4796)"/>
<path d="M49.207 43.8317H47.3689C49.2356 40.4367 47.5465 34.1162 43.2109 34.1429V17.9631C43.2109 17.761 43.1306 17.5673 42.9878 17.4244C42.8449 17.2816 42.6512 17.2013 42.4492 17.2013H22.5865C22.596 16.7058 22.3675 16.2361 21.9577 15.9364L20.0411 14.5346C20.0395 14.5334 20.0381 14.5319 20.0373 14.53C20.0364 14.5282 20.036 14.5262 20.036 14.5241L20.1042 12.1505C20.14 10.9003 18.6844 10.129 17.67 10.8611L15.7447 12.2507C15.7431 12.2519 15.7412 12.2527 15.7392 12.253C15.7371 12.2533 15.7351 12.2531 15.7331 12.2524L13.4969 11.4541C12.3189 11.0333 11.1355 12.1798 11.5184 13.3706L12.245 15.6311C12.2456 15.633 12.2458 15.6351 12.2454 15.6371C12.2451 15.6391 12.2442 15.641 12.243 15.6427L11.0407 17.2013H0.761719C0.559698 17.2013 0.365952 17.2816 0.223102 17.4244C0.0802523 17.5673 0 17.761 0 17.9631L0 22.6008C0 22.8028 0.0802523 22.9966 0.223102 23.1394C0.365952 23.2823 0.559698 23.3625 0.761719 23.3625C0.963739 23.3625 1.15749 23.2823 1.30034 23.1394C1.44319 22.9966 1.52344 22.8028 1.52344 22.6008V18.7248H17.327V34.154C13.158 34.3572 11.6005 40.5224 13.4204 43.8316H11.5822C10.0421 43.8316 8.78922 45.0845 8.78922 46.6246V50.4766H2.79063C2.09188 50.4766 1.52344 49.9081 1.52344 49.2094V26.9063C1.49977 25.9146 0.0360547 25.8851 0 26.9063V49.2093C0 50.7481 1.25186 52 2.79063 52H42.152C43.1377 51.9744 43.1781 50.5142 42.152 50.4766H34.6731V45.3552H49.207C49.9071 45.3552 50.4766 45.9246 50.4766 46.6247V50.4766H46.2041C46.0021 50.4766 45.8084 50.5568 45.6655 50.6997C45.5227 50.8425 45.4424 51.0363 45.4424 51.2383C45.4424 51.4403 45.5227 51.634 45.6655 51.7769C45.8084 51.9198 46.0021 52 46.2041 52H51.2383C51.4403 52 51.634 51.9198 51.7769 51.7769C51.9198 51.634 52 51.4403 52 51.2383V46.6247C52 45.0846 50.7471 43.8317 49.207 43.8317ZM46.3068 38.5351C46.9216 40.5807 46.5308 42.9286 45.4611 43.8316H31.8269C33.608 41.3325 38.192 35.6644 43.126 35.6644C45.2183 35.6645 46.0474 37.672 46.3068 38.5351ZM41.6874 34.2671C37.702 34.7387 32.7405 39.6526 30.3946 43.2152C29.0832 41.3299 27.582 39.557 25.8839 38.0083V18.7248H41.6874V34.2671ZM13.6955 15.165L12.9666 12.899C12.9682 12.8957 12.9709 12.8929 12.9742 12.8911C12.9775 12.8893 12.9812 12.8885 12.985 12.8889L15.2213 13.6872C15.4558 13.7709 15.7071 13.7964 15.9537 13.7614C16.2002 13.7263 16.4346 13.6318 16.6364 13.4861L18.5661 12.0925C18.5698 12.0931 18.5733 12.0947 18.5761 12.0973C18.5788 12.0998 18.5807 12.1032 18.5815 12.1069L18.5133 14.4804C18.5061 14.7293 18.5596 14.9762 18.6691 15.1999C18.7786 15.4235 18.9408 15.6172 19.1418 15.7642L21.0634 17.1689C21.0584 17.1916 21.0426 17.2024 21.0162 17.2013H12.9648L13.4493 16.5731C13.6015 16.3759 13.7034 16.1447 13.7463 15.8994C13.7892 15.6541 13.7717 15.4021 13.6955 15.165ZM24.3605 18.7248V36.7388C22.4882 35.3264 20.6456 34.4862 18.8504 34.2277V18.7248H24.3605ZM14.4823 38.5351C14.7417 37.672 15.5709 35.6645 17.6631 35.6645C22.5894 35.6645 27.1776 41.3323 28.9612 43.8317H15.328C14.2584 42.9286 13.8675 40.5806 14.4823 38.5351ZM10.3126 46.6247C10.3126 45.9246 10.882 45.3552 11.5821 45.3552H26.1161V50.4766H10.3126V46.6247ZM33.1496 50.4766H27.6395V45.3552H33.1496V50.4766ZM4.66741 13.5002C5.64769 13.5002 5.64931 11.9768 4.66741 11.9768C3.68713 11.9768 3.6855 13.5002 4.66741 13.5002ZM18.7682 7.21033C19.7485 7.21033 19.7501 5.68689 18.7682 5.68689C17.788 5.68689 17.7864 7.21033 18.7682 7.21033ZM21.0001 1.52344C21.9804 1.52344 21.982 0 21.0001 0C20.0198 0 20.0182 1.52344 21.0001 1.52344ZM37.8411 14.6162C38.8214 14.6162 38.823 13.0927 37.8411 13.0927C36.8609 13.0927 36.8593 14.6162 37.8411 14.6162Z" fill="url(#paint3_linear_2_4796)"/>
<defs>
<linearGradient id="paint0_linear_2_4796" x1="5.70947" y1="0.0226746" x2="18.1694" y2="25.2551" gradientUnits="userSpaceOnUse">
<stop stop-color="#4B28A9"/>
<stop offset="1" stop-color="#C655AE"/>
</linearGradient>
<linearGradient id="paint1_linear_2_4796" x1="5.70947" y1="0.0226746" x2="18.1694" y2="25.2551" gradientUnits="userSpaceOnUse">
<stop stop-color="#2274E9"/>
<stop offset="1" stop-color="#0D366D"/>
</linearGradient>
<linearGradient id="paint2_linear_2_4796" x1="0" y1="0" x2="52" y2="52" gradientUnits="userSpaceOnUse">
<stop stop-color="#4B28A9"/>
<stop offset="1" stop-color="#C655AE"/>
</linearGradient>
<linearGradient id="paint3_linear_2_4796" x1="0" y1="0" x2="52" y2="52" gradientUnits="userSpaceOnUse">
<stop stop-color="#2274E9"/>
<stop offset="1" stop-color="#0D366D"/>
</linearGradient>
</defs>
</svg>
