<svg width="24" height="24" viewBox="0 0 24 24" fill="none" xmlns="http://www.w3.org/2000/svg">
<path d="M12 0C5.383 0 0 5.383 0 12C0 18.617 5.383 24 12 24C18.617 24 24 18.617 24 12C24 5.383 18.617 0 12 0ZM12 22C6.486 22 2 17.514 2 12C2 6.486 6.486 2 12 2C17.514 2 22 6.486 22 12C22 17.514 17.514 22 12 22ZM12 4C7.589 4 4 7.589 4 12C4 16.411 7.589 20 12 20C16.411 20 20 16.411 20 12C20 7.589 16.411 4 12 4ZM12 18C8.691 18 6 15.309 6 12C6 8.691 8.691 6 12 6C15.309 6 18 8.691 18 12C18 15.309 15.309 18 12 18ZM16.151 10.477C16.1989 10.6124 16.2048 10.759 16.1681 10.8978C16.1313 11.0366 16.0536 11.1611 15.945 11.255L14.289 12.606L14.976 14.689C15.0221 14.8262 15.024 14.9743 14.9814 15.1126C14.9389 15.2509 14.8541 15.3724 14.739 15.46C14.624 15.5483 14.4844 15.5988 14.3394 15.6043C14.1945 15.6099 14.0514 15.5703 13.93 15.491L12.007 14.24L10.115 15.507C9.99929 15.5823 9.86403 15.6219 9.726 15.621V15.613C9.6162 15.6136 9.50782 15.5881 9.40977 15.5387C9.31172 15.4893 9.2268 15.4173 9.16198 15.3287C9.09717 15.24 9.05431 15.1373 9.03693 15.0289C9.01955 14.9204 9.02814 14.8095 9.062 14.705L9.718 12.599L8.055 11.248C7.834 11.057 7.75 10.752 7.849 10.477C7.948 10.202 8.215 10.019 8.505 10.019H10.603L11.343 8.027C11.3928 7.8932 11.4824 7.77784 11.5996 7.69638C11.7169 7.61492 11.8562 7.57126 11.999 7.57126C12.1418 7.57126 12.2811 7.61492 12.3984 7.69638C12.5156 7.77784 12.6052 7.8932 12.655 8.027L13.395 10.019H15.493C15.636 10.0192 15.7756 10.0632 15.8929 10.145C16.0102 10.2269 16.0995 10.3428 16.149 10.477H16.151Z" fill="#92909A"/>
</svg>
