<svg width="29" height="11" viewBox="0 0 29 11" fill="none" xmlns="http://www.w3.org/2000/svg">
<path d="M25.2698 10.5784H21.7137V2.70404H17.9835V0H29V2.14689L28.3831 2.70404H25.2698V10.5784Z" fill="#020202"/>
<path d="M25.2698 10.5784H21.7137V2.70404H17.9835V0H29V2.14689L28.3831 2.70404H25.2698V10.5784Z" fill="url(#paint0_linear_2_3312)"/>
<path d="M25.2698 10.5784H21.7137V2.70404H17.9835V0H29V2.14689L28.3831 2.70404H25.2698V10.5784Z" fill="url(#paint1_linear_2_3312)"/>
<path d="M1.97397 10.5784H9.89164L10.5158 10.0139V7.87441H3.57783V2.70404H6.54024V2.70646L14.2257 2.70404V5.28922H10.5344V7.16079L11.0469 7.73326H12.571L14.4144 10.5784H18.1373L16.1343 7.48069L17.8035 5.95781V1.78288L15.8368 0H1.97397L0 1.78288V8.79556L1.97397 10.5784Z" fill="#020202"/>
<path d="M1.97397 10.5784H9.89164L10.5158 10.0139V7.87441H3.57783V2.70404H6.54024V2.70646L14.2257 2.70404V5.28922H10.5344V7.16079L11.0469 7.73326H12.571L14.4144 10.5784H18.1373L16.1343 7.48069L17.8035 5.95781V1.78288L15.8368 0H1.97397L0 1.78288V8.79556L1.97397 10.5784Z" fill="url(#paint2_linear_2_3312)"/>
<path d="M1.97397 10.5784H9.89164L10.5158 10.0139V7.87441H3.57783V2.70404H6.54024V2.70646L14.2257 2.70404V5.28922H10.5344V7.16079L11.0469 7.73326H12.571L14.4144 10.5784H18.1373L16.1343 7.48069L17.8035 5.95781V1.78288L15.8368 0H1.97397L0 1.78288V8.79556L1.97397 10.5784Z" fill="url(#paint3_linear_2_3312)"/>
<defs>
<linearGradient id="paint0_linear_2_3312" x1="0" y1="0" x2="10.1723" y2="13.8391" gradientUnits="userSpaceOnUse">
<stop stop-color="#4B28A9"/>
<stop offset="0.952114" stop-color="#C655AE"/>
</linearGradient>
<linearGradient id="paint1_linear_2_3312" x1="0" y1="0" x2="6.7236" y2="17.3501" gradientUnits="userSpaceOnUse">
<stop stop-color="#2272E4"/>
<stop offset="0.572848" stop-color="#13325E"/>
<stop offset="1" stop-color="#010204"/>
</linearGradient>
<linearGradient id="paint2_linear_2_3312" x1="0" y1="0" x2="10.1723" y2="13.8391" gradientUnits="userSpaceOnUse">
<stop stop-color="#4B28A9"/>
<stop offset="0.952114" stop-color="#C655AE"/>
</linearGradient>
<linearGradient id="paint3_linear_2_3312" x1="0" y1="0" x2="6.7236" y2="17.3501" gradientUnits="userSpaceOnUse">
<stop stop-color="#2272E4"/>
<stop offset="0.572848" stop-color="#13325E"/>
<stop offset="1" stop-color="#010204"/>
</linearGradient>
</defs>
</svg>
