<svg width="63" height="63" viewBox="0 0 63 63" fill="none" xmlns="http://www.w3.org/2000/svg">
<path d="M31.5002 50.7653C23.6855 50.7653 16.3199 49.6259 10.7606 47.5575C7.84072 46.471 5.56682 45.1716 4.00781 43.7258V53.5425C4.00781 55.8127 6.78252 58.1469 11.6195 59.9471C16.9105 61.9159 23.9709 62.9999 31.5002 62.9999C39.0294 62.9999 46.0898 61.9159 51.3809 59.9471C56.2178 58.1469 58.9925 55.8127 58.9925 53.5425V43.7258C57.4335 45.1716 55.1596 46.471 52.2385 47.5575C46.6805 49.6259 39.3149 50.7653 31.5002 50.7653ZM44.062 56.455C44.0461 56.5338 44.0227 56.6109 43.9919 56.6851C43.9608 56.7594 43.9229 56.8307 43.8787 56.898C43.8336 56.9652 43.7821 57.0278 43.7249 57.085C43.6681 57.1418 43.6058 57.1929 43.5391 57.2376C43.4718 57.2818 43.4005 57.3197 43.3262 57.3508C43.252 57.3816 43.1749 57.4051 43.0961 57.4209C42.9373 57.4521 42.7739 57.4521 42.615 57.4209C42.5362 57.4051 42.4592 57.3816 42.3849 57.3508C42.2354 57.2893 42.0996 57.199 41.985 57.085C41.9281 57.0278 41.877 56.9652 41.8324 56.898C41.7882 56.8307 41.7503 56.7594 41.7192 56.6851C41.6885 56.6109 41.665 56.5338 41.6491 56.455C41.6333 56.376 41.6255 56.2956 41.6257 56.2151C41.6252 56.1325 41.633 56.05 41.6491 55.969C41.6807 55.8112 41.743 55.6611 41.8324 55.5273C41.8767 55.4599 41.9279 55.3972 41.985 55.3402C42.0992 55.2254 42.2351 55.1346 42.3849 55.0732C42.4592 55.0424 42.5362 55.019 42.615 55.0031C42.7738 54.9711 42.9373 54.9711 43.0961 55.0031C43.1749 55.019 43.252 55.0424 43.3262 55.0732C43.4005 55.1043 43.4718 55.1422 43.5391 55.1864C43.6059 55.2315 43.6681 55.283 43.7249 55.3402C43.7824 55.3972 43.8339 55.4598 43.8787 55.5273C43.9681 55.6611 44.0304 55.8112 44.062 55.969C44.0781 56.05 44.0859 56.1325 44.0854 56.2151C44.0856 56.2956 44.0778 56.376 44.062 56.455ZM49.4121 55.1249C49.3962 55.2037 49.3727 55.2807 49.342 55.355C49.3114 55.4295 49.2735 55.5008 49.2288 55.5679C49.1836 55.635 49.1321 55.6976 49.075 55.7549C48.8438 55.985 48.5312 56.1145 48.205 56.1154C48.1244 56.1152 48.044 56.107 47.9651 56.0908C47.8861 56.0755 47.809 56.052 47.735 56.0207C47.6604 55.9901 47.5891 55.9522 47.5221 55.9075C47.3871 55.8184 47.2716 55.7029 47.1825 55.5679C47.1378 55.5008 47.0999 55.4295 47.0693 55.355C47.0385 55.2807 47.015 55.2037 46.9992 55.1249C46.9664 54.9666 46.9664 54.8033 46.9992 54.645C47.015 54.5662 47.0385 54.4892 47.0693 54.4149C47.0999 54.3404 47.1378 54.2691 47.1825 54.202C47.2716 54.067 47.3871 53.9515 47.5221 53.8624C47.5889 53.8173 47.6602 53.7793 47.735 53.7492C47.809 53.7179 47.8861 53.6944 47.9651 53.6791C48.1631 53.64 48.3676 53.6502 48.5607 53.7087C48.7539 53.7673 48.9296 53.8725 49.0725 54.015C49.13 54.0719 49.1816 54.1346 49.2263 54.202C49.271 54.2691 49.3089 54.3404 49.3395 54.4149C49.3703 54.4892 49.3938 54.5662 49.4096 54.645C49.4408 54.8035 49.4408 54.9665 49.4096 55.1249H49.4121ZM52.3431 53.3087C52.359 53.2299 52.3825 53.1529 52.4132 53.0786C52.4438 53.0041 52.4817 52.9328 52.5264 52.8658C52.5707 52.7984 52.6219 52.7357 52.679 52.6787C52.8224 52.537 52.9982 52.4324 53.1912 52.3738C53.3841 52.3153 53.5884 52.3047 53.7864 52.3428C53.8651 52.359 53.9422 52.3825 54.0165 52.4129C54.0905 52.4438 54.1614 52.4817 54.2282 52.5261C54.2956 52.5705 54.3582 52.6216 54.4152 52.6787C54.5579 52.8215 54.6633 52.9972 54.7221 53.1903C54.7809 53.3834 54.7913 53.5881 54.7523 53.7861C54.7361 53.8648 54.7126 53.9419 54.6822 54.0162C54.5573 54.3176 54.3179 54.557 54.0165 54.6819C53.9422 54.7124 53.8651 54.7358 53.7864 54.7521C53.5883 54.791 53.3837 54.7806 53.1906 54.7218C52.9975 54.6631 52.8218 54.5576 52.679 54.4149C52.6219 54.358 52.5707 54.2953 52.5264 54.2279C52.482 54.1611 52.4441 54.0903 52.4132 54.0162C52.3828 53.9419 52.3593 53.8648 52.3431 53.7861C52.3266 53.7051 52.3184 53.6227 52.3185 53.5401C52.3168 53.4605 52.323 53.3809 52.3369 53.3026L52.3431 53.3087Z" fill="#1576FF"/>
<path d="M31.5002 36.07C23.6855 36.07 16.3199 34.9306 10.7606 32.8622C7.84072 31.7757 5.56682 30.4763 4.00781 29.0305V38.8472C4.00781 41.1174 6.78252 43.4516 11.6195 45.2518C16.9105 47.2205 23.9709 48.3046 31.5002 48.3046C39.0294 48.3046 46.0898 47.2205 51.3809 45.2518C56.2178 43.4516 58.9925 41.1174 58.9925 38.8472V29.0305C57.4335 30.4763 55.1596 31.7757 52.2385 32.8622C46.6805 34.9306 39.3149 36.07 31.5002 36.07ZM44.062 41.7597C44.0461 41.8385 44.0227 41.9156 43.9919 41.9898C43.9603 42.0654 43.9211 42.1375 43.875 42.2051C43.8303 42.2723 43.7792 42.3349 43.7224 42.3922C43.6652 42.449 43.6026 42.5002 43.5354 42.5448C43.4681 42.589 43.3968 42.6269 43.3225 42.658C43.2483 42.6887 43.1712 42.7122 43.0924 42.7281C42.9337 42.7609 42.77 42.7609 42.6113 42.7281C42.5325 42.7122 42.4555 42.6887 42.3812 42.658C42.3069 42.6269 42.2357 42.589 42.1683 42.5448C41.9652 42.4102 41.8069 42.218 41.7137 41.9928C41.6206 41.7677 41.5968 41.5198 41.6454 41.2811C41.6616 41.2024 41.6851 41.1253 41.7155 41.051C41.7464 40.977 41.7843 40.9061 41.8287 40.8393C41.873 40.7719 41.9242 40.7093 41.9813 40.6523C42.0388 40.5954 42.1014 40.5439 42.1683 40.4985C42.2357 40.4543 42.3069 40.4164 42.3812 40.3853C42.4555 40.3545 42.5325 40.331 42.6113 40.3152C42.7701 40.2832 42.9336 40.2832 43.0924 40.3152C43.1712 40.331 43.2483 40.3545 43.3225 40.3853C43.3968 40.4164 43.4681 40.4543 43.5354 40.4985C43.6023 40.5439 43.6649 40.5954 43.7224 40.6523C43.8392 40.7652 43.9328 40.8998 43.998 41.0485C44.0285 41.1229 44.052 41.1999 44.0682 41.2786C44.0842 41.3596 44.092 41.4421 44.0916 41.5247C44.0894 41.6038 44.0795 41.6825 44.062 41.7597ZM49.4121 40.4234C49.396 40.5026 49.3726 40.58 49.342 40.6548C49.3111 40.7288 49.2732 40.7996 49.2288 40.8664C49.184 40.9338 49.1325 40.9965 49.075 41.0534C49.0179 41.1103 48.9557 41.1618 48.8892 41.2072C48.8215 41.2506 48.7503 41.288 48.6763 41.3192C48.6022 41.3505 48.5251 41.374 48.4462 41.3893C48.3652 41.4058 48.2827 41.414 48.2001 41.414C48.1195 41.4138 48.0391 41.4055 47.9602 41.3893C47.8812 41.374 47.8041 41.3505 47.7301 41.3192C47.6559 41.2883 47.5847 41.2508 47.5172 41.2072C47.45 41.1621 47.3874 41.1106 47.3302 41.0534C47.273 40.9965 47.2219 40.9338 47.1776 40.8664C47.1331 40.7996 47.0952 40.7288 47.0644 40.6548C47.0338 40.58 47.0103 40.5026 46.9942 40.4234C46.9614 40.2651 46.9614 40.1018 46.9942 39.9435C47.0101 39.8648 47.0336 39.7877 47.0644 39.7134C47.095 39.6389 47.1329 39.5676 47.1776 39.5006C47.2667 39.3656 47.3822 39.25 47.5172 39.161C47.5844 39.1165 47.6556 39.0786 47.7301 39.0478C47.8041 39.0164 47.8812 38.9929 47.9602 38.9776C48.1189 38.9456 48.2825 38.9456 48.4413 38.9776C48.5202 38.9929 48.5973 39.0164 48.6714 39.0478C48.7457 39.0789 48.8169 39.1168 48.8842 39.161C48.951 39.2056 49.0132 39.2567 49.07 39.3135C49.1276 39.3705 49.1791 39.4331 49.2238 39.5006C49.2685 39.5676 49.3065 39.6389 49.3371 39.7134C49.3678 39.7877 49.3913 39.8648 49.4072 39.9435C49.4384 40.102 49.4384 40.265 49.4072 40.4234H49.4121ZM52.679 37.9773C52.8224 37.8356 52.9982 37.7309 53.1912 37.6724C53.3841 37.6139 53.5884 37.6032 53.7864 37.6413C53.8651 37.6576 53.9422 37.681 54.0165 37.7115C54.0905 37.7423 54.1614 37.7802 54.2282 37.8247C54.2956 37.869 54.3582 37.9201 54.4152 37.9773C54.6459 38.208 54.7755 38.5209 54.7755 38.8472C54.7755 39.1735 54.6459 39.4864 54.4152 39.7171C54.3583 39.7747 54.2956 39.8262 54.2282 39.8709C54.1614 39.9154 54.0905 39.9533 54.0165 39.9842C53.9422 40.0146 53.8651 40.0381 53.7864 40.0543C53.7054 40.0703 53.6229 40.0782 53.5403 40.0777C53.4598 40.0779 53.3794 40.07 53.3004 40.0543C53.2216 40.0384 53.1445 40.0149 53.0703 39.9842C52.9956 39.9524 52.9243 39.9132 52.8574 39.8673C52.79 39.8225 52.7273 39.771 52.6704 39.7134C52.4397 39.4827 52.3101 39.1698 52.3101 38.8435C52.3101 38.5172 52.4397 38.2043 52.6704 37.9736L52.679 37.9773Z" fill="#1576FF"/>
<path d="M31.5002 21.3745C23.6855 21.3745 16.3199 20.2363 10.7606 18.1679C7.84072 17.0814 5.56682 15.7808 4.00781 14.335V24.1529C4.00781 26.4219 6.78252 28.7561 11.6195 30.5513C16.9105 32.5201 23.9709 33.6041 31.5002 33.6041C39.0294 33.6041 46.0898 32.525 51.3809 30.5562C56.2178 28.7561 58.9925 26.4219 58.9925 24.1578V14.335C57.4335 15.7808 55.1596 17.0814 52.2385 18.1679C46.6805 20.2363 39.3149 21.3745 31.5002 21.3745ZM44.062 27.0703C44.0461 27.1491 44.0227 27.2262 43.9919 27.3004C43.9613 27.3749 43.9234 27.4463 43.8787 27.5133C43.834 27.5804 43.7829 27.643 43.7261 27.7003C43.6689 27.7572 43.6063 27.8083 43.5391 27.8529C43.4718 27.8971 43.4005 27.935 43.3262 27.9661C43.2522 27.9974 43.175 28.0209 43.0961 28.0362C42.9374 28.069 42.7737 28.069 42.615 28.0362C42.5361 28.0209 42.459 27.9974 42.3849 27.9661C42.3106 27.935 42.2393 27.8971 42.172 27.8529C42.1048 27.8083 42.0422 27.7572 41.985 27.7003C41.9279 27.6434 41.8767 27.5807 41.8324 27.5133C41.7877 27.4463 41.7498 27.3749 41.7192 27.3004C41.6885 27.2262 41.665 27.1491 41.6491 27.0703C41.6163 26.912 41.6163 26.7487 41.6491 26.5904C41.665 26.5116 41.6885 26.4346 41.7192 26.3603C41.7498 26.2858 41.7877 26.2145 41.8324 26.1475C41.8767 26.0801 41.9279 26.0174 41.985 25.9604C42.0422 25.9036 42.1048 25.8525 42.172 25.8079C42.2393 25.7636 42.3106 25.7257 42.3849 25.6946C42.459 25.6633 42.5361 25.6398 42.615 25.6245C42.7738 25.5925 42.9373 25.5925 43.0961 25.6245C43.175 25.6398 43.2522 25.6633 43.3262 25.6946C43.4005 25.7257 43.4718 25.7636 43.5391 25.8079C43.7078 25.9196 43.846 26.0716 43.9414 26.2501C44.0368 26.4286 44.0862 26.628 44.0854 26.8304C44.0856 26.9109 44.0778 26.9913 44.062 27.0703ZM49.4121 25.7291C49.396 25.8078 49.3726 25.8849 49.342 25.9592C49.3111 26.0332 49.2732 26.1041 49.2288 26.1708C49.184 26.2383 49.1325 26.3009 49.075 26.3579C49.0182 26.4151 48.956 26.4666 48.8892 26.5117C48.8218 26.5559 48.7506 26.5938 48.6763 26.6249C48.527 26.6872 48.3668 26.719 48.205 26.7184C48.1245 26.7186 48.0441 26.7108 47.9651 26.695C47.8863 26.6791 47.8092 26.6556 47.735 26.6249C47.6606 26.594 47.5893 26.5561 47.5221 26.5117C47.3874 26.4217 47.272 26.3058 47.1825 26.1708C47.1381 26.1041 47.1001 26.0332 47.0693 25.9592C47.0387 25.8849 47.0152 25.8078 46.9992 25.7291C46.9827 25.6481 46.9745 25.5657 46.9745 25.483C46.9748 25.4024 46.983 25.322 46.9992 25.2431C47.015 25.1643 47.0385 25.0872 47.0693 25.013C47.1001 24.9386 47.138 24.8673 47.1825 24.8001C47.2716 24.6651 47.3871 24.5496 47.5221 24.4605C47.5893 24.416 47.6606 24.3781 47.735 24.3473C47.8092 24.3165 47.8863 24.293 47.9651 24.2771C48.1239 24.2452 48.2874 24.2452 48.4462 24.2771C48.525 24.293 48.602 24.3165 48.6763 24.3473C48.7506 24.3784 48.8218 24.4163 48.8892 24.4605C48.9559 24.5052 49.0182 24.5563 49.075 24.6131C49.1325 24.67 49.184 24.7327 49.2288 24.8001C49.2735 24.8671 49.3114 24.9384 49.342 25.013C49.3727 25.0872 49.3962 25.1643 49.4121 25.2431C49.4279 25.3221 49.4357 25.4025 49.4355 25.483C49.436 25.5656 49.4282 25.6481 49.4121 25.7291ZM52.3431 23.9117C52.3747 23.7539 52.437 23.6038 52.5264 23.47C52.6138 23.3371 52.7262 23.2226 52.8574 23.1328C52.9244 23.0881 52.9958 23.0502 53.0703 23.0196C53.1445 22.9888 53.2216 22.9654 53.3004 22.9495C53.4592 22.9175 53.6227 22.9175 53.7815 22.9495C53.8602 22.9657 53.9372 22.9892 54.0116 23.0196C54.0856 23.0505 54.1565 23.0884 54.2232 23.1328C54.2907 23.1776 54.3533 23.2291 54.4103 23.2866C54.5246 23.4007 54.6153 23.5362 54.6773 23.6853C54.708 23.7595 54.7315 23.8366 54.7474 23.9154C54.7635 23.9964 54.7713 24.0789 54.7708 24.1615C54.7701 24.4877 54.6405 24.8003 54.4103 25.0314C54.3533 25.0886 54.2906 25.1397 54.2232 25.184C54.1565 25.2284 54.0856 25.2664 54.0116 25.2972C53.9372 25.3276 53.8602 25.3511 53.7815 25.3673C53.7005 25.3838 53.6181 25.392 53.5354 25.392C53.4548 25.3917 53.3744 25.3835 53.2955 25.3673C53.2167 25.3515 53.1396 25.328 53.0654 25.2972C52.9908 25.2666 52.9195 25.2287 52.8525 25.184C52.7851 25.1397 52.7224 25.0886 52.6655 25.0314C52.6086 24.9742 52.5575 24.9116 52.5129 24.8444C52.4687 24.7771 52.4308 24.7058 52.3997 24.6315C52.3689 24.5573 52.3454 24.4802 52.3295 24.4014C52.313 24.3204 52.3047 24.238 52.3049 24.1553C52.3074 24.0733 52.3182 23.9916 52.3369 23.9117H52.3431Z" fill="#1576FF"/>
<path d="M11.6195 15.8607C16.9105 17.8295 23.9709 18.9135 31.5002 18.9135C39.0294 18.9135 46.0898 17.8295 51.3809 15.8607C56.2178 14.0606 58.9925 11.7276 58.9925 9.46231C58.9925 7.19701 56.2178 4.85789 51.3809 3.06387C46.0898 1.08404 39.0294 0 31.5002 0C23.9709 0 16.9105 1.08404 11.6195 3.05279C6.78252 4.85297 4.00781 7.18717 4.00781 9.45738C4.00781 11.7276 6.78252 14.0606 11.6195 15.8607Z" fill="#1576FF"/>
<mask id="mask0_54_27707" style="mask-type:alpha" maskUnits="userSpaceOnUse" x="4" y="0" width="55" height="63">
<path d="M31.5002 50.7653C23.6855 50.7653 16.3199 49.6259 10.7606 47.5575C7.84072 46.471 5.56682 45.1716 4.00781 43.7258V53.5425C4.00781 55.8127 6.78252 58.1469 11.6195 59.9471C16.9105 61.9159 23.9709 62.9999 31.5002 62.9999C39.0294 62.9999 46.0898 61.9159 51.3809 59.9471C56.2178 58.1469 58.9925 55.8127 58.9925 53.5425V43.7258C57.4335 45.1716 55.1596 46.471 52.2385 47.5575C46.6805 49.6259 39.3149 50.7653 31.5002 50.7653ZM44.062 56.455C44.0461 56.5338 44.0227 56.6109 43.9919 56.6851C43.9608 56.7594 43.9229 56.8307 43.8787 56.898C43.8336 56.9652 43.7821 57.0278 43.7249 57.085C43.6681 57.1418 43.6058 57.1929 43.5391 57.2376C43.4718 57.2818 43.4005 57.3197 43.3262 57.3508C43.252 57.3816 43.1749 57.4051 43.0961 57.4209C42.9373 57.4521 42.7739 57.4521 42.615 57.4209C42.5362 57.4051 42.4592 57.3816 42.3849 57.3508C42.2354 57.2893 42.0996 57.199 41.985 57.085C41.9281 57.0278 41.877 56.9652 41.8324 56.898C41.7882 56.8307 41.7503 56.7594 41.7192 56.6851C41.6885 56.6109 41.665 56.5338 41.6491 56.455C41.6333 56.376 41.6255 56.2956 41.6257 56.2151C41.6252 56.1325 41.633 56.05 41.6491 55.969C41.6807 55.8112 41.743 55.6611 41.8324 55.5273C41.8767 55.4599 41.9279 55.3972 41.985 55.3402C42.0992 55.2254 42.2351 55.1346 42.3849 55.0732C42.4592 55.0424 42.5362 55.019 42.615 55.0031C42.7738 54.9711 42.9373 54.9711 43.0961 55.0031C43.1749 55.019 43.252 55.0424 43.3262 55.0732C43.4005 55.1043 43.4718 55.1422 43.5391 55.1864C43.6059 55.2315 43.6681 55.283 43.7249 55.3402C43.7824 55.3972 43.8339 55.4598 43.8787 55.5273C43.9681 55.6611 44.0304 55.8112 44.062 55.969C44.0781 56.05 44.0859 56.1325 44.0854 56.2151C44.0856 56.2956 44.0778 56.376 44.062 56.455ZM49.4121 55.1249C49.3962 55.2037 49.3727 55.2807 49.342 55.355C49.3114 55.4295 49.2735 55.5008 49.2288 55.5679C49.1836 55.635 49.1321 55.6976 49.075 55.7549C48.8438 55.985 48.5312 56.1145 48.205 56.1154C48.1244 56.1152 48.044 56.107 47.9651 56.0908C47.8861 56.0755 47.809 56.052 47.735 56.0207C47.6604 55.9901 47.5891 55.9522 47.5221 55.9075C47.3871 55.8184 47.2716 55.7029 47.1825 55.5679C47.1378 55.5008 47.0999 55.4295 47.0693 55.355C47.0385 55.2807 47.015 55.2037 46.9992 55.1249C46.9664 54.9666 46.9664 54.8033 46.9992 54.645C47.015 54.5662 47.0385 54.4892 47.0693 54.4149C47.0999 54.3404 47.1378 54.2691 47.1825 54.202C47.2716 54.067 47.3871 53.9515 47.5221 53.8624C47.5889 53.8173 47.6602 53.7793 47.735 53.7492C47.809 53.7179 47.8861 53.6944 47.9651 53.6791C48.1631 53.64 48.3676 53.6502 48.5607 53.7087C48.7539 53.7673 48.9296 53.8725 49.0725 54.015C49.13 54.0719 49.1816 54.1346 49.2263 54.202C49.271 54.2691 49.3089 54.3404 49.3395 54.4149C49.3703 54.4892 49.3938 54.5662 49.4096 54.645C49.4408 54.8035 49.4408 54.9665 49.4096 55.1249H49.4121ZM52.3431 53.3087C52.359 53.2299 52.3825 53.1529 52.4132 53.0786C52.4438 53.0041 52.4817 52.9328 52.5264 52.8658C52.5707 52.7984 52.6219 52.7357 52.679 52.6787C52.8224 52.537 52.9982 52.4324 53.1912 52.3738C53.3841 52.3153 53.5884 52.3047 53.7864 52.3428C53.8651 52.359 53.9422 52.3825 54.0165 52.4129C54.0905 52.4438 54.1614 52.4817 54.2282 52.5261C54.2956 52.5705 54.3582 52.6216 54.4152 52.6787C54.5579 52.8215 54.6633 52.9972 54.7221 53.1903C54.7809 53.3834 54.7913 53.5881 54.7523 53.7861C54.7361 53.8648 54.7126 53.9419 54.6822 54.0162C54.5573 54.3176 54.3179 54.557 54.0165 54.6819C53.9422 54.7124 53.8651 54.7358 53.7864 54.7521C53.5883 54.791 53.3837 54.7806 53.1906 54.7218C52.9975 54.6631 52.8218 54.5576 52.679 54.4149C52.6219 54.358 52.5707 54.2953 52.5264 54.2279C52.482 54.1611 52.4441 54.0903 52.4132 54.0162C52.3828 53.9419 52.3593 53.8648 52.3431 53.7861C52.3266 53.7051 52.3184 53.6227 52.3185 53.5401C52.3168 53.4605 52.323 53.3809 52.3369 53.3026L52.3431 53.3087Z" fill="#1576FF"/>
<path d="M31.5002 36.07C23.6855 36.07 16.3199 34.9306 10.7606 32.8622C7.84072 31.7757 5.56682 30.4763 4.00781 29.0305V38.8472C4.00781 41.1174 6.78252 43.4516 11.6195 45.2518C16.9105 47.2205 23.9709 48.3046 31.5002 48.3046C39.0294 48.3046 46.0898 47.2205 51.3809 45.2518C56.2178 43.4516 58.9925 41.1174 58.9925 38.8472V29.0305C57.4335 30.4763 55.1596 31.7757 52.2385 32.8622C46.6805 34.9306 39.3149 36.07 31.5002 36.07ZM44.062 41.7597C44.0461 41.8385 44.0227 41.9156 43.9919 41.9898C43.9603 42.0654 43.9211 42.1375 43.875 42.2051C43.8303 42.2723 43.7792 42.3349 43.7224 42.3922C43.6652 42.449 43.6026 42.5002 43.5354 42.5448C43.4681 42.589 43.3968 42.6269 43.3225 42.658C43.2483 42.6887 43.1712 42.7122 43.0924 42.7281C42.9337 42.7609 42.77 42.7609 42.6113 42.7281C42.5325 42.7122 42.4555 42.6887 42.3812 42.658C42.3069 42.6269 42.2357 42.589 42.1683 42.5448C41.9652 42.4102 41.8069 42.218 41.7137 41.9928C41.6206 41.7677 41.5968 41.5198 41.6454 41.2811C41.6616 41.2024 41.6851 41.1253 41.7155 41.051C41.7464 40.977 41.7843 40.9061 41.8287 40.8393C41.873 40.7719 41.9242 40.7093 41.9813 40.6523C42.0388 40.5954 42.1014 40.5439 42.1683 40.4985C42.2357 40.4543 42.3069 40.4164 42.3812 40.3853C42.4555 40.3545 42.5325 40.331 42.6113 40.3152C42.7701 40.2832 42.9336 40.2832 43.0924 40.3152C43.1712 40.331 43.2483 40.3545 43.3225 40.3853C43.3968 40.4164 43.4681 40.4543 43.5354 40.4985C43.6023 40.5439 43.6649 40.5954 43.7224 40.6523C43.8392 40.7652 43.9328 40.8998 43.998 41.0485C44.0285 41.1229 44.052 41.1999 44.0682 41.2786C44.0842 41.3596 44.092 41.4421 44.0916 41.5247C44.0894 41.6038 44.0795 41.6825 44.062 41.7597ZM49.4121 40.4234C49.396 40.5026 49.3726 40.58 49.342 40.6548C49.3111 40.7288 49.2732 40.7996 49.2288 40.8664C49.184 40.9338 49.1325 40.9965 49.075 41.0534C49.0179 41.1103 48.9557 41.1618 48.8892 41.2072C48.8215 41.2506 48.7503 41.288 48.6763 41.3192C48.6022 41.3505 48.5251 41.374 48.4462 41.3893C48.3652 41.4058 48.2827 41.414 48.2001 41.414C48.1195 41.4138 48.0391 41.4055 47.9602 41.3893C47.8812 41.374 47.8041 41.3505 47.7301 41.3192C47.6559 41.2883 47.5847 41.2508 47.5172 41.2072C47.45 41.1621 47.3874 41.1106 47.3302 41.0534C47.273 40.9965 47.2219 40.9338 47.1776 40.8664C47.1331 40.7996 47.0952 40.7288 47.0644 40.6548C47.0338 40.58 47.0103 40.5026 46.9942 40.4234C46.9614 40.2651 46.9614 40.1018 46.9942 39.9435C47.0101 39.8648 47.0336 39.7877 47.0644 39.7134C47.095 39.6389 47.1329 39.5676 47.1776 39.5006C47.2667 39.3656 47.3822 39.25 47.5172 39.161C47.5844 39.1165 47.6556 39.0786 47.7301 39.0478C47.8041 39.0164 47.8812 38.9929 47.9602 38.9776C48.1189 38.9456 48.2825 38.9456 48.4413 38.9776C48.5202 38.9929 48.5973 39.0164 48.6714 39.0478C48.7457 39.0789 48.8169 39.1168 48.8842 39.161C48.951 39.2056 49.0132 39.2567 49.07 39.3135C49.1276 39.3705 49.1791 39.4331 49.2238 39.5006C49.2685 39.5676 49.3065 39.6389 49.3371 39.7134C49.3678 39.7877 49.3913 39.8648 49.4072 39.9435C49.4384 40.102 49.4384 40.265 49.4072 40.4234H49.4121ZM52.679 37.9773C52.8224 37.8356 52.9982 37.7309 53.1912 37.6724C53.3841 37.6139 53.5884 37.6032 53.7864 37.6413C53.8651 37.6576 53.9422 37.681 54.0165 37.7115C54.0905 37.7423 54.1614 37.7802 54.2282 37.8247C54.2956 37.869 54.3582 37.9201 54.4152 37.9773C54.6459 38.208 54.7755 38.5209 54.7755 38.8472C54.7755 39.1735 54.6459 39.4864 54.4152 39.7171C54.3583 39.7747 54.2956 39.8262 54.2282 39.8709C54.1614 39.9154 54.0905 39.9533 54.0165 39.9842C53.9422 40.0146 53.8651 40.0381 53.7864 40.0543C53.7054 40.0703 53.6229 40.0782 53.5403 40.0777C53.4598 40.0779 53.3794 40.07 53.3004 40.0543C53.2216 40.0384 53.1445 40.0149 53.0703 39.9842C52.9956 39.9524 52.9243 39.9132 52.8574 39.8673C52.79 39.8225 52.7273 39.771 52.6704 39.7134C52.4397 39.4827 52.3101 39.1698 52.3101 38.8435C52.3101 38.5172 52.4397 38.2043 52.6704 37.9736L52.679 37.9773Z" fill="#1576FF"/>
<path d="M31.5002 21.3745C23.6855 21.3745 16.3199 20.2363 10.7606 18.1679C7.84072 17.0814 5.56682 15.7808 4.00781 14.335V24.1529C4.00781 26.4219 6.78252 28.7561 11.6195 30.5513C16.9105 32.5201 23.9709 33.6041 31.5002 33.6041C39.0294 33.6041 46.0898 32.525 51.3809 30.5562C56.2178 28.7561 58.9925 26.4219 58.9925 24.1578V14.335C57.4335 15.7808 55.1596 17.0814 52.2385 18.1679C46.6805 20.2363 39.3149 21.3745 31.5002 21.3745ZM44.062 27.0703C44.0461 27.1491 44.0227 27.2262 43.9919 27.3004C43.9613 27.3749 43.9234 27.4463 43.8787 27.5133C43.834 27.5804 43.7829 27.643 43.7261 27.7003C43.6689 27.7572 43.6063 27.8083 43.5391 27.8529C43.4718 27.8971 43.4005 27.935 43.3262 27.9661C43.2522 27.9974 43.175 28.0209 43.0961 28.0362C42.9374 28.069 42.7737 28.069 42.615 28.0362C42.5361 28.0209 42.459 27.9974 42.3849 27.9661C42.3106 27.935 42.2393 27.8971 42.172 27.8529C42.1048 27.8083 42.0422 27.7572 41.985 27.7003C41.9279 27.6434 41.8767 27.5807 41.8324 27.5133C41.7877 27.4463 41.7498 27.3749 41.7192 27.3004C41.6885 27.2262 41.665 27.1491 41.6491 27.0703C41.6163 26.912 41.6163 26.7487 41.6491 26.5904C41.665 26.5116 41.6885 26.4346 41.7192 26.3603C41.7498 26.2858 41.7877 26.2145 41.8324 26.1475C41.8767 26.0801 41.9279 26.0174 41.985 25.9604C42.0422 25.9036 42.1048 25.8525 42.172 25.8079C42.2393 25.7636 42.3106 25.7257 42.3849 25.6946C42.459 25.6633 42.5361 25.6398 42.615 25.6245C42.7738 25.5925 42.9373 25.5925 43.0961 25.6245C43.175 25.6398 43.2522 25.6633 43.3262 25.6946C43.4005 25.7257 43.4718 25.7636 43.5391 25.8079C43.7078 25.9196 43.846 26.0716 43.9414 26.2501C44.0368 26.4286 44.0862 26.628 44.0854 26.8304C44.0856 26.9109 44.0778 26.9913 44.062 27.0703ZM49.4121 25.7291C49.396 25.8078 49.3726 25.8849 49.342 25.9592C49.3111 26.0332 49.2732 26.1041 49.2288 26.1708C49.184 26.2383 49.1325 26.3009 49.075 26.3579C49.0182 26.4151 48.956 26.4666 48.8892 26.5117C48.8218 26.5559 48.7506 26.5938 48.6763 26.6249C48.527 26.6872 48.3668 26.719 48.205 26.7184C48.1245 26.7186 48.0441 26.7108 47.9651 26.695C47.8863 26.6791 47.8092 26.6556 47.735 26.6249C47.6606 26.594 47.5893 26.5561 47.5221 26.5117C47.3874 26.4217 47.272 26.3058 47.1825 26.1708C47.1381 26.1041 47.1001 26.0332 47.0693 25.9592C47.0387 25.8849 47.0152 25.8078 46.9992 25.7291C46.9827 25.6481 46.9745 25.5657 46.9745 25.483C46.9748 25.4024 46.983 25.322 46.9992 25.2431C47.015 25.1643 47.0385 25.0872 47.0693 25.013C47.1001 24.9386 47.138 24.8673 47.1825 24.8001C47.2716 24.6651 47.3871 24.5496 47.5221 24.4605C47.5893 24.416 47.6606 24.3781 47.735 24.3473C47.8092 24.3165 47.8863 24.293 47.9651 24.2771C48.1239 24.2452 48.2874 24.2452 48.4462 24.2771C48.525 24.293 48.602 24.3165 48.6763 24.3473C48.7506 24.3784 48.8218 24.4163 48.8892 24.4605C48.9559 24.5052 49.0182 24.5563 49.075 24.6131C49.1325 24.67 49.184 24.7327 49.2288 24.8001C49.2735 24.8671 49.3114 24.9384 49.342 25.013C49.3727 25.0872 49.3962 25.1643 49.4121 25.2431C49.4279 25.3221 49.4357 25.4025 49.4355 25.483C49.436 25.5656 49.4282 25.6481 49.4121 25.7291ZM52.3431 23.9117C52.3747 23.7539 52.437 23.6038 52.5264 23.47C52.6138 23.3371 52.7262 23.2226 52.8574 23.1328C52.9244 23.0881 52.9958 23.0502 53.0703 23.0196C53.1445 22.9888 53.2216 22.9654 53.3004 22.9495C53.4592 22.9175 53.6227 22.9175 53.7815 22.9495C53.8602 22.9657 53.9372 22.9892 54.0116 23.0196C54.0856 23.0505 54.1565 23.0884 54.2232 23.1328C54.2907 23.1776 54.3533 23.2291 54.4103 23.2866C54.5246 23.4007 54.6153 23.5362 54.6773 23.6853C54.708 23.7595 54.7315 23.8366 54.7474 23.9154C54.7635 23.9964 54.7713 24.0789 54.7708 24.1615C54.7701 24.4877 54.6405 24.8003 54.4103 25.0314C54.3533 25.0886 54.2906 25.1397 54.2232 25.184C54.1565 25.2284 54.0856 25.2664 54.0116 25.2972C53.9372 25.3276 53.8602 25.3511 53.7815 25.3673C53.7005 25.3838 53.6181 25.392 53.5354 25.392C53.4548 25.3917 53.3744 25.3835 53.2955 25.3673C53.2167 25.3515 53.1396 25.328 53.0654 25.2972C52.9908 25.2666 52.9195 25.2287 52.8525 25.184C52.7851 25.1397 52.7224 25.0886 52.6655 25.0314C52.6086 24.9742 52.5575 24.9116 52.5129 24.8444C52.4687 24.7771 52.4308 24.7058 52.3997 24.6315C52.3689 24.5573 52.3454 24.4802 52.3295 24.4014C52.313 24.3204 52.3047 24.238 52.3049 24.1553C52.3074 24.0733 52.3182 23.9916 52.3369 23.9117H52.3431Z" fill="#1576FF"/>
<path d="M11.6195 15.8607C16.9105 17.8295 23.9709 18.9135 31.5002 18.9135C39.0294 18.9135 46.0898 17.8295 51.3809 15.8607C56.2178 14.0606 58.9925 11.7276 58.9925 9.46231C58.9925 7.19701 56.2178 4.85789 51.3809 3.06387C46.0898 1.08404 39.0294 0 31.5002 0C23.9709 0 16.9105 1.08404 11.6195 3.05279C6.78252 4.85297 4.00781 7.18717 4.00781 9.45738C4.00781 11.7276 6.78252 14.0606 11.6195 15.8607Z" fill="#1576FF"/>
</mask>
<g mask="url(#mask0_54_27707)">
<rect x="31" y="-2" width="31" height="71" fill="#C65589"/>
</g>
</svg>
