<svg width="63" height="63" viewBox="0 0 63 63" fill="none" xmlns="http://www.w3.org/2000/svg">
<g clip-path="url(#clip0_54_27688)">
<path d="M7.875 35.4375C7.875 32.1812 10.5249 29.5312 13.7812 29.5312C17.0376 29.5312 19.6875 32.1812 19.6875 35.4375H23.625V28.9997C23.625 27.529 25.3181 26.5624 26.588 27.3007C27.8677 28.0448 29.5312 27.0762 29.5312 25.5938C29.5312 24.1644 27.846 23.1466 26.588 23.8868C25.3063 24.6409 23.625 23.6703 23.625 22.1878V11.8125H5.90625C2.64994 11.8125 0 14.4624 0 17.7188V35.4375H7.875Z" fill="#1576FF"/>
<path d="M23.625 55.125C20.3687 55.125 17.7188 52.4751 17.7188 49.2188C17.7188 45.9624 20.3687 43.3125 23.625 43.3125V39.375H17.1872C15.7185 39.375 14.7243 37.7173 15.4882 36.4101C16.2264 35.1501 15.2716 33.4688 13.7812 33.4688C12.3559 33.4688 11.34 35.1579 12.0743 36.4101C12.8303 37.6976 11.8657 39.375 10.3753 39.375H0V57.0938C0 60.3501 2.64994 63 5.90625 63H23.625V55.125Z" fill="#1576FF"/>
<path d="M43.3125 39.375C43.3125 42.6313 40.6626 45.2812 37.4062 45.2812C34.1499 45.2812 31.5 42.6313 31.5 39.375H27.5625V45.8128C27.5625 47.2874 25.8713 48.2541 24.5995 47.5118C23.3277 46.7696 21.6562 47.7343 21.6562 49.2188C21.6562 50.654 23.3395 51.6679 24.5995 50.9257C25.8753 50.1756 27.5625 51.158 27.5625 52.6247V63H45.2812C48.5376 63 51.1875 60.3501 51.1875 57.0938V39.375H43.3125ZM57.0938 0H37.4062C36.8841 0 36.3833 0.207421 36.0141 0.576634C35.6449 0.945846 35.4375 1.4466 35.4375 1.96875V10.3753C35.4375 11.8676 37.1149 12.8244 38.4024 12.0743C39.69 11.3203 41.3438 12.3145 41.3438 13.7812C41.3438 15.2184 39.6624 16.2323 38.4024 15.4882C37.1228 14.7341 35.4375 15.7205 35.4375 17.1872V25.5938C35.4375 26.1159 35.6449 26.6167 36.0141 26.9859C36.3833 27.3551 36.8841 27.5625 37.4062 27.5625H43.3125C43.3125 30.8188 45.9624 33.4688 49.2188 33.4688C52.4751 33.4688 55.125 30.8188 55.125 27.5625H61.0312C61.5534 27.5625 62.0542 27.3551 62.4234 26.9859C62.7926 26.6167 63 26.1159 63 25.5938V5.90625C63 2.64994 60.3501 0 57.0938 0Z" fill="#1576FF"/>
<mask id="mask0_54_27688" style="mask-type:alpha" maskUnits="userSpaceOnUse" x="0" y="0" width="63" height="63">
<path d="M7.875 35.4375C7.875 32.1812 10.5249 29.5312 13.7812 29.5312C17.0376 29.5312 19.6875 32.1812 19.6875 35.4375H23.625V28.9997C23.625 27.529 25.3181 26.5624 26.588 27.3007C27.8677 28.0448 29.5312 27.0762 29.5312 25.5938C29.5312 24.1644 27.846 23.1466 26.588 23.8868C25.3063 24.6409 23.625 23.6703 23.625 22.1878V11.8125H5.90625C2.64994 11.8125 0 14.4624 0 17.7188V35.4375H7.875Z" fill="#1576FF"/>
<path d="M23.625 55.125C20.3687 55.125 17.7188 52.4751 17.7188 49.2188C17.7188 45.9624 20.3687 43.3125 23.625 43.3125V39.375H17.1872C15.7185 39.375 14.7243 37.7173 15.4882 36.4101C16.2264 35.1501 15.2716 33.4688 13.7812 33.4688C12.3559 33.4688 11.34 35.1579 12.0743 36.4101C12.8303 37.6976 11.8657 39.375 10.3753 39.375H0V57.0938C0 60.3501 2.64994 63 5.90625 63H23.625V55.125Z" fill="#1576FF"/>
<path d="M43.3125 39.375C43.3125 42.6313 40.6626 45.2812 37.4062 45.2812C34.1499 45.2812 31.5 42.6313 31.5 39.375H27.5625V45.8128C27.5625 47.2874 25.8713 48.2541 24.5995 47.5118C23.3277 46.7696 21.6562 47.7343 21.6562 49.2188C21.6562 50.654 23.3395 51.6679 24.5995 50.9257C25.8753 50.1756 27.5625 51.158 27.5625 52.6247V63H45.2812C48.5376 63 51.1875 60.3501 51.1875 57.0938V39.375H43.3125ZM57.0938 0H37.4062C36.8841 0 36.3833 0.207421 36.0141 0.576634C35.6449 0.945846 35.4375 1.4466 35.4375 1.96875V10.3753C35.4375 11.8676 37.1149 12.8244 38.4024 12.0743C39.69 11.3203 41.3438 12.3145 41.3438 13.7812C41.3438 15.2184 39.6624 16.2323 38.4024 15.4882C37.1228 14.7341 35.4375 15.7205 35.4375 17.1872V25.5938C35.4375 26.1159 35.6449 26.6167 36.0141 26.9859C36.3833 27.3551 36.8841 27.5625 37.4062 27.5625H43.3125C43.3125 30.8188 45.9624 33.4688 49.2188 33.4688C52.4751 33.4688 55.125 30.8188 55.125 27.5625H61.0312C61.5534 27.5625 62.0542 27.3551 62.4234 26.9859C62.7926 26.6167 63 26.1159 63 25.5938V5.90625C63 2.64994 60.3501 0 57.0938 0Z" fill="#1576FF"/>
</mask>
<g mask="url(#mask0_54_27688)">
<rect x="24" width="41" height="65" fill="#C65589"/>
</g>
</g>
<defs>
<clipPath id="clip0_54_27688">
<rect width="63" height="63" fill="white"/>
</clipPath>
</defs>
</svg>
