<svg width="53" height="53" viewBox="0 0 53 53" fill="none" xmlns="http://www.w3.org/2000/svg">
<path d="M40.7455 52.2609H10.9735C9.58272 52.2609 8.44478 51.1229 8.44478 49.7321V32.5871C8.44478 31.1963 9.58272 30.0583 10.9735 30.0583H40.7455C42.1363 30.0583 43.2743 31.1963 43.2743 32.5871V49.7321C43.2743 51.1229 42.1363 52.2609 40.7455 52.2609ZM10.9735 31.7442C10.5099 31.7442 10.1306 32.1235 10.1306 32.5871V49.7321C10.1306 50.1957 10.5099 50.575 10.9735 50.575H40.7455C41.2091 50.575 41.5884 50.1957 41.5884 49.7321V32.5871C41.5884 32.1235 41.2091 31.7442 40.7455 31.7442H10.9735ZM4.84551 30.4292H4.6685C4.33666 30.4076 4.01238 30.3204 3.71436 30.1729C3.41635 30.0253 3.15048 29.8202 2.93208 29.5695L0.622479 26.9227C0.175731 26.4169 -0.043428 25.7595 0.00714725 25.0851C0.0492933 24.4108 0.361174 23.7954 0.866926 23.3487L26.8963 0.623563C27.1463 0.40507 27.4369 0.238046 27.7515 0.132058C28.0661 0.0260706 28.3986 -0.0167975 28.7298 0.00591027C29.061 0.028618 29.3845 0.116455 29.6817 0.264389C29.9789 0.412324 30.2441 0.617448 30.4619 0.86801L32.7799 3.51478C33.2266 4.02053 33.4458 4.67801 33.3952 5.35235C33.3531 6.02668 33.0412 6.64201 32.5354 7.08876L6.50606 29.8139C6.04246 30.2185 5.46084 30.4377 4.84551 30.4377V30.4292ZM28.5569 1.68564C28.3518 1.68516 28.1538 1.76017 28.0005 1.89637L1.97958 24.6131C1.811 24.7648 1.70985 24.9671 1.69299 25.1947C1.67613 25.4223 1.75199 25.633 1.89529 25.81L4.20489 28.4568C4.35662 28.6254 4.55892 28.7265 4.78651 28.7434C5.01409 28.7602 5.22482 28.6844 5.39341 28.5411L31.4228 5.81595C31.5905 5.66703 31.6932 5.45837 31.7089 5.23466C31.7247 5.01095 31.6522 4.78996 31.5071 4.61901L29.1891 1.97224C29.1103 1.88198 29.0132 1.80969 28.9041 1.76024C28.795 1.7108 28.6766 1.68536 28.5569 1.68564Z" fill="black"/>
<path d="M40.7455 52.2609H10.9735C9.58272 52.2609 8.44478 51.1229 8.44478 49.7321V32.5871C8.44478 31.1963 9.58272 30.0583 10.9735 30.0583H40.7455C42.1363 30.0583 43.2743 31.1963 43.2743 32.5871V49.7321C43.2743 51.1229 42.1363 52.2609 40.7455 52.2609ZM10.9735 31.7442C10.5099 31.7442 10.1306 32.1235 10.1306 32.5871V49.7321C10.1306 50.1957 10.5099 50.575 10.9735 50.575H40.7455C41.2091 50.575 41.5884 50.1957 41.5884 49.7321V32.5871C41.5884 32.1235 41.2091 31.7442 40.7455 31.7442H10.9735ZM4.84551 30.4292H4.6685C4.33666 30.4076 4.01238 30.3204 3.71436 30.1729C3.41635 30.0253 3.15048 29.8202 2.93208 29.5695L0.622479 26.9227C0.175731 26.4169 -0.043428 25.7595 0.00714725 25.0851C0.0492933 24.4108 0.361174 23.7954 0.866926 23.3487L26.8963 0.623563C27.1463 0.40507 27.4369 0.238046 27.7515 0.132058C28.0661 0.0260706 28.3986 -0.0167975 28.7298 0.00591027C29.061 0.028618 29.3845 0.116455 29.6817 0.264389C29.9789 0.412324 30.2441 0.617448 30.4619 0.86801L32.7799 3.51478C33.2266 4.02053 33.4458 4.67801 33.3952 5.35235C33.3531 6.02668 33.0412 6.64201 32.5354 7.08876L6.50606 29.8139C6.04246 30.2185 5.46084 30.4377 4.84551 30.4377V30.4292ZM28.5569 1.68564C28.3518 1.68516 28.1538 1.76017 28.0005 1.89637L1.97958 24.6131C1.811 24.7648 1.70985 24.9671 1.69299 25.1947C1.67613 25.4223 1.75199 25.633 1.89529 25.81L4.20489 28.4568C4.35662 28.6254 4.55892 28.7265 4.78651 28.7434C5.01409 28.7602 5.22482 28.6844 5.39341 28.5411L31.4228 5.81595C31.5905 5.66703 31.6932 5.45837 31.7089 5.23466C31.7247 5.01095 31.6522 4.78996 31.5071 4.61901L29.1891 1.97224C29.1103 1.88198 29.0132 1.80969 28.9041 1.76024C28.795 1.7108 28.6766 1.68536 28.5569 1.68564Z" fill="url(#paint0_linear_4_4914)"/>
<path d="M40.7455 52.2609H10.9735C9.58272 52.2609 8.44478 51.1229 8.44478 49.7321V32.5871C8.44478 31.1963 9.58272 30.0583 10.9735 30.0583H40.7455C42.1363 30.0583 43.2743 31.1963 43.2743 32.5871V49.7321C43.2743 51.1229 42.1363 52.2609 40.7455 52.2609ZM10.9735 31.7442C10.5099 31.7442 10.1306 32.1235 10.1306 32.5871V49.7321C10.1306 50.1957 10.5099 50.575 10.9735 50.575H40.7455C41.2091 50.575 41.5884 50.1957 41.5884 49.7321V32.5871C41.5884 32.1235 41.2091 31.7442 40.7455 31.7442H10.9735ZM4.84551 30.4292H4.6685C4.33666 30.4076 4.01238 30.3204 3.71436 30.1729C3.41635 30.0253 3.15048 29.8202 2.93208 29.5695L0.622479 26.9227C0.175731 26.4169 -0.043428 25.7595 0.00714725 25.0851C0.0492933 24.4108 0.361174 23.7954 0.866926 23.3487L26.8963 0.623563C27.1463 0.40507 27.4369 0.238046 27.7515 0.132058C28.0661 0.0260706 28.3986 -0.0167975 28.7298 0.00591027C29.061 0.028618 29.3845 0.116455 29.6817 0.264389C29.9789 0.412324 30.2441 0.617448 30.4619 0.86801L32.7799 3.51478C33.2266 4.02053 33.4458 4.67801 33.3952 5.35235C33.3531 6.02668 33.0412 6.64201 32.5354 7.08876L6.50606 29.8139C6.04246 30.2185 5.46084 30.4377 4.84551 30.4377V30.4292ZM28.5569 1.68564C28.3518 1.68516 28.1538 1.76017 28.0005 1.89637L1.97958 24.6131C1.811 24.7648 1.70985 24.9671 1.69299 25.1947C1.67613 25.4223 1.75199 25.633 1.89529 25.81L4.20489 28.4568C4.35662 28.6254 4.55892 28.7265 4.78651 28.7434C5.01409 28.7602 5.22482 28.6844 5.39341 28.5411L31.4228 5.81595C31.5905 5.66703 31.6932 5.45837 31.7089 5.23466C31.7247 5.01095 31.6522 4.78996 31.5071 4.61901L29.1891 1.97224C29.1103 1.88198 29.0132 1.80969 28.9041 1.76024C28.795 1.7108 28.6766 1.68536 28.5569 1.68564Z" fill="url(#paint1_linear_4_4914)"/>
<path d="M16.6973 20.6345C16.4613 20.6345 16.2253 20.5333 16.0651 20.3479L11.5302 15.1555C11.3869 14.9869 11.3111 14.7678 11.3195 14.5402C11.3363 14.321 11.4375 14.1103 11.6061 13.9586L16.1494 9.9884C16.233 9.91584 16.33 9.86046 16.435 9.82543C16.5399 9.79039 16.6508 9.77639 16.7611 9.78421C16.8715 9.79204 16.9793 9.82155 17.0783 9.87105C17.1772 9.92055 17.2655 9.98907 17.3379 10.0727L21.8728 15.2651C22.0161 15.4337 22.092 15.6528 22.0836 15.8804C22.0667 16.0996 21.9656 16.3103 21.797 16.462L17.2536 20.4322C17.0935 20.5755 16.8996 20.6429 16.6973 20.6429V20.6345ZM13.3593 14.6835L16.7816 18.603L20.0521 15.7455L16.6299 11.826L13.3593 14.6835ZM28.8691 52.2609H22.8422C22.3786 52.2609 21.9993 51.8815 21.9993 51.4179V30.9013C21.9993 30.4377 22.3786 30.0583 22.8422 30.0583H28.8691C29.3327 30.0583 29.712 30.4377 29.712 30.9013V51.4179C29.712 51.8815 29.3327 52.2609 28.8691 52.2609ZM23.6851 50.575H28.0262V31.7442H23.6851V50.575Z" fill="black"/>
<path d="M16.6973 20.6345C16.4613 20.6345 16.2253 20.5333 16.0651 20.3479L11.5302 15.1555C11.3869 14.9869 11.3111 14.7678 11.3195 14.5402C11.3363 14.321 11.4375 14.1103 11.6061 13.9586L16.1494 9.9884C16.233 9.91584 16.33 9.86046 16.435 9.82543C16.5399 9.79039 16.6508 9.77639 16.7611 9.78421C16.8715 9.79204 16.9793 9.82155 17.0783 9.87105C17.1772 9.92055 17.2655 9.98907 17.3379 10.0727L21.8728 15.2651C22.0161 15.4337 22.092 15.6528 22.0836 15.8804C22.0667 16.0996 21.9656 16.3103 21.797 16.462L17.2536 20.4322C17.0935 20.5755 16.8996 20.6429 16.6973 20.6429V20.6345ZM13.3593 14.6835L16.7816 18.603L20.0521 15.7455L16.6299 11.826L13.3593 14.6835ZM28.8691 52.2609H22.8422C22.3786 52.2609 21.9993 51.8815 21.9993 51.4179V30.9013C21.9993 30.4377 22.3786 30.0583 22.8422 30.0583H28.8691C29.3327 30.0583 29.712 30.4377 29.712 30.9013V51.4179C29.712 51.8815 29.3327 52.2609 28.8691 52.2609ZM23.6851 50.575H28.0262V31.7442H23.6851V50.575Z" fill="url(#paint2_linear_4_4914)"/>
<path d="M16.6973 20.6345C16.4613 20.6345 16.2253 20.5333 16.0651 20.3479L11.5302 15.1555C11.3869 14.9869 11.3111 14.7678 11.3195 14.5402C11.3363 14.321 11.4375 14.1103 11.6061 13.9586L16.1494 9.9884C16.233 9.91584 16.33 9.86046 16.435 9.82543C16.5399 9.79039 16.6508 9.77639 16.7611 9.78421C16.8715 9.79204 16.9793 9.82155 17.0783 9.87105C17.1772 9.92055 17.2655 9.98907 17.3379 10.0727L21.8728 15.2651C22.0161 15.4337 22.092 15.6528 22.0836 15.8804C22.0667 16.0996 21.9656 16.3103 21.797 16.462L17.2536 20.4322C17.0935 20.5755 16.8996 20.6429 16.6973 20.6429V20.6345ZM13.3593 14.6835L16.7816 18.603L20.0521 15.7455L16.6299 11.826L13.3593 14.6835ZM28.8691 52.2609H22.8422C22.3786 52.2609 21.9993 51.8815 21.9993 51.4179V30.9013C21.9993 30.4377 22.3786 30.0583 22.8422 30.0583H28.8691C29.3327 30.0583 29.712 30.4377 29.712 30.9013V51.4179C29.712 51.8815 29.3327 52.2609 28.8691 52.2609ZM23.6851 50.575H28.0262V31.7442H23.6851V50.575Z" fill="url(#paint3_linear_4_4914)"/>
<path d="M5.98301 16.8751C5.865 16.8751 5.75542 16.8751 5.65427 16.8666C3.22666 16.7065 1.96228 14.852 2.16458 11.7922C2.37531 8.73244 3.89257 7.06346 6.30332 7.23204C7.59299 7.31633 9.63286 7.96538 11.2766 8.8083C13.5524 9.97153 14.7072 11.3033 14.6229 12.6352C14.4291 15.5432 8.36005 16.8835 5.98301 16.8835V16.8751ZM5.94087 8.89259C5.27496 8.89259 4.02744 9.16233 3.84199 11.8934C3.63126 15.0291 5.23281 15.1386 5.76385 15.1724C7.96388 15.3156 12.8444 13.8574 12.9371 12.5087C12.9708 12.0451 12.2291 11.1769 10.5095 10.2918C8.89952 9.46578 7.07881 8.96003 6.19374 8.90102C6.12631 8.90102 6.04202 8.89259 5.94087 8.89259Z" fill="black"/>
<path d="M5.98301 16.8751C5.865 16.8751 5.75542 16.8751 5.65427 16.8666C3.22666 16.7065 1.96228 14.852 2.16458 11.7922C2.37531 8.73244 3.89257 7.06346 6.30332 7.23204C7.59299 7.31633 9.63286 7.96538 11.2766 8.8083C13.5524 9.97153 14.7072 11.3033 14.6229 12.6352C14.4291 15.5432 8.36005 16.8835 5.98301 16.8835V16.8751ZM5.94087 8.89259C5.27496 8.89259 4.02744 9.16233 3.84199 11.8934C3.63126 15.0291 5.23281 15.1386 5.76385 15.1724C7.96388 15.3156 12.8444 13.8574 12.9371 12.5087C12.9708 12.0451 12.2291 11.1769 10.5095 10.2918C8.89952 9.46578 7.07881 8.96003 6.19374 8.90102C6.12631 8.90102 6.04202 8.89259 5.94087 8.89259Z" fill="url(#paint4_linear_4_4914)"/>
<path d="M5.98301 16.8751C5.865 16.8751 5.75542 16.8751 5.65427 16.8666C3.22666 16.7065 1.96228 14.852 2.16458 11.7922C2.37531 8.73244 3.89257 7.06346 6.30332 7.23204C7.59299 7.31633 9.63286 7.96538 11.2766 8.8083C13.5524 9.97153 14.7072 11.3033 14.6229 12.6352C14.4291 15.5432 8.36005 16.8835 5.98301 16.8835V16.8751ZM5.94087 8.89259C5.27496 8.89259 4.02744 9.16233 3.84199 11.8934C3.63126 15.0291 5.23281 15.1386 5.76385 15.1724C7.96388 15.3156 12.8444 13.8574 12.9371 12.5087C12.9708 12.0451 12.2291 11.1769 10.5095 10.2918C8.89952 9.46578 7.07881 8.96003 6.19374 8.90102C6.12631 8.90102 6.04202 8.89259 5.94087 8.89259Z" fill="url(#paint5_linear_4_4914)"/>
<path d="M14.5725 12.8037H14.4292C13.089 12.711 11.9342 11.3876 11.0828 8.97689C10.4675 7.24047 10.1051 5.12474 10.1893 3.83507C10.3579 1.40746 12.2039 0.134654 15.2722 0.345384C18.332 0.556114 20.0009 2.06494 19.8324 4.48412C19.7481 5.77379 19.099 7.81366 18.2561 9.45735C17.135 11.6489 15.8622 12.8037 14.5725 12.8037ZM14.6147 2.00594C12.0101 2.00594 11.9089 3.44733 11.8752 3.94465C11.8162 4.83815 12.0775 6.701 12.676 8.41213C13.3166 10.2413 14.0752 11.0842 14.5388 11.1179C15.0361 11.1516 15.8706 10.4099 16.7557 8.6903C17.5818 7.08032 18.0875 5.25961 18.1465 4.37454C18.1802 3.8435 18.2898 2.24196 15.1541 2.03123C14.9603 2.01437 14.7833 2.01437 14.6062 2.01437L14.6147 2.00594ZM38.5705 18.3417C38.3429 18.3417 38.1153 18.2996 37.8877 18.2069C37.5708 18.0812 37.2955 17.8693 37.0929 17.5952C36.8903 17.3211 36.7685 16.9957 36.7413 16.6559L36.598 14.8352C36.598 14.793 36.5643 14.7509 36.5306 14.7256L34.9459 13.8153C34.339 13.4612 33.9934 12.8122 34.0356 12.1126C34.0777 11.4129 34.5076 10.8145 35.1566 10.5447L36.8425 9.8451C36.8425 9.8451 36.9184 9.79452 36.9268 9.74395L37.3061 7.95695C37.4494 7.27419 37.9636 6.74315 38.6379 6.56614C39.3207 6.38912 40.0203 6.61671 40.4755 7.14775C40.9307 7.67879 41.664 8.53857 41.664 8.53857C41.6977 8.57229 41.7399 8.58914 41.782 8.58914L43.5943 8.39527C43.9336 8.35995 44.276 8.42013 44.5829 8.56901C44.8898 8.7179 45.149 8.94957 45.3313 9.2379C45.5136 9.52624 45.6117 9.85977 45.6146 10.2009C45.6175 10.542 45.525 10.8771 45.3476 11.1685L44.3951 12.7279C44.3951 12.7279 44.3698 12.8122 44.3866 12.8543L45.1284 14.5233C45.415 15.1639 45.3138 15.8973 44.8671 16.4367C44.4203 16.9762 43.7123 17.2038 43.038 17.0436L41.2678 16.6222C41.2257 16.6053 41.1751 16.6222 41.1414 16.6559L39.7843 17.8781C39.4387 18.19 39.0088 18.3502 38.5705 18.3502V18.3417ZM39.1015 8.2014H39.0594C38.9751 8.22669 38.9582 8.28569 38.9582 8.31098L38.5789 10.098C38.4525 10.688 38.0479 11.1769 37.4915 11.4045L35.8057 12.1041C35.8057 12.1041 35.7214 12.1378 35.7214 12.2221C35.7214 12.3064 35.772 12.3401 35.7888 12.357L37.3651 13.2674C37.8877 13.5708 38.2249 14.1018 38.2755 14.7087L38.4187 16.5295C38.4187 16.5295 38.4187 16.6137 38.503 16.6475C38.5873 16.6812 38.6295 16.639 38.6463 16.6222L40.0034 15.3999C40.4502 14.9953 41.0655 14.8436 41.6471 14.9785L43.4173 15.3999C43.4173 15.3999 43.5016 15.4168 43.5606 15.3494C43.6196 15.2819 43.5858 15.2229 43.5774 15.2061L42.8357 13.5371C42.5912 12.9892 42.6334 12.357 42.9452 11.8428L43.8977 10.2834C43.8977 10.2834 43.9399 10.2076 43.8977 10.1317C43.8556 10.0558 43.7882 10.0643 43.7629 10.0643L41.9506 10.2581C41.3521 10.3171 40.7621 10.0895 40.3743 9.62594L39.1858 8.23512C39.1858 8.23512 39.1437 8.18454 39.0847 8.18454L39.1015 8.2014ZM48.146 29.5189C47.6909 29.5189 47.2526 29.325 46.9407 28.971L45.9882 27.892L44.6226 28.0859C44.0073 28.1618 43.4173 27.8836 43.0717 27.361C42.7345 26.8384 42.7176 26.1893 43.038 25.6499L43.7713 24.4108L43.1644 23.1717C42.9031 22.6069 42.9874 21.9579 43.3751 21.4774C43.7629 20.9969 44.3866 20.7778 44.9851 20.9126L46.3843 21.2245L47.379 20.2636C47.8342 19.8421 48.4748 19.7157 49.0564 19.9349C49.638 20.154 50.0342 20.6766 50.0932 21.292L50.2281 22.7249L51.4503 23.374C51.9898 23.6774 52.3101 24.2506 52.2764 24.8659C52.2426 25.4813 51.8718 26.0207 51.307 26.2736L49.992 26.8468L49.756 28.2039C49.6994 28.5003 49.5601 28.7747 49.3543 28.9954C49.1485 29.2161 48.8845 29.3742 48.5928 29.4514C48.4495 29.4936 48.3062 29.5104 48.1629 29.5104L48.146 29.5189ZM46.0387 26.2315C46.5024 26.2315 46.9407 26.4253 47.2526 26.7794L48.1123 27.7487L48.3652 26.4759C48.4664 25.9533 48.8204 25.515 49.3093 25.3043L50.4978 24.7901L49.3599 24.1579C48.8962 23.8966 48.5844 23.4245 48.5338 22.8935L48.4074 21.5533L47.4633 22.4805C47.0755 22.8429 46.5361 22.9862 46.0135 22.8766L44.7407 22.5901L45.2885 23.7701C45.5161 24.2506 45.4824 24.8154 45.2127 25.2705L44.5552 26.3916L45.8449 26.2399C45.9123 26.2399 45.9713 26.2315 46.0387 26.2315ZM31.0348 27.4874C30.7229 27.4874 30.4194 27.4031 30.1497 27.2261L28.9359 26.4338L27.6547 26.9901C27.0815 27.2261 26.4324 27.1165 25.9604 26.7119C25.7308 26.5128 25.5623 26.2528 25.4743 25.9619C25.3863 25.6711 25.3824 25.3612 25.4631 25.0682L25.8424 23.669L24.9152 22.6238C24.5106 22.1517 24.4094 21.5027 24.6623 20.9295C24.9067 20.3563 25.4462 19.9854 26.07 19.9517L27.5198 19.8759L28.2278 18.6705C28.5566 18.1394 29.1298 17.836 29.762 17.9034C30.3857 17.9624 30.9083 18.3586 31.1275 18.9402L31.6501 20.2973L33.0156 20.6008C33.6225 20.7441 34.0861 21.2161 34.221 21.823C34.3559 22.4299 34.1451 23.0537 33.6562 23.4414L32.5267 24.3518L32.6616 25.7426C32.7122 26.3663 32.4087 26.948 31.8693 27.2683C31.608 27.42 31.3214 27.4958 31.0348 27.4958V27.4874ZM28.9612 24.7564C29.2731 24.7564 29.5765 24.8407 29.8462 25.0177L30.9589 25.7426L30.8578 24.4192C30.8156 23.8882 31.0432 23.3655 31.4562 23.0284L32.4846 22.1939L31.1949 21.882C30.6723 21.7556 30.2508 21.3847 30.057 20.8874L29.5681 19.6061L28.8853 20.7778C28.6072 21.233 28.1183 21.5195 27.5872 21.5533L26.2638 21.6207L27.1236 22.6322C27.4692 23.0368 27.5956 23.5931 27.4608 24.1073L27.1152 25.3886L28.3458 24.8828C28.5482 24.7985 28.7589 24.7564 28.9696 24.7564H28.9612Z" fill="black"/>
<path d="M14.5725 12.8037H14.4292C13.089 12.711 11.9342 11.3876 11.0828 8.97689C10.4675 7.24047 10.1051 5.12474 10.1893 3.83507C10.3579 1.40746 12.2039 0.134654 15.2722 0.345384C18.332 0.556114 20.0009 2.06494 19.8324 4.48412C19.7481 5.77379 19.099 7.81366 18.2561 9.45735C17.135 11.6489 15.8622 12.8037 14.5725 12.8037ZM14.6147 2.00594C12.0101 2.00594 11.9089 3.44733 11.8752 3.94465C11.8162 4.83815 12.0775 6.701 12.676 8.41213C13.3166 10.2413 14.0752 11.0842 14.5388 11.1179C15.0361 11.1516 15.8706 10.4099 16.7557 8.6903C17.5818 7.08032 18.0875 5.25961 18.1465 4.37454C18.1802 3.8435 18.2898 2.24196 15.1541 2.03123C14.9603 2.01437 14.7833 2.01437 14.6062 2.01437L14.6147 2.00594ZM38.5705 18.3417C38.3429 18.3417 38.1153 18.2996 37.8877 18.2069C37.5708 18.0812 37.2955 17.8693 37.0929 17.5952C36.8903 17.3211 36.7685 16.9957 36.7413 16.6559L36.598 14.8352C36.598 14.793 36.5643 14.7509 36.5306 14.7256L34.9459 13.8153C34.339 13.4612 33.9934 12.8122 34.0356 12.1126C34.0777 11.4129 34.5076 10.8145 35.1566 10.5447L36.8425 9.8451C36.8425 9.8451 36.9184 9.79452 36.9268 9.74395L37.3061 7.95695C37.4494 7.27419 37.9636 6.74315 38.6379 6.56614C39.3207 6.38912 40.0203 6.61671 40.4755 7.14775C40.9307 7.67879 41.664 8.53857 41.664 8.53857C41.6977 8.57229 41.7399 8.58914 41.782 8.58914L43.5943 8.39527C43.9336 8.35995 44.276 8.42013 44.5829 8.56901C44.8898 8.7179 45.149 8.94957 45.3313 9.2379C45.5136 9.52624 45.6117 9.85977 45.6146 10.2009C45.6175 10.542 45.525 10.8771 45.3476 11.1685L44.3951 12.7279C44.3951 12.7279 44.3698 12.8122 44.3866 12.8543L45.1284 14.5233C45.415 15.1639 45.3138 15.8973 44.8671 16.4367C44.4203 16.9762 43.7123 17.2038 43.038 17.0436L41.2678 16.6222C41.2257 16.6053 41.1751 16.6222 41.1414 16.6559L39.7843 17.8781C39.4387 18.19 39.0088 18.3502 38.5705 18.3502V18.3417ZM39.1015 8.2014H39.0594C38.9751 8.22669 38.9582 8.28569 38.9582 8.31098L38.5789 10.098C38.4525 10.688 38.0479 11.1769 37.4915 11.4045L35.8057 12.1041C35.8057 12.1041 35.7214 12.1378 35.7214 12.2221C35.7214 12.3064 35.772 12.3401 35.7888 12.357L37.3651 13.2674C37.8877 13.5708 38.2249 14.1018 38.2755 14.7087L38.4187 16.5295C38.4187 16.5295 38.4187 16.6137 38.503 16.6475C38.5873 16.6812 38.6295 16.639 38.6463 16.6222L40.0034 15.3999C40.4502 14.9953 41.0655 14.8436 41.6471 14.9785L43.4173 15.3999C43.4173 15.3999 43.5016 15.4168 43.5606 15.3494C43.6196 15.2819 43.5858 15.2229 43.5774 15.2061L42.8357 13.5371C42.5912 12.9892 42.6334 12.357 42.9452 11.8428L43.8977 10.2834C43.8977 10.2834 43.9399 10.2076 43.8977 10.1317C43.8556 10.0558 43.7882 10.0643 43.7629 10.0643L41.9506 10.2581C41.3521 10.3171 40.7621 10.0895 40.3743 9.62594L39.1858 8.23512C39.1858 8.23512 39.1437 8.18454 39.0847 8.18454L39.1015 8.2014ZM48.146 29.5189C47.6909 29.5189 47.2526 29.325 46.9407 28.971L45.9882 27.892L44.6226 28.0859C44.0073 28.1618 43.4173 27.8836 43.0717 27.361C42.7345 26.8384 42.7176 26.1893 43.038 25.6499L43.7713 24.4108L43.1644 23.1717C42.9031 22.6069 42.9874 21.9579 43.3751 21.4774C43.7629 20.9969 44.3866 20.7778 44.9851 20.9126L46.3843 21.2245L47.379 20.2636C47.8342 19.8421 48.4748 19.7157 49.0564 19.9349C49.638 20.154 50.0342 20.6766 50.0932 21.292L50.2281 22.7249L51.4503 23.374C51.9898 23.6774 52.3101 24.2506 52.2764 24.8659C52.2426 25.4813 51.8718 26.0207 51.307 26.2736L49.992 26.8468L49.756 28.2039C49.6994 28.5003 49.5601 28.7747 49.3543 28.9954C49.1485 29.2161 48.8845 29.3742 48.5928 29.4514C48.4495 29.4936 48.3062 29.5104 48.1629 29.5104L48.146 29.5189ZM46.0387 26.2315C46.5024 26.2315 46.9407 26.4253 47.2526 26.7794L48.1123 27.7487L48.3652 26.4759C48.4664 25.9533 48.8204 25.515 49.3093 25.3043L50.4978 24.7901L49.3599 24.1579C48.8962 23.8966 48.5844 23.4245 48.5338 22.8935L48.4074 21.5533L47.4633 22.4805C47.0755 22.8429 46.5361 22.9862 46.0135 22.8766L44.7407 22.5901L45.2885 23.7701C45.5161 24.2506 45.4824 24.8154 45.2127 25.2705L44.5552 26.3916L45.8449 26.2399C45.9123 26.2399 45.9713 26.2315 46.0387 26.2315ZM31.0348 27.4874C30.7229 27.4874 30.4194 27.4031 30.1497 27.2261L28.9359 26.4338L27.6547 26.9901C27.0815 27.2261 26.4324 27.1165 25.9604 26.7119C25.7308 26.5128 25.5623 26.2528 25.4743 25.9619C25.3863 25.6711 25.3824 25.3612 25.4631 25.0682L25.8424 23.669L24.9152 22.6238C24.5106 22.1517 24.4094 21.5027 24.6623 20.9295C24.9067 20.3563 25.4462 19.9854 26.07 19.9517L27.5198 19.8759L28.2278 18.6705C28.5566 18.1394 29.1298 17.836 29.762 17.9034C30.3857 17.9624 30.9083 18.3586 31.1275 18.9402L31.6501 20.2973L33.0156 20.6008C33.6225 20.7441 34.0861 21.2161 34.221 21.823C34.3559 22.4299 34.1451 23.0537 33.6562 23.4414L32.5267 24.3518L32.6616 25.7426C32.7122 26.3663 32.4087 26.948 31.8693 27.2683C31.608 27.42 31.3214 27.4958 31.0348 27.4958V27.4874ZM28.9612 24.7564C29.2731 24.7564 29.5765 24.8407 29.8462 25.0177L30.9589 25.7426L30.8578 24.4192C30.8156 23.8882 31.0432 23.3655 31.4562 23.0284L32.4846 22.1939L31.1949 21.882C30.6723 21.7556 30.2508 21.3847 30.057 20.8874L29.5681 19.6061L28.8853 20.7778C28.6072 21.233 28.1183 21.5195 27.5872 21.5533L26.2638 21.6207L27.1236 22.6322C27.4692 23.0368 27.5956 23.5931 27.4608 24.1073L27.1152 25.3886L28.3458 24.8828C28.5482 24.7985 28.7589 24.7564 28.9696 24.7564H28.9612Z" fill="url(#paint6_linear_4_4914)"/>
<path d="M14.5725 12.8037H14.4292C13.089 12.711 11.9342 11.3876 11.0828 8.97689C10.4675 7.24047 10.1051 5.12474 10.1893 3.83507C10.3579 1.40746 12.2039 0.134654 15.2722 0.345384C18.332 0.556114 20.0009 2.06494 19.8324 4.48412C19.7481 5.77379 19.099 7.81366 18.2561 9.45735C17.135 11.6489 15.8622 12.8037 14.5725 12.8037ZM14.6147 2.00594C12.0101 2.00594 11.9089 3.44733 11.8752 3.94465C11.8162 4.83815 12.0775 6.701 12.676 8.41213C13.3166 10.2413 14.0752 11.0842 14.5388 11.1179C15.0361 11.1516 15.8706 10.4099 16.7557 8.6903C17.5818 7.08032 18.0875 5.25961 18.1465 4.37454C18.1802 3.8435 18.2898 2.24196 15.1541 2.03123C14.9603 2.01437 14.7833 2.01437 14.6062 2.01437L14.6147 2.00594ZM38.5705 18.3417C38.3429 18.3417 38.1153 18.2996 37.8877 18.2069C37.5708 18.0812 37.2955 17.8693 37.0929 17.5952C36.8903 17.3211 36.7685 16.9957 36.7413 16.6559L36.598 14.8352C36.598 14.793 36.5643 14.7509 36.5306 14.7256L34.9459 13.8153C34.339 13.4612 33.9934 12.8122 34.0356 12.1126C34.0777 11.4129 34.5076 10.8145 35.1566 10.5447L36.8425 9.8451C36.8425 9.8451 36.9184 9.79452 36.9268 9.74395L37.3061 7.95695C37.4494 7.27419 37.9636 6.74315 38.6379 6.56614C39.3207 6.38912 40.0203 6.61671 40.4755 7.14775C40.9307 7.67879 41.664 8.53857 41.664 8.53857C41.6977 8.57229 41.7399 8.58914 41.782 8.58914L43.5943 8.39527C43.9336 8.35995 44.276 8.42013 44.5829 8.56901C44.8898 8.7179 45.149 8.94957 45.3313 9.2379C45.5136 9.52624 45.6117 9.85977 45.6146 10.2009C45.6175 10.542 45.525 10.8771 45.3476 11.1685L44.3951 12.7279C44.3951 12.7279 44.3698 12.8122 44.3866 12.8543L45.1284 14.5233C45.415 15.1639 45.3138 15.8973 44.8671 16.4367C44.4203 16.9762 43.7123 17.2038 43.038 17.0436L41.2678 16.6222C41.2257 16.6053 41.1751 16.6222 41.1414 16.6559L39.7843 17.8781C39.4387 18.19 39.0088 18.3502 38.5705 18.3502V18.3417ZM39.1015 8.2014H39.0594C38.9751 8.22669 38.9582 8.28569 38.9582 8.31098L38.5789 10.098C38.4525 10.688 38.0479 11.1769 37.4915 11.4045L35.8057 12.1041C35.8057 12.1041 35.7214 12.1378 35.7214 12.2221C35.7214 12.3064 35.772 12.3401 35.7888 12.357L37.3651 13.2674C37.8877 13.5708 38.2249 14.1018 38.2755 14.7087L38.4187 16.5295C38.4187 16.5295 38.4187 16.6137 38.503 16.6475C38.5873 16.6812 38.6295 16.639 38.6463 16.6222L40.0034 15.3999C40.4502 14.9953 41.0655 14.8436 41.6471 14.9785L43.4173 15.3999C43.4173 15.3999 43.5016 15.4168 43.5606 15.3494C43.6196 15.2819 43.5858 15.2229 43.5774 15.2061L42.8357 13.5371C42.5912 12.9892 42.6334 12.357 42.9452 11.8428L43.8977 10.2834C43.8977 10.2834 43.9399 10.2076 43.8977 10.1317C43.8556 10.0558 43.7882 10.0643 43.7629 10.0643L41.9506 10.2581C41.3521 10.3171 40.7621 10.0895 40.3743 9.62594L39.1858 8.23512C39.1858 8.23512 39.1437 8.18454 39.0847 8.18454L39.1015 8.2014ZM48.146 29.5189C47.6909 29.5189 47.2526 29.325 46.9407 28.971L45.9882 27.892L44.6226 28.0859C44.0073 28.1618 43.4173 27.8836 43.0717 27.361C42.7345 26.8384 42.7176 26.1893 43.038 25.6499L43.7713 24.4108L43.1644 23.1717C42.9031 22.6069 42.9874 21.9579 43.3751 21.4774C43.7629 20.9969 44.3866 20.7778 44.9851 20.9126L46.3843 21.2245L47.379 20.2636C47.8342 19.8421 48.4748 19.7157 49.0564 19.9349C49.638 20.154 50.0342 20.6766 50.0932 21.292L50.2281 22.7249L51.4503 23.374C51.9898 23.6774 52.3101 24.2506 52.2764 24.8659C52.2426 25.4813 51.8718 26.0207 51.307 26.2736L49.992 26.8468L49.756 28.2039C49.6994 28.5003 49.5601 28.7747 49.3543 28.9954C49.1485 29.2161 48.8845 29.3742 48.5928 29.4514C48.4495 29.4936 48.3062 29.5104 48.1629 29.5104L48.146 29.5189ZM46.0387 26.2315C46.5024 26.2315 46.9407 26.4253 47.2526 26.7794L48.1123 27.7487L48.3652 26.4759C48.4664 25.9533 48.8204 25.515 49.3093 25.3043L50.4978 24.7901L49.3599 24.1579C48.8962 23.8966 48.5844 23.4245 48.5338 22.8935L48.4074 21.5533L47.4633 22.4805C47.0755 22.8429 46.5361 22.9862 46.0135 22.8766L44.7407 22.5901L45.2885 23.7701C45.5161 24.2506 45.4824 24.8154 45.2127 25.2705L44.5552 26.3916L45.8449 26.2399C45.9123 26.2399 45.9713 26.2315 46.0387 26.2315ZM31.0348 27.4874C30.7229 27.4874 30.4194 27.4031 30.1497 27.2261L28.9359 26.4338L27.6547 26.9901C27.0815 27.2261 26.4324 27.1165 25.9604 26.7119C25.7308 26.5128 25.5623 26.2528 25.4743 25.9619C25.3863 25.6711 25.3824 25.3612 25.4631 25.0682L25.8424 23.669L24.9152 22.6238C24.5106 22.1517 24.4094 21.5027 24.6623 20.9295C24.9067 20.3563 25.4462 19.9854 26.07 19.9517L27.5198 19.8759L28.2278 18.6705C28.5566 18.1394 29.1298 17.836 29.762 17.9034C30.3857 17.9624 30.9083 18.3586 31.1275 18.9402L31.6501 20.2973L33.0156 20.6008C33.6225 20.7441 34.0861 21.2161 34.221 21.823C34.3559 22.4299 34.1451 23.0537 33.6562 23.4414L32.5267 24.3518L32.6616 25.7426C32.7122 26.3663 32.4087 26.948 31.8693 27.2683C31.608 27.42 31.3214 27.4958 31.0348 27.4958V27.4874ZM28.9612 24.7564C29.2731 24.7564 29.5765 24.8407 29.8462 25.0177L30.9589 25.7426L30.8578 24.4192C30.8156 23.8882 31.0432 23.3655 31.4562 23.0284L32.4846 22.1939L31.1949 21.882C30.6723 21.7556 30.2508 21.3847 30.057 20.8874L29.5681 19.6061L28.8853 20.7778C28.6072 21.233 28.1183 21.5195 27.5872 21.5533L26.2638 21.6207L27.1236 22.6322C27.4692 23.0368 27.5956 23.5931 27.4608 24.1073L27.1152 25.3886L28.3458 24.8828C28.5482 24.7985 28.7589 24.7564 28.9696 24.7564H28.9612Z" fill="url(#paint7_linear_4_4914)"/>
<defs>
<linearGradient id="paint0_linear_4_4914" x1="0" y1="0" x2="51.3441" y2="42.5152" gradientUnits="userSpaceOnUse">
<stop stop-color="#4B28A9"/>
<stop offset="1" stop-color="#C655AE"/>
</linearGradient>
<linearGradient id="paint1_linear_4_4914" x1="0" y1="0" x2="51.3441" y2="42.5152" gradientUnits="userSpaceOnUse">
<stop stop-color="#2274E9"/>
<stop offset="1" stop-color="#0D366D"/>
</linearGradient>
<linearGradient id="paint2_linear_4_4914" x1="11.3188" y1="9.7821" x2="42.2972" y2="23.1956" gradientUnits="userSpaceOnUse">
<stop stop-color="#4B28A9"/>
<stop offset="1" stop-color="#C655AE"/>
</linearGradient>
<linearGradient id="paint3_linear_4_4914" x1="11.3188" y1="9.7821" x2="42.2972" y2="23.1956" gradientUnits="userSpaceOnUse">
<stop stop-color="#2274E9"/>
<stop offset="1" stop-color="#0D366D"/>
</linearGradient>
<linearGradient id="paint4_linear_4_4914" x1="2.14355" y1="7.2204" x2="11.4982" y2="19.3056" gradientUnits="userSpaceOnUse">
<stop stop-color="#4B28A9"/>
<stop offset="1" stop-color="#C655AE"/>
</linearGradient>
<linearGradient id="paint5_linear_4_4914" x1="2.14355" y1="7.2204" x2="11.4982" y2="19.3056" gradientUnits="userSpaceOnUse">
<stop stop-color="#2274E9"/>
<stop offset="1" stop-color="#0D366D"/>
</linearGradient>
<linearGradient id="paint6_linear_4_4914" x1="10.1772" y1="0.322815" x2="37.5208" y2="39.753" gradientUnits="userSpaceOnUse">
<stop stop-color="#4B28A9"/>
<stop offset="1" stop-color="#C655AE"/>
</linearGradient>
<linearGradient id="paint7_linear_4_4914" x1="10.1772" y1="0.322815" x2="37.5208" y2="39.753" gradientUnits="userSpaceOnUse">
<stop stop-color="#2274E9"/>
<stop offset="1" stop-color="#0D366D"/>
</linearGradient>
</defs>
</svg>
