<svg width="63" height="63" viewBox="0 0 63 63" fill="none" xmlns="http://www.w3.org/2000/svg">
<path fill-rule="evenodd" clip-rule="evenodd" d="M45.498 38.9715L52.1455 50.4854L54.4157 48.2152L52.2674 43.3781C54.0786 40.6804 55.3787 37.6111 56.0274 34.3078L60.9633 32.4078V26.5191L56.0286 24.6197C55.3797 21.3158 54.0799 18.2453 52.2682 15.5473L54.4157 10.7117L50.2517 6.54782L45.4146 8.69609C42.7169 6.88509 39.6476 5.58497 36.3443 4.93615L34.4442 0H28.5556L26.6556 4.9359C23.3522 5.58473 20.2829 6.88484 17.5852 8.69585L12.7482 6.54757L8.58419 10.7116L10.7322 15.5483C8.92085 18.2459 7.62086 21.3157 6.97215 24.6192L2.03662 26.5189V32.4077L6.97142 34.3072C7.62049 37.611 8.92011 40.6816 10.7319 43.3796L8.58419 48.2152L10.8544 50.4854L17.5019 38.9715C15.6574 36.2615 14.579 32.9885 14.579 29.4633C14.579 20.1183 22.1549 12.5424 31.4999 12.5424C40.845 12.5424 48.4209 20.1183 48.4209 29.4633C48.4209 32.9885 47.3425 36.2615 45.498 38.9715ZM35.2886 27.6949L51.8833 56.4378C52.6755 57.8099 52.6755 59.4405 51.8833 60.8126C51.0911 62.1847 49.679 63 48.0947 63H14.9052C13.3209 63 11.9088 62.1846 11.1166 60.8126C10.3244 59.4406 10.3244 57.8099 11.1166 56.4378L27.7113 27.6949C28.5035 26.3229 29.9156 25.5076 31.4999 25.5076C33.0842 25.5076 34.4964 26.3229 35.2886 27.6949ZM31.4999 54.4001C30.295 54.4001 29.318 55.377 29.318 56.5821C29.318 57.7872 30.2948 58.7641 31.4999 58.7641C32.7051 58.7641 33.6819 57.7872 33.6819 56.5821C33.6819 55.377 32.7049 54.4001 31.4999 54.4001ZM31.5001 50.5052C30.5835 50.5052 29.8309 49.7795 29.7978 48.8635L29.3673 36.9411C29.35 36.4616 29.5104 36.0426 29.8435 35.6973C30.1766 35.3519 30.5895 35.1765 31.0693 35.1765H31.9304C32.4102 35.1765 32.8232 35.352 33.1563 35.6973C33.4894 36.0426 33.6497 36.4616 33.6325 36.9411L33.2019 48.8635C33.169 49.7794 32.4165 50.5052 31.5001 50.5052Z" fill="#1576FF"/>
<mask id="mask0_54_24750" style="mask-type:alpha" maskUnits="userSpaceOnUse" x="2" y="0" width="59" height="63">
<path fill-rule="evenodd" clip-rule="evenodd" d="M45.498 38.9715L52.1455 50.4854L54.4157 48.2152L52.2674 43.3781C54.0786 40.6804 55.3787 37.6111 56.0274 34.3078L60.9633 32.4078V26.5191L56.0286 24.6197C55.3797 21.3158 54.0799 18.2453 52.2682 15.5473L54.4157 10.7117L50.2517 6.54782L45.4146 8.69609C42.7169 6.88509 39.6476 5.58497 36.3443 4.93615L34.4442 0H28.5556L26.6556 4.9359C23.3522 5.58473 20.2829 6.88484 17.5852 8.69585L12.7482 6.54757L8.58419 10.7116L10.7322 15.5483C8.92085 18.2459 7.62086 21.3157 6.97215 24.6192L2.03662 26.5189V32.4077L6.97142 34.3072C7.62049 37.611 8.92011 40.6816 10.7319 43.3796L8.58419 48.2152L10.8544 50.4854L17.5019 38.9715C15.6574 36.2615 14.579 32.9885 14.579 29.4633C14.579 20.1183 22.1549 12.5424 31.4999 12.5424C40.845 12.5424 48.4209 20.1183 48.4209 29.4633C48.4209 32.9885 47.3425 36.2615 45.498 38.9715ZM35.2886 27.6949L51.8833 56.4378C52.6755 57.8099 52.6755 59.4405 51.8833 60.8126C51.0911 62.1847 49.679 63 48.0947 63H14.9052C13.3209 63 11.9088 62.1846 11.1166 60.8126C10.3244 59.4406 10.3244 57.8099 11.1166 56.4378L27.7113 27.6949C28.5035 26.3229 29.9156 25.5076 31.4999 25.5076C33.0842 25.5076 34.4964 26.3229 35.2886 27.6949ZM31.4999 54.4001C30.295 54.4001 29.318 55.377 29.318 56.5821C29.318 57.7872 30.2948 58.7641 31.4999 58.7641C32.7051 58.7641 33.6819 57.7872 33.6819 56.5821C33.6819 55.377 32.7049 54.4001 31.4999 54.4001ZM31.5001 50.5052C30.5835 50.5052 29.8309 49.7795 29.7978 48.8635L29.3673 36.9411C29.35 36.4616 29.5104 36.0426 29.8435 35.6973C30.1766 35.3519 30.5895 35.1765 31.0693 35.1765H31.9304C32.4102 35.1765 32.8232 35.352 33.1563 35.6973C33.4894 36.0426 33.6497 36.4616 33.6325 36.9411L33.2019 48.8635C33.169 49.7794 32.4165 50.5052 31.5001 50.5052Z" fill="#1576FF"/>
</mask>
<g mask="url(#mask0_54_24750)">
<rect x="32" y="-4" width="36" height="72" fill="#C65589"/>
</g>
</svg>
