<svg width="21" height="19" viewBox="0 0 21 19" fill="none" xmlns="http://www.w3.org/2000/svg">
<path d="M8.23979 12.2834L7.89241 17.1694C8.38941 17.1694 8.60466 16.9559 8.86279 16.6995L11.1929 14.4726L16.0212 18.0085C16.9067 18.502 17.5305 18.2421 17.7694 17.1939L20.9387 2.34336L20.9395 2.34249C21.2204 1.03349 20.4662 0.521614 19.6034 0.842739L0.974661 7.97486C-0.296713 8.46836 -0.277464 9.17711 0.758536 9.49824L5.52116 10.9796L16.5838 4.05749C17.1044 3.71274 17.5778 3.90349 17.1884 4.24824L8.23979 12.2834Z" fill="#C655AE"/>
<path d="M8.23979 12.2834L7.89241 17.1694C8.38941 17.1694 8.60466 16.9559 8.86279 16.6995L11.1929 14.4726L16.0212 18.0085C16.9067 18.502 17.5305 18.2421 17.7694 17.1939L20.9387 2.34336L20.9395 2.34249C21.2204 1.03349 20.4662 0.521614 19.6034 0.842739L0.974661 7.97486C-0.296713 8.46836 -0.277464 9.17711 0.758536 9.49824L5.52116 10.9796L16.5838 4.05749C17.1044 3.71274 17.5778 3.90349 17.1884 4.24824L8.23979 12.2834Z" fill="url(#paint0_linear_2_3302)"/>
<path d="M8.23979 12.2834L7.89241 17.1694C8.38941 17.1694 8.60466 16.9559 8.86279 16.6995L11.1929 14.4726L16.0212 18.0085C16.9067 18.502 17.5305 18.2421 17.7694 17.1939L20.9387 2.34336L20.9395 2.34249C21.2204 1.03349 20.4662 0.521614 19.6034 0.842739L0.974661 7.97486C-0.296713 8.46836 -0.277464 9.17711 0.758536 9.49824L5.52116 10.9796L16.5838 4.05749C17.1044 3.71274 17.5778 3.90349 17.1884 4.24824L8.23979 12.2834Z" fill="url(#paint1_linear_2_3302)"/>
<defs>
<linearGradient id="paint0_linear_2_3302" x1="-0.000244141" y1="0.749634" x2="15.5019" y2="9.98116" gradientUnits="userSpaceOnUse">
<stop stop-color="#4B28A9"/>
<stop offset="0.952114" stop-color="#C655AE"/>
</linearGradient>
<linearGradient id="paint1_linear_2_3302" x1="-0.000244141" y1="0.749634" x2="16.3846" y2="19.2565" gradientUnits="userSpaceOnUse">
<stop stop-color="#2272E4"/>
<stop offset="0.572848" stop-color="#13325E"/>
<stop offset="1" stop-color="#010204"/>
</linearGradient>
</defs>
</svg>
