<svg width="63" height="63" viewBox="0 0 63 63" fill="none" xmlns="http://www.w3.org/2000/svg">
<path fill-rule="evenodd" clip-rule="evenodd" d="M57.204 16.8026C57.169 17.3084 56.9405 17.7813 56.5659 18.123C56.1914 18.4647 55.6995 18.649 55.1926 18.6375C54.6858 18.626 54.2028 18.4197 53.8441 18.0613C53.4854 17.703 53.2785 17.2202 53.2665 16.7134L53.3741 11.9726L48.636 11.865C48.1302 11.83 47.6573 11.6015 47.3156 11.2269C46.9739 10.8524 46.7896 10.3605 46.8011 9.85364C46.8126 9.34675 47.019 8.86377 47.3773 8.50507C47.7356 8.14636 48.2184 7.93951 48.7253 7.92749L55.4348 8.08237C55.6931 8.08782 55.9478 8.1442 56.1843 8.24828C56.4208 8.35236 56.6344 8.50209 56.8129 8.68889C56.9914 8.87569 57.1313 9.09588 57.2245 9.33685C57.3178 9.57781 57.3625 9.83481 57.3563 10.0931L57.204 16.8026ZM15.2959 24.5332V56.4034C15.2959 58.2356 13.8128 59.7187 11.9805 59.7187H6.59663C6.16115 59.7191 5.72987 59.6336 5.32748 59.4671C4.92508 59.3006 4.55946 59.0564 4.25153 58.7485C3.9436 58.4405 3.69941 58.0749 3.53292 57.6725C3.36642 57.2701 3.28091 56.8388 3.28125 56.4034V24.5332C3.28125 22.7036 4.76438 21.2179 6.59663 21.2179H11.9805C13.8128 21.2179 15.2959 22.7036 15.2959 24.5332ZM44.9111 40.6875V56.4034C44.9115 56.8388 44.826 57.2701 44.6595 57.6725C44.493 58.0749 44.2488 58.4405 43.9408 58.7485C43.6329 59.0564 43.2673 59.3006 42.8649 59.4671C42.4625 59.6336 42.0312 59.7191 41.5958 59.7187H36.2119C35.7764 59.7191 35.3451 59.6336 34.9427 59.4671C34.5403 59.3006 34.1747 59.0564 33.8668 58.7485C33.5589 58.4405 33.3147 58.0749 33.1482 57.6725C32.9817 57.2701 32.8962 56.8388 32.8965 56.4034V40.6875C32.8962 40.252 32.9817 39.8207 33.1482 39.4183C33.3147 39.0159 33.5589 38.6503 33.8668 38.3424C34.1747 38.0345 34.5403 37.7903 34.9427 37.6238C35.3451 37.4573 35.7764 37.3718 36.2119 37.3721H41.5958C42.0312 37.3718 42.4625 37.4573 42.8649 37.6238C43.2673 37.7903 43.6329 38.0345 43.9408 38.3424C44.2488 38.6503 44.493 39.0159 44.6595 39.4183C44.826 39.8207 44.9115 40.252 44.9111 40.6875ZM30.1035 32.6104V56.4034C30.1035 58.2356 28.6204 59.7187 26.7881 59.7187H21.4043C20.9688 59.7191 20.5375 59.6336 20.1351 59.4671C19.7327 59.3006 19.3671 59.0564 19.0592 58.7485C18.7512 58.4405 18.507 58.0749 18.3405 57.6725C18.1741 57.2701 18.0885 56.8388 18.0889 56.4034V32.6104C18.0885 32.1749 18.1741 31.7436 18.3405 31.3412C18.507 30.9388 18.7512 30.5732 19.0592 30.2653C19.3671 29.9573 19.7327 29.7131 20.1351 29.5467C20.5375 29.3802 20.9688 29.2946 21.4043 29.295H26.7881C28.6204 29.295 30.1035 30.7807 30.1035 32.6104ZM59.7188 32.6104V56.4034C59.7188 58.2356 58.2356 59.7187 56.4034 59.7187H51.0195C50.584 59.7191 50.1528 59.6336 49.7504 59.4671C49.348 59.3006 48.9823 59.0564 48.6744 58.7485C48.3665 58.4405 48.1223 58.0749 47.9558 57.6725C47.7893 57.2701 47.7038 56.8388 47.7041 56.4034V32.6104C47.7038 32.1749 47.7893 31.7436 47.9558 31.3412C48.1223 30.9388 48.3665 30.5732 48.6744 30.2653C48.9823 29.9573 49.348 29.7131 49.7504 29.5467C50.1528 29.3802 50.584 29.2946 51.0195 29.295H56.4034C58.2356 29.295 59.7188 30.7807 59.7188 32.6104Z" fill="#1576FF"/>
<path fill-rule="evenodd" clip-rule="evenodd" d="M6.43106 6.82501C6.01335 6.51172 5.73719 6.04533 5.66335 5.52843C5.58951 5.01153 5.72403 4.48647 6.03731 4.06876C6.3506 3.65104 6.81699 3.37489 7.33389 3.30104C7.85079 3.2272 8.37585 3.36172 8.79356 3.67501L24.4202 15.3956H31.8411C32.1394 15.3956 32.4339 15.4635 32.7022 15.594C32.9705 15.7245 33.2056 15.9143 33.3898 16.149L39.3932 23.7904L53.3057 9.27151C53.4846 9.08484 53.6985 8.93524 53.9352 8.83125C54.172 8.72726 54.4269 8.67091 54.6854 8.66543C54.9439 8.65995 55.2009 8.70543 55.4418 8.79929C55.6828 8.89315 55.9028 9.03354 56.0895 9.21245C56.2762 9.39136 56.4258 9.60528 56.5298 9.842C56.6337 10.0787 56.6901 10.3336 56.6956 10.5921C56.7011 10.8506 56.6556 11.1077 56.5617 11.3486C56.4679 11.5895 56.3275 11.8096 56.1486 11.9963L40.6663 28.1505C40.4719 28.355 40.2356 28.5152 39.9736 28.62C39.7116 28.7249 39.43 28.7719 39.1482 28.758C38.8663 28.744 38.5908 28.6694 38.3404 28.5392C38.09 28.409 37.8707 28.2262 37.6974 28.0035L30.8856 19.3331H23.7639C23.3379 19.3337 22.9232 19.1955 22.5827 18.9394L6.43106 6.82501Z" fill="#1576FF"/>
<mask id="mask0_54_24733" style="mask-type:alpha" maskUnits="userSpaceOnUse" x="3" y="3" width="57" height="57">
<path fill-rule="evenodd" clip-rule="evenodd" d="M57.204 16.8026C57.169 17.3084 56.9405 17.7813 56.5659 18.123C56.1914 18.4647 55.6995 18.649 55.1926 18.6375C54.6858 18.626 54.2028 18.4197 53.8441 18.0613C53.4854 17.703 53.2785 17.2202 53.2665 16.7134L53.3741 11.9726L48.636 11.865C48.1302 11.83 47.6573 11.6015 47.3156 11.2269C46.9739 10.8524 46.7896 10.3605 46.8011 9.85364C46.8126 9.34675 47.019 8.86377 47.3773 8.50507C47.7356 8.14636 48.2184 7.93951 48.7253 7.92749L55.4348 8.08237C55.6931 8.08782 55.9478 8.1442 56.1843 8.24828C56.4208 8.35236 56.6344 8.50209 56.8129 8.68889C56.9914 8.87569 57.1313 9.09588 57.2245 9.33685C57.3178 9.57781 57.3625 9.83481 57.3563 10.0931L57.204 16.8026ZM15.2959 24.5332V56.4034C15.2959 58.2356 13.8128 59.7187 11.9805 59.7187H6.59663C6.16115 59.7191 5.72987 59.6336 5.32748 59.4671C4.92508 59.3006 4.55946 59.0564 4.25153 58.7485C3.9436 58.4405 3.69941 58.0749 3.53292 57.6725C3.36642 57.2701 3.28091 56.8388 3.28125 56.4034V24.5332C3.28125 22.7036 4.76438 21.2179 6.59663 21.2179H11.9805C13.8128 21.2179 15.2959 22.7036 15.2959 24.5332ZM44.9111 40.6875V56.4034C44.9115 56.8388 44.826 57.2701 44.6595 57.6725C44.493 58.0749 44.2488 58.4405 43.9408 58.7485C43.6329 59.0564 43.2673 59.3006 42.8649 59.4671C42.4625 59.6336 42.0312 59.7191 41.5958 59.7187H36.2119C35.7764 59.7191 35.3451 59.6336 34.9427 59.4671C34.5403 59.3006 34.1747 59.0564 33.8668 58.7485C33.5589 58.4405 33.3147 58.0749 33.1482 57.6725C32.9817 57.2701 32.8962 56.8388 32.8965 56.4034V40.6875C32.8962 40.252 32.9817 39.8207 33.1482 39.4183C33.3147 39.0159 33.5589 38.6503 33.8668 38.3424C34.1747 38.0345 34.5403 37.7903 34.9427 37.6238C35.3451 37.4573 35.7764 37.3718 36.2119 37.3721H41.5958C42.0312 37.3718 42.4625 37.4573 42.8649 37.6238C43.2673 37.7903 43.6329 38.0345 43.9408 38.3424C44.2488 38.6503 44.493 39.0159 44.6595 39.4183C44.826 39.8207 44.9115 40.252 44.9111 40.6875ZM30.1035 32.6104V56.4034C30.1035 58.2356 28.6204 59.7187 26.7881 59.7187H21.4043C20.9688 59.7191 20.5375 59.6336 20.1351 59.4671C19.7327 59.3006 19.3671 59.0564 19.0592 58.7485C18.7512 58.4405 18.507 58.0749 18.3405 57.6725C18.1741 57.2701 18.0885 56.8388 18.0889 56.4034V32.6104C18.0885 32.1749 18.1741 31.7436 18.3405 31.3412C18.507 30.9388 18.7512 30.5732 19.0592 30.2653C19.3671 29.9573 19.7327 29.7131 20.1351 29.5467C20.5375 29.3802 20.9688 29.2946 21.4043 29.295H26.7881C28.6204 29.295 30.1035 30.7807 30.1035 32.6104ZM59.7188 32.6104V56.4034C59.7188 58.2356 58.2356 59.7187 56.4034 59.7187H51.0195C50.584 59.7191 50.1528 59.6336 49.7504 59.4671C49.348 59.3006 48.9823 59.0564 48.6744 58.7485C48.3665 58.4405 48.1223 58.0749 47.9558 57.6725C47.7893 57.2701 47.7038 56.8388 47.7041 56.4034V32.6104C47.7038 32.1749 47.7893 31.7436 47.9558 31.3412C48.1223 30.9388 48.3665 30.5732 48.6744 30.2653C48.9823 29.9573 49.348 29.7131 49.7504 29.5467C50.1528 29.3802 50.584 29.2946 51.0195 29.295H56.4034C58.2356 29.295 59.7188 30.7807 59.7188 32.6104Z" fill="#1576FF"/>
<path fill-rule="evenodd" clip-rule="evenodd" d="M6.43106 6.82501C6.01335 6.51172 5.73719 6.04533 5.66335 5.52843C5.58951 5.01153 5.72403 4.48647 6.03731 4.06876C6.3506 3.65104 6.81699 3.37489 7.33389 3.30104C7.85079 3.2272 8.37585 3.36172 8.79356 3.67501L24.4202 15.3956H31.8411C32.1394 15.3956 32.4339 15.4635 32.7022 15.594C32.9705 15.7245 33.2056 15.9143 33.3898 16.149L39.3932 23.7904L53.3057 9.27151C53.4846 9.08484 53.6985 8.93524 53.9352 8.83125C54.172 8.72726 54.4269 8.67091 54.6854 8.66543C54.9439 8.65995 55.2009 8.70543 55.4418 8.79929C55.6828 8.89315 55.9028 9.03354 56.0895 9.21245C56.2762 9.39136 56.4258 9.60528 56.5298 9.842C56.6337 10.0787 56.6901 10.3336 56.6956 10.5921C56.7011 10.8506 56.6556 11.1077 56.5617 11.3486C56.4679 11.5895 56.3275 11.8096 56.1486 11.9963L40.6663 28.1505C40.4719 28.355 40.2356 28.5152 39.9736 28.62C39.7116 28.7249 39.43 28.7719 39.1482 28.758C38.8663 28.744 38.5908 28.6694 38.3404 28.5392C38.09 28.409 37.8707 28.2262 37.6974 28.0035L30.8856 19.3331H23.7639C23.3379 19.3337 22.9232 19.1955 22.5827 18.9394L6.43106 6.82501Z" fill="#1576FF"/>
</mask>
<g mask="url(#mask0_54_24733)">
<rect x="33" y="2" width="32" height="61" fill="#C65589"/>
</g>
</svg>
