<svg width="21" height="19" viewBox="0 0 21 19" fill="none" xmlns="http://www.w3.org/2000/svg">
<path d="M16.5375 0.0088501H19.7593L12.7225 8.04922L21 18.992H14.5206L9.44213 12.3568L3.63738 18.992H0.410375L7.93538 10.3898L0 0.0088501H6.64388L11.2297 6.07347L16.5375 0.0088501ZM15.4061 17.0661H17.1903L5.67175 1.8341H3.7555L15.4061 17.0661Z" fill="#C655AE"/>
<path d="M16.5375 0.0088501H19.7593L12.7225 8.04922L21 18.992H14.5206L9.44213 12.3568L3.63738 18.992H0.410375L7.93538 10.3898L0 0.0088501H6.64388L11.2297 6.07347L16.5375 0.0088501ZM15.4061 17.0661H17.1903L5.67175 1.8341H3.7555L15.4061 17.0661Z" fill="url(#paint0_linear_2_3298)"/>
<path d="M16.5375 0.0088501H19.7593L12.7225 8.04922L21 18.992H14.5206L9.44213 12.3568L3.63738 18.992H0.410375L7.93538 10.3898L0 0.0088501H6.64388L11.2297 6.07347L16.5375 0.0088501ZM15.4061 17.0661H17.1903L5.67175 1.8341H3.7555L15.4061 17.0661Z" fill="url(#paint1_linear_2_3298)"/>
<defs>
<linearGradient id="paint0_linear_2_3298" x1="0" y1="0.0088501" x2="16.1366" y2="8.8677" gradientUnits="userSpaceOnUse">
<stop stop-color="#4B28A9"/>
<stop offset="0.952114" stop-color="#C655AE"/>
</linearGradient>
<linearGradient id="paint1_linear_2_3298" x1="0" y1="0.0088501" x2="17.8907" y2="18.6384" gradientUnits="userSpaceOnUse">
<stop stop-color="#2272E4"/>
<stop offset="0.572848" stop-color="#13325E"/>
<stop offset="1" stop-color="#010204"/>
</linearGradient>
</defs>
</svg>
